<?xml version="1.0" standalone="no"?>
<!DOCTYPE svg PUBLIC "-//W3C//DTD SVG 20010904//EN"
 "http://www.w3.org/TR/2001/REC-SVG-20010904/DTD/svg10.dtd">
<svg version="1.0" xmlns="http://www.w3.org/2000/svg"
 width="632.000000pt" height="632.000000pt" viewBox="0 0 632.000000 632.000000"
 preserveAspectRatio="xMidYMid meet">
<metadata>
Created by potrace 1.14, written by Peter Selinger 2001-2017
</metadata>
<g transform="translate(0.000000,632.000000) scale(0.100000,-0.100000)"
fill="#000000" stroke="none">
<path d="M1601 5900 c-48 -22 -72 -48 -115 -124 -16 -28 -107 -187 -202 -353
-96 -166 -174 -307 -174 -313 0 -5 -4 -10 -8 -10 -10 0 -38 -88 -45 -138 -5
-33 64 -39 479 -41 225 -1 414 -2 419 -2 6 0 67 1 137 1 70 1 132 -1 138 -5 5
-3 10 -2 10 4 0 6 6 8 13 6 23 -9 107 -11 107 -2 0 4 5 5 12 1 6 -4 402 -8
879 -10 862 -2 868 -2 912 -23 45 -22 87 -71 127 -151 12 -25 51 -92 85 -150
34 -58 73 -125 87 -150 14 -25 36 -63 48 -85 13 -22 30 -51 37 -65 8 -14 23
-38 33 -55 11 -16 24 -41 30 -54 6 -13 19 -35 29 -50 10 -14 31 -48 46 -76 15
-27 54 -96 86 -152 33 -56 59 -106 59 -112 0 -5 3 -11 8 -13 6 -2 106 -174
183 -313 9 -16 42 -74 73 -129 80 -142 89 -192 47 -274 -22 -43 -52 -73 -101
-98 -33 -17 -65 -18 -475 -15 -1176 8 -1641 8 -1657 -1 -10 -5 -18 -16 -18
-25 0 -13 131 -208 150 -223 4 -3 11 -12 16 -21 5 -9 21 -32 36 -50 56 -71
267 -358 333 -454 38 -55 72 -102 75 -105 9 -9 30 -45 36 -62 4 -10 10 -18 14
-18 4 0 15 -16 26 -35 10 -19 22 -35 26 -35 5 0 8 -5 8 -12 0 -9 72 -112 89
-128 3 -3 17 -21 31 -40 13 -19 28 -39 32 -45 10 -12 114 -150 142 -189 11
-15 30 -39 43 -54 13 -15 23 -30 23 -34 0 -4 6 -13 14 -20 12 -12 152 -198
262 -348 19 -25 37 -49 42 -55 14 -18 126 -167 142 -189 8 -12 23 -30 32 -41
17 -20 135 -177 173 -230 71 -99 92 -108 140 -62 19 18 82 120 141 227 59 107
112 198 118 202 6 4 7 8 3 8 -4 0 6 20 23 45 17 25 27 45 23 45 -4 0 -3 4 3 8
6 4 22 27 34 52 12 25 26 47 29 50 4 3 18 26 31 53 14 26 28 47 32 47 5 0 8 7
8 15 0 8 5 15 12 15 6 0 9 3 6 6 -4 3 0 21 8 41 17 40 12 95 -13 133 -13 20
-94 126 -141 185 -4 6 -41 55 -82 110 -127 171 -138 189 -117 202 7 4 154 8
327 9 338 3 355 4 398 30 27 15 142 189 142 213 0 6 3 11 8 11 4 0 18 21 32
48 14 26 50 90 81 142 31 52 68 118 84 145 15 28 91 158 168 290 167 285 179
307 180 343 1 72 -8 91 -191 405 -29 49 -52 93 -52 98 0 5 -4 9 -9 9 -5 0 -11
8 -15 18 -3 9 -23 46 -45 82 -22 36 -44 72 -47 80 -4 8 -22 39 -41 68 -18 29
-33 54 -33 56 0 2 -46 81 -102 177 -56 96 -108 189 -117 207 -8 17 -19 32 -23
32 -4 0 -8 4 -8 10 0 5 -17 38 -38 72 -21 35 -49 84 -62 111 -14 26 -28 47
-32 47 -5 0 -8 6 -8 14 0 7 -9 25 -20 38 -10 14 -17 28 -14 30 2 3 -2 11 -11
18 -8 7 -15 16 -15 21 0 4 -31 60 -69 123 -38 64 -67 116 -64 116 4 0 -1 8 -9
18 -9 9 -27 37 -40 62 -63 114 -91 160 -99 166 -5 3 -7 10 -4 15 4 5 1 9 -4 9
-6 0 -11 4 -11 9 0 4 -23 48 -51 97 -29 49 -101 175 -161 279 -112 195 -140
233 -193 263 -28 16 -137 17 -1555 19 -1502 3 -1526 2 -1569 -17z"/>
<path d="M753 4454 c-47 -22 -58 -35 -123 -149 -34 -61 -69 -120 -76 -132 -8
-13 -13 -24 -12 -25 2 -2 -7 -16 -18 -33 -12 -16 -32 -50 -46 -75 -41 -73
-157 -274 -168 -290 -6 -8 -13 -22 -17 -30 -4 -8 -44 -80 -90 -159 -46 -79
-83 -147 -83 -151 0 -5 -3 -10 -7 -12 -5 -1 -18 -21 -29 -43 -12 -22 -33 -61
-48 -87 -48 -83 -41 -139 29 -253 14 -22 30 -49 35 -60 6 -11 19 -33 29 -50
27 -44 319 -551 354 -615 16 -30 36 -62 43 -71 8 -8 14 -19 14 -22 0 -4 18
-37 40 -73 22 -36 40 -67 40 -69 0 -2 21 -39 47 -82 25 -43 55 -94 65 -113 10
-19 23 -42 28 -50 11 -17 160 -272 197 -337 13 -24 75 -131 138 -239 63 -108
115 -200 115 -205 0 -5 5 -9 10 -9 6 0 10 -4 10 -9 0 -5 28 -57 63 -115 34
-59 71 -124 83 -145 11 -22 25 -45 31 -53 6 -7 26 -42 45 -78 71 -131 97 -167
138 -187 37 -17 92 -18 1258 -18 1132 1 1221 2 1245 18 22 14 26 22 20 50 -6
36 -33 87 -45 87 -4 0 -8 4 -8 9 0 6 -23 41 -51 78 -28 37 -61 81 -72 97 -12
16 -33 44 -47 62 -14 18 -36 49 -50 69 -14 19 -34 46 -45 58 -11 13 -31 40
-45 60 -14 20 -28 37 -32 37 -5 0 -8 6 -8 13 0 6 -14 26 -30 44 -17 18 -30 36
-30 42 0 5 -4 11 -8 13 -5 2 -35 39 -67 83 -33 44 -73 93 -89 109 -65 61 -47
60 -676 62 -383 1 -589 5 -616 13 -48 13 -92 57 -130 132 -25 50 -100 183
-179 319 -75 128 -179 308 -197 340 -11 19 -53 91 -93 160 -177 305 -212 367
-249 435 -6 11 -13 22 -16 25 -3 3 -11 16 -17 30 -7 14 -26 48 -42 75 -17 28
-39 68 -50 90 -12 22 -30 55 -41 73 -11 17 -17 32 -14 32 4 0 2 6 -3 13 -6 6
-9 20 -8 30 5 27 92 199 115 225 46 54 -9 53 1625 48 830 -2 1523 -1 1538 2
26 4 27 7 21 36 -4 17 -47 99 -95 183 -49 84 -89 155 -89 159 0 3 -8 18 -19
32 -10 15 -29 45 -41 67 -47 84 -175 313 -211 375 -55 96 -99 138 -164 155
-16 5 -710 9 -1542 10 -1215 1 -1517 -1 -1540 -11z"/>
</g>
</svg>
