<svg width="666" height="398" viewBox="0 0 666 398" fill="none" xmlns="http://www.w3.org/2000/svg">
<path d="M208.446 214V174.716H132.562V153.732C139.232 142.345 145.332 130.877 150.862 119.328C156.393 107.779 161.436 95.7413 165.99 83.216C170.545 70.528 174.368 57.352 177.458 43.688H204.054C201.94 52.472 199.256 61.5 196.002 70.772C192.912 79.8813 189.414 88.828 185.51 97.612C181.769 106.396 178.028 114.529 174.286 122.012C170.545 129.495 167.048 136.001 163.794 141.532C160.541 147.063 157.938 151.129 155.986 153.732H208.446V105.664C209.585 102.899 210.724 99.9707 211.862 96.88C213.164 93.6267 214.384 90.3733 215.522 87.12C216.661 83.704 217.718 80.4507 218.694 77.36C219.67 74.2693 220.565 71.3413 221.378 68.576H233.822V153.732H255.294V174.716H233.822V214H208.446ZM486.759 214V174.716H410.875V153.732C417.544 142.345 423.644 130.877 429.175 119.328C434.705 107.779 439.748 95.7413 444.303 83.216C448.857 70.528 452.68 57.352 455.771 43.688H482.367C480.252 52.472 477.568 61.5 474.315 70.772C471.224 79.8813 467.727 88.828 463.823 97.612C460.081 106.396 456.34 114.529 452.599 122.012C448.857 129.495 445.36 136.001 442.107 141.532C438.853 147.063 436.251 151.129 434.299 153.732H486.759V105.664C487.897 102.899 489.036 99.9707 490.175 96.88C491.476 93.6267 492.696 90.3733 493.835 87.12C494.973 83.704 496.031 80.4507 497.007 77.36C497.983 74.2693 498.877 71.3413 499.691 68.576H512.135V153.732H533.607V174.716H512.135V214H486.759Z" fill="#370F8C"/>
<path d="M333.473 216.928C324.527 216.928 316.393 215.627 309.073 213.024C301.916 210.259 295.816 205.623 290.773 199.116C285.893 192.609 282.071 183.825 279.305 172.764C276.703 161.54 275.401 147.388 275.401 130.308C275.401 113.228 276.703 99.1573 279.305 88.096C282.071 76.872 285.893 68.0067 290.773 61.5C295.816 54.9933 301.916 50.4387 309.073 47.836C316.393 45.0707 324.527 43.688 333.473 43.688C342.583 43.688 350.716 45.0707 357.873 47.836C365.031 50.4387 371.049 54.9933 375.929 61.5C380.972 68.0067 384.795 76.872 387.397 88.096C390.163 99.1573 391.545 113.228 391.545 130.308C391.545 147.388 390.163 161.54 387.397 172.764C384.795 183.825 380.972 192.609 375.929 199.116C371.049 205.623 365.031 210.259 357.873 213.024C350.716 215.627 342.583 216.928 333.473 216.928ZM333.473 195.944C342.095 195.944 348.601 193.748 352.993 189.356C357.548 184.801 360.72 178.132 362.509 169.348C364.299 160.564 365.193 149.665 365.193 136.652V124.696C365.193 111.357 364.299 100.296 362.509 91.512C360.72 82.5653 357.548 75.896 352.993 71.504C348.601 66.9493 342.095 64.672 333.473 64.672C325.015 64.672 318.508 66.9493 313.953 71.504C309.399 75.896 306.227 82.484 304.437 91.268C302.648 100.052 301.753 111.032 301.753 124.208V136.164C301.753 149.177 302.648 160.157 304.437 169.104C306.227 178.051 309.399 184.801 313.953 189.356C318.508 193.748 325.015 195.944 333.473 195.944Z" fill="#20C997"/>
<path d="M15.887 314.48C13.0604 314.48 10.607 313.96 8.52703 312.92C6.4737 311.88 4.88703 310.307 3.76703 308.2C2.6737 306.093 2.12703 303.453 2.12703 300.28C2.12703 297.08 2.6737 294.44 3.76703 292.36C4.88703 290.253 6.4737 288.68 8.52703 287.64C10.607 286.6 13.0604 286.08 15.887 286.08C18.767 286.08 21.2337 286.6 23.287 287.64C25.3404 288.68 26.9137 290.253 28.007 292.36C29.127 294.44 29.687 297.08 29.687 300.28C29.687 303.453 29.127 306.093 28.007 308.2C26.9137 310.307 25.3404 311.88 23.287 312.92C21.2337 313.96 18.767 314.48 15.887 314.48ZM15.887 310.68C17.3537 310.68 18.647 310.48 19.767 310.08C20.9137 309.68 21.8737 309.067 22.647 308.24C23.447 307.413 24.047 306.373 24.447 305.12C24.8737 303.867 25.087 302.413 25.087 300.76V299.88C25.087 298.173 24.8737 296.693 24.447 295.44C24.047 294.187 23.447 293.147 22.647 292.32C21.8737 291.493 20.9137 290.88 19.767 290.48C18.647 290.08 17.3537 289.88 15.887 289.88C14.447 289.88 13.1537 290.08 12.007 290.48C10.887 290.88 9.92703 291.493 9.12703 292.32C8.3537 293.147 7.76703 294.187 7.36703 295.44C6.96703 296.693 6.76703 298.173 6.76703 299.88V300.76C6.76703 302.413 6.96703 303.867 7.36703 305.12C7.76703 306.373 8.3537 307.413 9.12703 308.24C9.92703 309.067 10.887 309.68 12.007 310.08C13.1537 310.48 14.447 310.68 15.887 310.68ZM34.2933 314V285.08H38.4533V295.48H38.7333C39.2399 294.84 39.8133 294.307 40.4533 293.88C41.0933 293.427 41.8133 293.08 42.6133 292.84C43.4133 292.6 44.2933 292.48 45.2533 292.48C46.5866 292.48 47.7599 292.72 48.7733 293.2C49.7866 293.653 50.5733 294.4 51.1333 295.44C51.7199 296.48 52.0133 297.88 52.0133 299.64V314H47.8533V300.28C47.8533 299.48 47.7466 298.813 47.5333 298.28C47.3466 297.747 47.0666 297.32 46.6933 297C46.3199 296.68 45.8799 296.453 45.3733 296.32C44.8666 296.187 44.3066 296.12 43.6933 296.12C42.7333 296.12 41.8533 296.347 41.0533 296.8C40.2799 297.253 39.6533 297.893 39.1733 298.72C38.6933 299.547 38.4533 300.533 38.4533 301.68V314H34.2933ZM65.9861 314V286.56H70.3061L82.8261 303.76C82.9861 303.92 83.1594 304.147 83.3461 304.44C83.5594 304.733 83.7594 305.027 83.9461 305.32C84.1328 305.613 84.2661 305.853 84.3461 306.04H84.5461C84.5461 305.64 84.5461 305.253 84.5461 304.88C84.5461 304.507 84.5461 304.133 84.5461 303.76V286.56H88.8661V314H84.7061L72.0261 296.6C71.8128 296.28 71.5461 295.88 71.2261 295.4C70.9061 294.893 70.6661 294.507 70.5061 294.24H70.3061C70.3061 294.613 70.3061 295 70.3061 295.4C70.3061 295.773 70.3061 296.173 70.3061 296.6V314H65.9861ZM103.761 314.48C101.574 314.48 99.7211 314.093 98.2011 313.32C96.7078 312.52 95.5744 311.307 94.8011 309.68C94.0544 308.053 93.6811 305.987 93.6811 303.48C93.6811 300.947 94.0544 298.88 94.8011 297.28C95.5744 295.653 96.7078 294.453 98.2011 293.68C99.7211 292.88 101.574 292.48 103.761 292.48C106.001 292.48 107.868 292.88 109.361 293.68C110.854 294.453 111.974 295.653 112.721 297.28C113.494 298.88 113.881 300.947 113.881 303.48C113.881 305.987 113.494 308.053 112.721 309.68C111.974 311.307 110.854 312.52 109.361 313.32C107.868 314.093 106.001 314.48 103.761 314.48ZM103.761 311.04C105.094 311.04 106.188 310.787 107.041 310.28C107.894 309.747 108.521 308.947 108.921 307.88C109.348 306.813 109.561 305.467 109.561 303.84V303.12C109.561 301.493 109.348 300.147 108.921 299.08C108.521 298.013 107.894 297.227 107.041 296.72C106.188 296.187 105.094 295.92 103.761 295.92C102.454 295.92 101.374 296.187 100.521 296.72C99.6678 297.227 99.0278 298.013 98.6011 299.08C98.2011 300.147 98.0011 301.493 98.0011 303.12V303.84C98.0011 305.467 98.2011 306.813 98.6011 307.88C99.0278 308.947 99.6678 309.747 100.521 310.28C101.374 310.787 102.454 311.04 103.761 311.04ZM118.601 320.16V318.36C119.188 318.253 119.655 317.987 120.001 317.56C120.375 317.16 120.641 316.653 120.801 316.04C120.988 315.427 121.081 314.747 121.081 314H118.961V309.36H123.401V313.56C123.401 315.107 123.161 316.333 122.681 317.24C122.228 318.147 121.628 318.813 120.881 319.24C120.161 319.693 119.401 320 118.601 320.16ZM148.568 314.48C147.075 314.48 145.635 314.32 144.248 314C142.861 313.707 141.635 313.227 140.568 312.56C139.501 311.867 138.661 311 138.048 309.96C137.435 308.893 137.128 307.627 137.128 306.16C137.128 306 137.128 305.853 137.128 305.72C137.155 305.56 137.168 305.427 137.168 305.32H141.648C141.648 305.4 141.635 305.52 141.608 305.68C141.608 305.84 141.608 305.973 141.608 306.08C141.608 307.067 141.901 307.907 142.488 308.6C143.075 309.293 143.888 309.813 144.928 310.16C145.995 310.507 147.208 310.68 148.568 310.68C149.315 310.68 150.035 310.64 150.728 310.56C151.421 310.453 152.048 310.307 152.608 310.12C153.195 309.907 153.701 309.653 154.128 309.36C154.555 309.04 154.888 308.667 155.128 308.24C155.368 307.813 155.488 307.32 155.488 306.76C155.488 305.907 155.235 305.2 154.728 304.64C154.248 304.08 153.581 303.613 152.728 303.24C151.901 302.867 150.955 302.533 149.888 302.24C148.848 301.947 147.768 301.653 146.648 301.36C145.528 301.067 144.435 300.72 143.368 300.32C142.328 299.92 141.381 299.44 140.528 298.88C139.701 298.293 139.035 297.573 138.528 296.72C138.048 295.84 137.808 294.773 137.808 293.52C137.808 292.32 138.061 291.253 138.568 290.32C139.075 289.387 139.808 288.613 140.768 288C141.728 287.36 142.875 286.88 144.208 286.56C145.541 286.24 147.048 286.08 148.728 286.08C150.168 286.08 151.528 286.24 152.808 286.56C154.088 286.853 155.208 287.32 156.168 287.96C157.128 288.6 157.875 289.413 158.408 290.4C158.968 291.387 159.248 292.56 159.248 293.92V294.4H154.808V293.88C154.808 293.027 154.555 292.307 154.048 291.72C153.541 291.133 152.835 290.68 151.928 290.36C151.021 290.04 149.968 289.88 148.768 289.88C147.355 289.88 146.168 290.027 145.208 290.32C144.248 290.587 143.515 290.973 143.008 291.48C142.528 291.96 142.288 292.547 142.288 293.24C142.288 294.013 142.541 294.653 143.048 295.16C143.555 295.64 144.221 296.053 145.048 296.4C145.901 296.747 146.848 297.067 147.888 297.36C148.955 297.627 150.035 297.92 151.128 298.24C152.248 298.533 153.328 298.88 154.368 299.28C155.435 299.68 156.381 300.173 157.208 300.76C158.061 301.347 158.741 302.08 159.248 302.96C159.755 303.813 160.008 304.867 160.008 306.12C160.008 308.093 159.515 309.707 158.528 310.96C157.541 312.187 156.181 313.08 154.448 313.64C152.741 314.2 150.781 314.48 148.568 314.48ZM173.365 314.48C171.205 314.48 169.392 314.093 167.925 313.32C166.485 312.52 165.392 311.307 164.645 309.68C163.898 308.053 163.525 305.987 163.525 303.48C163.525 300.947 163.898 298.88 164.645 297.28C165.392 295.653 166.498 294.453 167.965 293.68C169.432 292.88 171.258 292.48 173.445 292.48C175.445 292.48 177.112 292.867 178.445 293.64C179.805 294.387 180.832 295.533 181.525 297.08C182.218 298.627 182.565 300.573 182.565 302.92V304.52H167.805C167.858 306.013 168.085 307.267 168.485 308.28C168.885 309.267 169.485 310 170.285 310.48C171.112 310.933 172.152 311.16 173.405 311.16C174.178 311.16 174.872 311.067 175.485 310.88C176.098 310.667 176.618 310.373 177.045 310C177.472 309.6 177.805 309.133 178.045 308.6C178.285 308.04 178.405 307.413 178.405 306.72H182.485C182.485 307.973 182.272 309.08 181.845 310.04C181.418 311 180.792 311.813 179.965 312.48C179.165 313.12 178.205 313.613 177.085 313.96C175.965 314.307 174.725 314.48 173.365 314.48ZM167.885 301.48H178.205C178.205 300.44 178.085 299.573 177.845 298.88C177.632 298.16 177.312 297.573 176.885 297.12C176.458 296.667 175.952 296.347 175.365 296.16C174.778 295.947 174.112 295.84 173.365 295.84C172.245 295.84 171.285 296.04 170.485 296.44C169.712 296.84 169.112 297.467 168.685 298.32C168.258 299.147 167.992 300.2 167.885 301.48ZM195.513 314.48C193.353 314.48 191.54 314.093 190.073 313.32C188.633 312.52 187.54 311.307 186.793 309.68C186.047 308.053 185.673 305.987 185.673 303.48C185.673 300.947 186.047 298.88 186.793 297.28C187.54 295.653 188.647 294.453 190.113 293.68C191.58 292.88 193.407 292.48 195.593 292.48C197.593 292.48 199.26 292.867 200.593 293.64C201.953 294.387 202.98 295.533 203.673 297.08C204.367 298.627 204.713 300.573 204.713 302.92V304.52H189.953C190.007 306.013 190.233 307.267 190.633 308.28C191.033 309.267 191.633 310 192.433 310.48C193.26 310.933 194.3 311.16 195.553 311.16C196.327 311.16 197.02 311.067 197.633 310.88C198.247 310.667 198.767 310.373 199.193 310C199.62 309.6 199.953 309.133 200.193 308.6C200.433 308.04 200.553 307.413 200.553 306.72H204.633C204.633 307.973 204.42 309.08 203.993 310.04C203.567 311 202.94 311.813 202.113 312.48C201.313 313.12 200.353 313.613 199.233 313.96C198.113 314.307 196.873 314.48 195.513 314.48ZM190.033 301.48H200.353C200.353 300.44 200.233 299.573 199.993 298.88C199.78 298.16 199.46 297.573 199.033 297.12C198.607 296.667 198.1 296.347 197.513 296.16C196.927 295.947 196.26 295.84 195.513 295.84C194.393 295.84 193.433 296.04 192.633 296.44C191.86 296.84 191.26 297.467 190.833 298.32C190.407 299.147 190.14 300.2 190.033 301.48ZM208.942 314V292.96H212.382L212.742 295.96H213.022C213.502 295.187 214.048 294.547 214.662 294.04C215.302 293.533 216.008 293.147 216.782 292.88C217.582 292.613 218.435 292.48 219.342 292.48C220.648 292.48 221.782 292.747 222.742 293.28C223.728 293.813 224.475 294.707 224.982 295.96H225.262C225.742 295.213 226.302 294.587 226.942 294.08C227.582 293.547 228.302 293.147 229.102 292.88C229.928 292.613 230.808 292.48 231.742 292.48C232.995 292.48 234.102 292.707 235.062 293.16C236.022 293.587 236.782 294.32 237.342 295.36C237.902 296.373 238.182 297.733 238.182 299.44V314H234.022V300.2C234.022 299.4 233.928 298.747 233.742 298.24C233.555 297.707 233.302 297.293 232.982 297C232.662 296.68 232.275 296.453 231.822 296.32C231.368 296.187 230.875 296.12 230.342 296.12C229.462 296.12 228.675 296.36 227.982 296.84C227.288 297.293 226.728 297.933 226.302 298.76C225.875 299.587 225.662 300.56 225.662 301.68V314H221.502V300.2C221.502 299.4 221.408 298.747 221.222 298.24C221.035 297.707 220.782 297.293 220.462 297C220.142 296.68 219.755 296.453 219.302 296.32C218.848 296.187 218.368 296.12 217.862 296.12C216.982 296.12 216.182 296.36 215.462 296.84C214.742 297.293 214.168 297.933 213.742 298.76C213.315 299.587 213.102 300.56 213.102 301.68V314H208.942ZM251.116 314.48C249.649 314.48 248.356 314.32 247.236 314C246.116 313.68 245.182 313.24 244.436 312.68C243.689 312.12 243.116 311.453 242.716 310.68C242.342 309.88 242.156 309 242.156 308.04C242.156 307.907 242.156 307.787 242.156 307.68C242.182 307.573 242.196 307.48 242.196 307.4H246.316C246.316 307.48 246.316 307.56 246.316 307.64C246.316 307.693 246.316 307.76 246.316 307.84C246.316 308.667 246.542 309.333 246.996 309.84C247.449 310.32 248.049 310.667 248.796 310.88C249.569 311.067 250.409 311.16 251.316 311.16C252.116 311.16 252.849 311.067 253.516 310.88C254.209 310.667 254.769 310.36 255.196 309.96C255.649 309.56 255.876 309.053 255.876 308.44C255.876 307.64 255.596 307.027 255.036 306.6C254.476 306.173 253.742 305.84 252.836 305.6C251.929 305.333 250.982 305.053 249.996 304.76C249.116 304.52 248.236 304.267 247.356 304C246.502 303.707 245.729 303.333 245.036 302.88C244.342 302.427 243.782 301.853 243.356 301.16C242.929 300.467 242.716 299.6 242.716 298.56C242.716 297.573 242.929 296.707 243.356 295.96C243.782 295.213 244.369 294.587 245.116 294.08C245.889 293.573 246.796 293.187 247.836 292.92C248.902 292.653 250.062 292.52 251.316 292.52C252.622 292.52 253.782 292.667 254.796 292.96C255.809 293.227 256.662 293.613 257.356 294.12C258.076 294.627 258.622 295.24 258.996 295.96C259.369 296.653 259.556 297.4 259.556 298.2C259.556 298.36 259.542 298.533 259.516 298.72C259.516 298.88 259.516 298.987 259.516 299.04H255.436V298.68C255.436 298.147 255.289 297.667 254.996 297.24C254.702 296.813 254.236 296.467 253.596 296.2C252.982 295.933 252.156 295.8 251.116 295.8C250.422 295.8 249.809 295.867 249.276 296C248.742 296.107 248.302 296.267 247.956 296.48C247.609 296.693 247.342 296.947 247.156 297.24C246.996 297.533 246.916 297.867 246.916 298.24C246.916 298.853 247.129 299.333 247.556 299.68C248.009 300 248.596 300.28 249.316 300.52C250.036 300.733 250.809 300.973 251.636 301.24C252.596 301.507 253.569 301.787 254.556 302.08C255.542 302.347 256.449 302.693 257.276 303.12C258.129 303.547 258.809 304.133 259.316 304.88C259.849 305.627 260.116 306.627 260.116 307.88C260.116 309.027 259.889 310.027 259.436 310.88C258.982 311.733 258.342 312.427 257.516 312.96C256.716 313.467 255.769 313.84 254.676 314.08C253.582 314.347 252.396 314.48 251.116 314.48ZM273.095 314V286.56H277.575V310.12H291.255V314H273.095ZM294.606 289.32V285.08H298.766V289.32H294.606ZM294.606 314V292.96H298.766V314H294.606ZM304.137 314V285.08H308.297V302.56L316.577 292.96H321.497L314.377 301.12L321.897 314H317.097L311.697 304.16L308.297 307.52V314H304.137ZM332.623 314.48C330.463 314.48 328.649 314.093 327.183 313.32C325.743 312.52 324.649 311.307 323.903 309.68C323.156 308.053 322.783 305.987 322.783 303.48C322.783 300.947 323.156 298.88 323.903 297.28C324.649 295.653 325.756 294.453 327.223 293.68C328.689 292.88 330.516 292.48 332.703 292.48C334.703 292.48 336.369 292.867 337.703 293.64C339.063 294.387 340.089 295.533 340.783 297.08C341.476 298.627 341.823 300.573 341.823 302.92V304.52H327.063C327.116 306.013 327.343 307.267 327.743 308.28C328.143 309.267 328.743 310 329.543 310.48C330.369 310.933 331.409 311.16 332.663 311.16C333.436 311.16 334.129 311.067 334.743 310.88C335.356 310.667 335.876 310.373 336.303 310C336.729 309.6 337.063 309.133 337.303 308.6C337.543 308.04 337.663 307.413 337.663 306.72H341.743C341.743 307.973 341.529 309.08 341.103 310.04C340.676 311 340.049 311.813 339.223 312.48C338.423 313.12 337.463 313.613 336.343 313.96C335.223 314.307 333.983 314.48 332.623 314.48ZM327.143 301.48H337.463C337.463 300.44 337.343 299.573 337.103 298.88C336.889 298.16 336.569 297.573 336.143 297.12C335.716 296.667 335.209 296.347 334.623 296.16C334.036 295.947 333.369 295.84 332.623 295.84C331.503 295.84 330.543 296.04 329.743 296.44C328.969 296.84 328.369 297.467 327.943 298.32C327.516 299.147 327.249 300.2 327.143 301.48ZM360.74 314V302.72L350.06 286.56H355.18L363.02 298.72H363.22L370.98 286.56H375.9L365.22 302.72V314H360.74ZM384.035 314.48C381.848 314.48 379.995 314.093 378.475 313.32C376.981 312.52 375.848 311.307 375.075 309.68C374.328 308.053 373.955 305.987 373.955 303.48C373.955 300.947 374.328 298.88 375.075 297.28C375.848 295.653 376.981 294.453 378.475 293.68C379.995 292.88 381.848 292.48 384.035 292.48C386.275 292.48 388.141 292.88 389.635 293.68C391.128 294.453 392.248 295.653 392.995 297.28C393.768 298.88 394.155 300.947 394.155 303.48C394.155 305.987 393.768 308.053 392.995 309.68C392.248 311.307 391.128 312.52 389.635 313.32C388.141 314.093 386.275 314.48 384.035 314.48ZM384.035 311.04C385.368 311.04 386.461 310.787 387.315 310.28C388.168 309.747 388.795 308.947 389.195 307.88C389.621 306.813 389.835 305.467 389.835 303.84V303.12C389.835 301.493 389.621 300.147 389.195 299.08C388.795 298.013 388.168 297.227 387.315 296.72C386.461 296.187 385.368 295.92 384.035 295.92C382.728 295.92 381.648 296.187 380.795 296.72C379.941 297.227 379.301 298.013 378.875 299.08C378.475 300.147 378.275 301.493 378.275 303.12V303.84C378.275 305.467 378.475 306.813 378.875 307.88C379.301 308.947 379.941 309.747 380.795 310.28C381.648 310.787 382.728 311.04 384.035 311.04ZM404.995 314.48C402.968 314.48 401.328 313.947 400.075 312.88C398.822 311.787 398.195 309.933 398.195 307.32V292.96H402.355V306.68C402.355 307.48 402.448 308.147 402.635 308.68C402.848 309.213 403.142 309.64 403.515 309.96C403.888 310.28 404.328 310.507 404.835 310.64C405.342 310.773 405.902 310.84 406.515 310.84C407.475 310.84 408.342 310.613 409.115 310.16C409.915 309.68 410.555 309.027 411.035 308.2C411.515 307.347 411.755 306.373 411.755 305.28V292.96H415.915V314H412.515L412.155 311H411.875C411.368 311.773 410.768 312.413 410.075 312.92C409.382 313.427 408.608 313.813 407.755 314.08C406.928 314.347 406.008 314.48 404.995 314.48ZM427.049 314L437.809 286.56H443.529L454.329 314H449.529L447.089 307.64H434.089L431.649 314H427.049ZM435.529 303.84H445.609L442.529 295.8C442.449 295.56 442.329 295.227 442.169 294.8C442.009 294.373 441.835 293.907 441.649 293.4C441.489 292.893 441.315 292.387 441.129 291.88C440.969 291.347 440.822 290.867 440.689 290.44H440.449C440.289 290.947 440.089 291.547 439.849 292.24C439.609 292.933 439.369 293.6 439.129 294.24C438.915 294.88 438.729 295.4 438.569 295.8L435.529 303.84ZM457.301 314V292.96H460.741L461.101 296.36H461.341C461.581 295.693 461.888 295.067 462.261 294.48C462.661 293.893 463.168 293.413 463.781 293.04C464.421 292.667 465.194 292.48 466.101 292.48C466.528 292.48 466.901 292.52 467.221 292.6C467.568 292.68 467.834 292.747 468.021 292.8V296.72H466.621C465.768 296.72 465.008 296.853 464.341 297.12C463.701 297.387 463.154 297.787 462.701 298.32C462.274 298.827 461.954 299.453 461.741 300.2C461.554 300.947 461.461 301.787 461.461 302.72V314H457.301ZM479.459 314.48C477.299 314.48 475.485 314.093 474.019 313.32C472.579 312.52 471.485 311.307 470.739 309.68C469.992 308.053 469.619 305.987 469.619 303.48C469.619 300.947 469.992 298.88 470.739 297.28C471.485 295.653 472.592 294.453 474.059 293.68C475.525 292.88 477.352 292.48 479.539 292.48C481.539 292.48 483.205 292.867 484.539 293.64C485.899 294.387 486.925 295.533 487.619 297.08C488.312 298.627 488.659 300.573 488.659 302.92V304.52H473.899C473.952 306.013 474.179 307.267 474.579 308.28C474.979 309.267 475.579 310 476.379 310.48C477.205 310.933 478.245 311.16 479.499 311.16C480.272 311.16 480.965 311.067 481.579 310.88C482.192 310.667 482.712 310.373 483.139 310C483.565 309.6 483.899 309.133 484.139 308.6C484.379 308.04 484.499 307.413 484.499 306.72H488.579C488.579 307.973 488.365 309.08 487.939 310.04C487.512 311 486.885 311.813 486.059 312.48C485.259 313.12 484.299 313.613 483.179 313.96C482.059 314.307 480.819 314.48 479.459 314.48ZM473.979 301.48H484.299C484.299 300.44 484.179 299.573 483.939 298.88C483.725 298.16 483.405 297.573 482.979 297.12C482.552 296.667 482.045 296.347 481.459 296.16C480.872 295.947 480.205 295.84 479.459 295.84C478.339 295.84 477.379 296.04 476.579 296.44C475.805 296.84 475.205 297.467 474.779 298.32C474.352 299.147 474.085 300.2 473.979 301.48ZM501.65 314V286.56H506.13V310.12H519.81V314H501.65ZM532.12 314.48C529.934 314.48 528.08 314.093 526.56 313.32C525.067 312.52 523.934 311.307 523.16 309.68C522.414 308.053 522.04 305.987 522.04 303.48C522.04 300.947 522.414 298.88 523.16 297.28C523.934 295.653 525.067 294.453 526.56 293.68C528.08 292.88 529.934 292.48 532.12 292.48C534.36 292.48 536.227 292.88 537.72 293.68C539.214 294.453 540.334 295.653 541.08 297.28C541.854 298.88 542.24 300.947 542.24 303.48C542.24 305.987 541.854 308.053 541.08 309.68C540.334 311.307 539.214 312.52 537.72 313.32C536.227 314.093 534.36 314.48 532.12 314.48ZM532.12 311.04C533.454 311.04 534.547 310.787 535.4 310.28C536.254 309.747 536.88 308.947 537.28 307.88C537.707 306.813 537.92 305.467 537.92 303.84V303.12C537.92 301.493 537.707 300.147 537.28 299.08C536.88 298.013 536.254 297.227 535.4 296.72C534.547 296.187 533.454 295.92 532.12 295.92C530.814 295.92 529.734 296.187 528.88 296.72C528.027 297.227 527.387 298.013 526.96 299.08C526.56 300.147 526.36 301.493 526.36 303.12V303.84C526.36 305.467 526.56 306.813 526.96 307.88C527.387 308.947 528.027 309.747 528.88 310.28C529.734 310.787 530.814 311.04 532.12 311.04ZM554.241 314.48C552.774 314.48 551.481 314.32 550.361 314C549.241 313.68 548.307 313.24 547.561 312.68C546.814 312.12 546.241 311.453 545.841 310.68C545.467 309.88 545.281 309 545.281 308.04C545.281 307.907 545.281 307.787 545.281 307.68C545.307 307.573 545.321 307.48 545.321 307.4H549.441C549.441 307.48 549.441 307.56 549.441 307.64C549.441 307.693 549.441 307.76 549.441 307.84C549.441 308.667 549.667 309.333 550.121 309.84C550.574 310.32 551.174 310.667 551.921 310.88C552.694 311.067 553.534 311.16 554.441 311.16C555.241 311.16 555.974 311.067 556.641 310.88C557.334 310.667 557.894 310.36 558.321 309.96C558.774 309.56 559.001 309.053 559.001 308.44C559.001 307.64 558.721 307.027 558.161 306.6C557.601 306.173 556.867 305.84 555.961 305.6C555.054 305.333 554.107 305.053 553.121 304.76C552.241 304.52 551.361 304.267 550.481 304C549.627 303.707 548.854 303.333 548.161 302.88C547.467 302.427 546.907 301.853 546.481 301.16C546.054 300.467 545.841 299.6 545.841 298.56C545.841 297.573 546.054 296.707 546.481 295.96C546.907 295.213 547.494 294.587 548.241 294.08C549.014 293.573 549.921 293.187 550.961 292.92C552.027 292.653 553.187 292.52 554.441 292.52C555.747 292.52 556.907 292.667 557.921 292.96C558.934 293.227 559.787 293.613 560.481 294.12C561.201 294.627 561.747 295.24 562.121 295.96C562.494 296.653 562.681 297.4 562.681 298.2C562.681 298.36 562.667 298.533 562.641 298.72C562.641 298.88 562.641 298.987 562.641 299.04H558.561V298.68C558.561 298.147 558.414 297.667 558.121 297.24C557.827 296.813 557.361 296.467 556.721 296.2C556.107 295.933 555.281 295.8 554.241 295.8C553.547 295.8 552.934 295.867 552.401 296C551.867 296.107 551.427 296.267 551.081 296.48C550.734 296.693 550.467 296.947 550.281 297.24C550.121 297.533 550.041 297.867 550.041 298.24C550.041 298.853 550.254 299.333 550.681 299.68C551.134 300 551.721 300.28 552.441 300.52C553.161 300.733 553.934 300.973 554.761 301.24C555.721 301.507 556.694 301.787 557.681 302.08C558.667 302.347 559.574 302.693 560.401 303.12C561.254 303.547 561.934 304.133 562.441 304.88C562.974 305.627 563.241 306.627 563.241 307.88C563.241 309.027 563.014 310.027 562.561 310.88C562.107 311.733 561.467 312.427 560.641 312.96C559.841 313.467 558.894 313.84 557.801 314.08C556.707 314.347 555.521 314.48 554.241 314.48ZM572.697 314.48C571.497 314.48 570.551 314.253 569.857 313.8C569.191 313.32 568.711 312.72 568.417 312C568.151 311.253 568.017 310.467 568.017 309.64V296.4H565.377V292.96H568.097L568.857 287.08H572.177V292.96H575.977V296.4H572.177V309.16C572.177 309.773 572.311 310.24 572.577 310.56C572.844 310.88 573.284 311.04 573.897 311.04H575.977V313.84C575.711 313.947 575.377 314.04 574.977 314.12C574.604 314.227 574.217 314.307 573.817 314.36C573.417 314.44 573.044 314.48 572.697 314.48ZM580.125 320.16V318.36C580.712 318.253 581.178 317.987 581.525 317.56C581.898 317.16 582.165 316.653 582.325 316.04C582.512 315.427 582.605 314.747 582.605 314H580.485V309.36H584.925V313.56C584.925 315.107 584.685 316.333 584.205 317.24C583.752 318.147 583.152 318.813 582.405 319.24C581.685 319.693 580.925 320 580.125 320.16ZM599.931 314V286.56H613.611C615.558 286.56 617.171 286.92 618.451 287.64C619.731 288.36 620.691 289.36 621.331 290.64C621.998 291.893 622.331 293.387 622.331 295.12C622.331 296.853 621.985 298.387 621.291 299.72C620.598 301.027 619.585 302.04 618.251 302.76C616.945 303.48 615.345 303.84 613.451 303.84H604.411V314H599.931ZM604.411 300H613.251C614.665 300 615.771 299.573 616.571 298.72C617.398 297.867 617.811 296.68 617.811 295.16C617.811 294.147 617.638 293.293 617.291 292.6C616.945 291.88 616.438 291.333 615.771 290.96C615.105 290.587 614.265 290.4 613.251 290.4H604.411V300ZM630.98 314.48C630.314 314.48 629.594 314.4 628.82 314.24C628.047 314.08 627.314 313.787 626.62 313.36C625.954 312.933 625.407 312.347 624.98 311.6C624.554 310.827 624.34 309.827 624.34 308.6C624.34 307.16 624.674 305.973 625.34 305.04C626.007 304.107 626.94 303.373 628.14 302.84C629.34 302.307 630.767 301.933 632.42 301.72C634.1 301.507 635.927 301.4 637.9 301.4V299.32C637.9 298.627 637.78 298.013 637.54 297.48C637.327 296.947 636.914 296.533 636.3 296.24C635.714 295.947 634.86 295.8 633.74 295.8C632.62 295.8 631.74 295.947 631.1 296.24C630.487 296.507 630.047 296.853 629.78 297.28C629.54 297.68 629.42 298.12 629.42 298.6V299.2H625.42C625.394 299.067 625.38 298.933 625.38 298.8C625.38 298.667 625.38 298.507 625.38 298.32C625.38 297.067 625.727 296.013 626.42 295.16C627.14 294.28 628.14 293.613 629.42 293.16C630.7 292.707 632.18 292.48 633.86 292.48C635.674 292.48 637.18 292.747 638.38 293.28C639.607 293.787 640.527 294.52 641.14 295.48C641.754 296.44 642.06 297.6 642.06 298.96V309.64C642.06 310.147 642.18 310.507 642.42 310.72C642.687 310.933 642.994 311.04 643.34 311.04H644.78V313.84C644.46 313.973 644.06 314.107 643.58 314.24C643.1 314.373 642.54 314.44 641.9 314.44C641.18 314.44 640.567 314.307 640.06 314.04C639.58 313.8 639.18 313.453 638.86 313C638.567 312.52 638.367 311.987 638.26 311.4H638.02C637.54 312.013 636.954 312.56 636.26 313.04C635.594 313.493 634.82 313.84 633.94 314.08C633.06 314.347 632.074 314.48 630.98 314.48ZM632.14 311.04C632.967 311.04 633.727 310.92 634.42 310.68C635.14 310.413 635.754 310.053 636.26 309.6C636.767 309.12 637.167 308.56 637.46 307.92C637.754 307.253 637.9 306.533 637.9 305.76V304.36C636.06 304.36 634.447 304.467 633.06 304.68C631.674 304.893 630.594 305.293 629.82 305.88C629.047 306.44 628.66 307.227 628.66 308.24C628.66 308.853 628.794 309.373 629.06 309.8C629.327 310.2 629.727 310.507 630.26 310.72C630.794 310.933 631.42 311.04 632.14 311.04ZM647.653 314V285.08H651.813V314H647.653ZM658.824 306.6L657.704 286.56H662.584L661.464 306.6H658.824ZM657.904 314V309.36H662.384V314H657.904ZM100.249 391V370.42H103.609V388.09H113.869V391H100.249ZM122.922 391.36C121.302 391.36 119.942 391.07 118.842 390.49C117.762 389.89 116.942 388.98 116.382 387.76C115.822 386.54 115.542 384.99 115.542 383.11C115.542 381.21 115.822 379.66 116.382 378.46C116.942 377.24 117.772 376.34 118.872 375.76C119.972 375.16 121.342 374.86 122.982 374.86C124.482 374.86 125.732 375.15 126.732 375.73C127.752 376.29 128.522 377.15 129.042 378.31C129.562 379.47 129.822 380.93 129.822 382.69V383.89H118.752C118.792 385.01 118.962 385.95 119.262 386.71C119.562 387.45 120.012 388 120.612 388.36C121.232 388.7 122.012 388.87 122.952 388.87C123.532 388.87 124.052 388.8 124.512 388.66C124.972 388.5 125.362 388.28 125.682 388C126.002 387.7 126.252 387.35 126.432 386.95C126.612 386.53 126.702 386.06 126.702 385.54H129.762C129.762 386.48 129.602 387.31 129.282 388.03C128.962 388.75 128.492 389.36 127.872 389.86C127.272 390.34 126.552 390.71 125.712 390.97C124.872 391.23 123.942 391.36 122.922 391.36ZM118.812 381.61H126.552C126.552 380.83 126.462 380.18 126.282 379.66C126.122 379.12 125.882 378.68 125.562 378.34C125.242 378 124.862 377.76 124.422 377.62C123.982 377.46 123.482 377.38 122.922 377.38C122.082 377.38 121.362 377.53 120.762 377.83C120.182 378.13 119.732 378.6 119.412 379.24C119.092 379.86 118.892 380.65 118.812 381.61ZM136.923 391.36C136.023 391.36 135.313 391.19 134.793 390.85C134.293 390.49 133.933 390.04 133.713 389.5C133.513 388.94 133.413 388.35 133.413 387.73V377.8H131.433V375.22H133.473L134.043 370.81H136.533V375.22H139.383V377.8H136.533V387.37C136.533 387.83 136.633 388.18 136.833 388.42C137.033 388.66 137.363 388.78 137.823 388.78H139.383V390.88C139.183 390.96 138.933 391.03 138.633 391.09C138.353 391.17 138.063 391.23 137.763 391.27C137.463 391.33 137.183 391.36 136.923 391.36ZM142.134 378.52V377.14C142.574 377.06 142.934 376.87 143.214 376.57C143.494 376.25 143.694 375.86 143.814 375.4C143.934 374.94 143.994 374.44 143.994 373.9H142.404V370.42H145.764V373.57C145.764 374.71 145.584 375.63 145.224 376.33C144.864 377.01 144.404 377.52 143.844 377.86C143.304 378.18 142.734 378.4 142.134 378.52ZM153.901 391.36C152.801 391.36 151.831 391.24 150.991 391C150.151 390.76 149.451 390.43 148.891 390.01C148.331 389.59 147.901 389.09 147.601 388.51C147.321 387.91 147.181 387.25 147.181 386.53C147.181 386.43 147.181 386.34 147.181 386.26C147.201 386.18 147.211 386.11 147.211 386.05H150.301C150.301 386.11 150.301 386.17 150.301 386.23C150.301 386.27 150.301 386.32 150.301 386.38C150.301 387 150.471 387.5 150.811 387.88C151.151 388.24 151.601 388.5 152.161 388.66C152.741 388.8 153.371 388.87 154.051 388.87C154.651 388.87 155.201 388.8 155.701 388.66C156.221 388.5 156.641 388.27 156.961 387.97C157.301 387.67 157.471 387.29 157.471 386.83C157.471 386.23 157.261 385.77 156.841 385.45C156.421 385.13 155.871 384.88 155.191 384.7C154.511 384.5 153.801 384.29 153.061 384.07C152.401 383.89 151.741 383.7 151.081 383.5C150.441 383.28 149.861 383 149.341 382.66C148.821 382.32 148.401 381.89 148.081 381.37C147.761 380.85 147.601 380.2 147.601 379.42C147.601 378.68 147.761 378.03 148.081 377.47C148.401 376.91 148.841 376.44 149.401 376.06C149.981 375.68 150.661 375.39 151.441 375.19C152.241 374.99 153.111 374.89 154.051 374.89C155.031 374.89 155.901 375 156.661 375.22C157.421 375.42 158.061 375.71 158.581 376.09C159.121 376.47 159.531 376.93 159.811 377.47C160.091 377.99 160.231 378.55 160.231 379.15C160.231 379.27 160.221 379.4 160.201 379.54C160.201 379.66 160.201 379.74 160.201 379.78H157.141V379.51C157.141 379.11 157.031 378.75 156.811 378.43C156.591 378.11 156.241 377.85 155.761 377.65C155.301 377.45 154.681 377.35 153.901 377.35C153.381 377.35 152.921 377.4 152.521 377.5C152.121 377.58 151.791 377.7 151.531 377.86C151.271 378.02 151.071 378.21 150.931 378.43C150.811 378.65 150.751 378.9 150.751 379.18C150.751 379.64 150.911 380 151.231 380.26C151.571 380.5 152.011 380.71 152.551 380.89C153.091 381.05 153.671 381.23 154.291 381.43C155.011 381.63 155.741 381.84 156.481 382.06C157.221 382.26 157.901 382.52 158.521 382.84C159.161 383.16 159.671 383.6 160.051 384.16C160.451 384.72 160.651 385.47 160.651 386.41C160.651 387.27 160.481 388.02 160.141 388.66C159.801 389.3 159.321 389.82 158.701 390.22C158.101 390.6 157.391 390.88 156.571 391.06C155.751 391.26 154.861 391.36 153.901 391.36ZM175.426 391V373.3H168.616V370.42H185.656V373.3H178.786V391H175.426ZM189.923 391.36C189.423 391.36 188.883 391.3 188.303 391.18C187.723 391.06 187.173 390.84 186.653 390.52C186.153 390.2 185.743 389.76 185.423 389.2C185.103 388.62 184.943 387.87 184.943 386.95C184.943 385.87 185.193 384.98 185.693 384.28C186.193 383.58 186.893 383.03 187.793 382.63C188.693 382.23 189.763 381.95 191.003 381.79C192.263 381.63 193.633 381.55 195.113 381.55V379.99C195.113 379.47 195.023 379.01 194.843 378.61C194.683 378.21 194.373 377.9 193.913 377.68C193.473 377.46 192.833 377.35 191.993 377.35C191.153 377.35 190.493 377.46 190.013 377.68C189.553 377.88 189.223 378.14 189.023 378.46C188.843 378.76 188.753 379.09 188.753 379.45V379.9H185.753C185.733 379.8 185.723 379.7 185.723 379.6C185.723 379.5 185.723 379.38 185.723 379.24C185.723 378.3 185.983 377.51 186.503 376.87C187.043 376.21 187.793 375.71 188.753 375.37C189.713 375.03 190.823 374.86 192.083 374.86C193.443 374.86 194.573 375.06 195.473 375.46C196.393 375.84 197.083 376.39 197.543 377.11C198.003 377.83 198.233 378.7 198.233 379.72V387.73C198.233 388.11 198.323 388.38 198.503 388.54C198.703 388.7 198.933 388.78 199.193 388.78H200.273V390.88C200.033 390.98 199.733 391.08 199.373 391.18C199.013 391.28 198.593 391.33 198.113 391.33C197.573 391.33 197.113 391.23 196.733 391.03C196.373 390.85 196.073 390.59 195.833 390.25C195.613 389.89 195.463 389.49 195.383 389.05H195.203C194.843 389.51 194.403 389.92 193.883 390.28C193.383 390.62 192.803 390.88 192.143 391.06C191.483 391.26 190.743 391.36 189.923 391.36ZM190.793 388.78C191.413 388.78 191.983 388.69 192.503 388.51C193.043 388.31 193.503 388.04 193.883 387.7C194.263 387.34 194.563 386.92 194.783 386.44C195.003 385.94 195.113 385.4 195.113 384.82V383.77C193.733 383.77 192.523 383.85 191.483 384.01C190.443 384.17 189.633 384.47 189.053 384.91C188.473 385.33 188.183 385.92 188.183 386.68C188.183 387.14 188.283 387.53 188.483 387.85C188.683 388.15 188.983 388.38 189.383 388.54C189.783 388.7 190.253 388.78 190.793 388.78ZM202.427 391V369.31H205.547V382.42L211.757 375.22H215.447L210.107 381.34L215.747 391H212.147L208.097 383.62L205.547 386.14V391H202.427ZM223.791 391.36C222.171 391.36 220.811 391.07 219.711 390.49C218.631 389.89 217.811 388.98 217.251 387.76C216.691 386.54 216.411 384.99 216.411 383.11C216.411 381.21 216.691 379.66 217.251 378.46C217.811 377.24 218.641 376.34 219.741 375.76C220.841 375.16 222.211 374.86 223.851 374.86C225.351 374.86 226.601 375.15 227.601 375.73C228.621 376.29 229.391 377.15 229.911 378.31C230.431 379.47 230.691 380.93 230.691 382.69V383.89H219.621C219.661 385.01 219.831 385.95 220.131 386.71C220.431 387.45 220.881 388 221.481 388.36C222.101 388.7 222.881 388.87 223.821 388.87C224.401 388.87 224.921 388.8 225.381 388.66C225.841 388.5 226.231 388.28 226.551 388C226.871 387.7 227.121 387.35 227.301 386.95C227.481 386.53 227.571 386.06 227.571 385.54H230.631C230.631 386.48 230.471 387.31 230.151 388.03C229.831 388.75 229.361 389.36 228.741 389.86C228.141 390.34 227.421 390.71 226.581 390.97C225.741 391.23 224.811 391.36 223.791 391.36ZM219.681 381.61H227.421C227.421 380.83 227.331 380.18 227.151 379.66C226.991 379.12 226.751 378.68 226.431 378.34C226.111 378 225.731 377.76 225.291 377.62C224.851 377.46 224.351 377.38 223.791 377.38C222.951 377.38 222.231 377.53 221.631 377.83C221.051 378.13 220.601 378.6 220.281 379.24C219.961 379.86 219.761 380.65 219.681 381.61ZM244.879 391V382.54L236.869 370.42H240.709L246.589 379.54H246.739L252.559 370.42H256.249L248.239 382.54V391H244.879ZM262.35 391.36C260.71 391.36 259.32 391.07 258.18 390.49C257.06 389.89 256.21 388.98 255.63 387.76C255.07 386.54 254.79 384.99 254.79 383.11C254.79 381.21 255.07 379.66 255.63 378.46C256.21 377.24 257.06 376.34 258.18 375.76C259.32 375.16 260.71 374.86 262.35 374.86C264.03 374.86 265.43 375.16 266.55 375.76C267.67 376.34 268.51 377.24 269.07 378.46C269.65 379.66 269.94 381.21 269.94 383.11C269.94 384.99 269.65 386.54 269.07 387.76C268.51 388.98 267.67 389.89 266.55 390.49C265.43 391.07 264.03 391.36 262.35 391.36ZM262.35 388.78C263.35 388.78 264.17 388.59 264.81 388.21C265.45 387.81 265.92 387.21 266.22 386.41C266.54 385.61 266.7 384.6 266.7 383.38V382.84C266.7 381.62 266.54 380.61 266.22 379.81C265.92 379.01 265.45 378.42 264.81 378.04C264.17 377.64 263.35 377.44 262.35 377.44C261.37 377.44 260.56 377.64 259.92 378.04C259.28 378.42 258.8 379.01 258.48 379.81C258.18 380.61 258.03 381.62 258.03 382.84V383.38C258.03 384.6 258.18 385.61 258.48 386.41C258.8 387.21 259.28 387.81 259.92 388.21C260.56 388.59 261.37 388.78 262.35 388.78ZM278.07 391.36C276.55 391.36 275.32 390.96 274.38 390.16C273.44 389.34 272.97 387.95 272.97 385.99V375.22H276.09V385.51C276.09 386.11 276.16 386.61 276.3 387.01C276.46 387.41 276.68 387.73 276.96 387.97C277.24 388.21 277.57 388.38 277.95 388.48C278.33 388.58 278.75 388.63 279.21 388.63C279.93 388.63 280.58 388.46 281.16 388.12C281.76 387.76 282.24 387.27 282.6 386.65C282.96 386.01 283.14 385.28 283.14 384.46V375.22H286.26V391H283.71L283.44 388.75H283.23C282.85 389.33 282.4 389.81 281.88 390.19C281.36 390.57 280.78 390.86 280.14 391.06C279.52 391.26 278.83 391.36 278.07 391.36ZM296.861 391V370.42H307.781C308.921 370.42 309.921 370.63 310.781 371.05C311.641 371.45 312.311 372.03 312.791 372.79C313.291 373.55 313.541 374.44 313.541 375.46C313.541 376.24 313.391 376.95 313.091 377.59C312.811 378.23 312.411 378.77 311.891 379.21C311.391 379.65 310.821 379.98 310.181 380.2V380.32C310.921 380.48 311.581 380.78 312.161 381.22C312.761 381.64 313.231 382.2 313.571 382.9C313.931 383.58 314.111 384.4 314.111 385.36C314.111 386.66 313.821 387.73 313.241 388.57C312.681 389.41 311.931 390.03 310.991 390.43C310.051 390.81 308.981 391 307.781 391H296.861ZM300.221 388.12H307.511C308.431 388.12 309.181 387.88 309.761 387.4C310.361 386.9 310.661 386.1 310.661 385C310.661 384.34 310.531 383.78 310.271 383.32C310.031 382.84 309.661 382.48 309.161 382.24C308.661 381.98 308.031 381.85 307.271 381.85H300.221V388.12ZM300.221 379.03H307.001C307.641 379.03 308.191 378.91 308.651 378.67C309.111 378.43 309.461 378.09 309.701 377.65C309.961 377.21 310.091 376.72 310.091 376.18C310.091 375.2 309.821 374.48 309.281 374.02C308.761 373.54 308.071 373.3 307.211 373.3H300.221V379.03ZM321.495 391.36C320.995 391.36 320.455 391.3 319.875 391.18C319.295 391.06 318.745 390.84 318.225 390.52C317.725 390.2 317.315 389.76 316.995 389.2C316.675 388.62 316.515 387.87 316.515 386.95C316.515 385.87 316.765 384.98 317.265 384.28C317.765 383.58 318.465 383.03 319.365 382.63C320.265 382.23 321.335 381.95 322.575 381.79C323.835 381.63 325.205 381.55 326.685 381.55V379.99C326.685 379.47 326.595 379.01 326.415 378.61C326.255 378.21 325.945 377.9 325.485 377.68C325.045 377.46 324.405 377.35 323.565 377.35C322.725 377.35 322.065 377.46 321.585 377.68C321.125 377.88 320.795 378.14 320.595 378.46C320.415 378.76 320.325 379.09 320.325 379.45V379.9H317.325C317.305 379.8 317.295 379.7 317.295 379.6C317.295 379.5 317.295 379.38 317.295 379.24C317.295 378.3 317.555 377.51 318.075 376.87C318.615 376.21 319.365 375.71 320.325 375.37C321.285 375.03 322.395 374.86 323.655 374.86C325.015 374.86 326.145 375.06 327.045 375.46C327.965 375.84 328.655 376.39 329.115 377.11C329.575 377.83 329.805 378.7 329.805 379.72V387.73C329.805 388.11 329.895 388.38 330.075 388.54C330.275 388.7 330.505 388.78 330.765 388.78H331.845V390.88C331.605 390.98 331.305 391.08 330.945 391.18C330.585 391.28 330.165 391.33 329.685 391.33C329.145 391.33 328.685 391.23 328.305 391.03C327.945 390.85 327.645 390.59 327.405 390.25C327.185 389.89 327.035 389.49 326.955 389.05H326.775C326.415 389.51 325.975 389.92 325.455 390.28C324.955 390.62 324.375 390.88 323.715 391.06C323.055 391.26 322.315 391.36 321.495 391.36ZM322.365 388.78C322.985 388.78 323.555 388.69 324.075 388.51C324.615 388.31 325.075 388.04 325.455 387.7C325.835 387.34 326.135 386.92 326.355 386.44C326.575 385.94 326.685 385.4 326.685 384.82V383.77C325.305 383.77 324.095 383.85 323.055 384.01C322.015 384.17 321.205 384.47 320.625 384.91C320.045 385.33 319.755 385.92 319.755 386.68C319.755 387.14 319.855 387.53 320.055 387.85C320.255 388.15 320.555 388.38 320.955 388.54C321.355 388.7 321.825 388.78 322.365 388.78ZM340.269 391.36C338.689 391.36 337.369 391.07 336.309 390.49C335.249 389.89 334.449 388.98 333.909 387.76C333.389 386.54 333.129 384.99 333.129 383.11C333.129 381.23 333.399 379.69 333.939 378.49C334.479 377.27 335.279 376.36 336.339 375.76C337.419 375.16 338.739 374.86 340.299 374.86C341.379 374.86 342.319 375 343.119 375.28C343.919 375.54 344.599 375.94 345.159 376.48C345.719 377 346.129 377.65 346.389 378.43C346.669 379.21 346.809 380.1 346.809 381.1H343.659C343.659 380.26 343.539 379.57 343.299 379.03C343.059 378.49 342.689 378.09 342.189 377.83C341.689 377.55 341.039 377.41 340.239 377.41C339.399 377.41 338.689 377.61 338.109 378.01C337.529 378.39 337.089 378.98 336.789 379.78C336.489 380.56 336.339 381.59 336.339 382.87V383.38C336.339 384.6 336.479 385.62 336.759 386.44C337.059 387.24 337.499 387.84 338.079 388.24C338.679 388.62 339.439 388.81 340.359 388.81C341.159 388.81 341.799 388.67 342.279 388.39C342.779 388.09 343.149 387.67 343.389 387.13C343.649 386.57 343.779 385.9 343.779 385.12H346.809C346.809 386.06 346.669 386.91 346.389 387.67C346.129 388.43 345.719 389.09 345.159 389.65C344.619 390.19 343.939 390.61 343.119 390.91C342.299 391.21 341.349 391.36 340.269 391.36ZM349.966 391V369.31H353.086V382.42L359.296 375.22H362.986L357.646 381.34L363.286 391H359.686L355.636 383.62L353.086 386.14V391H349.966ZM376.461 391V373.3H369.651V370.42H386.691V373.3H379.821V391H376.461ZM393.688 391.36C392.048 391.36 390.658 391.07 389.518 390.49C388.398 389.89 387.548 388.98 386.968 387.76C386.408 386.54 386.128 384.99 386.128 383.11C386.128 381.21 386.408 379.66 386.968 378.46C387.548 377.24 388.398 376.34 389.518 375.76C390.658 375.16 392.048 374.86 393.688 374.86C395.368 374.86 396.768 375.16 397.888 375.76C399.008 376.34 399.848 377.24 400.408 378.46C400.988 379.66 401.278 381.21 401.278 383.11C401.278 384.99 400.988 386.54 400.408 387.76C399.848 388.98 399.008 389.89 397.888 390.49C396.768 391.07 395.368 391.36 393.688 391.36ZM393.688 388.78C394.688 388.78 395.508 388.59 396.148 388.21C396.788 387.81 397.258 387.21 397.558 386.41C397.878 385.61 398.038 384.6 398.038 383.38V382.84C398.038 381.62 397.878 380.61 397.558 379.81C397.258 379.01 396.788 378.42 396.148 378.04C395.508 377.64 394.688 377.44 393.688 377.44C392.708 377.44 391.898 377.64 391.258 378.04C390.618 378.42 390.138 379.01 389.818 379.81C389.518 380.61 389.368 381.62 389.368 382.84V383.38C389.368 384.6 389.518 385.61 389.818 386.41C390.138 387.21 390.618 387.81 391.258 388.21C391.898 388.59 392.708 388.78 393.688 388.78ZM416.071 391V373.3H409.261V370.42H426.301V373.3H419.431V391H416.071ZM428.98 391V369.31H432.1V377.11H432.31C432.69 376.63 433.12 376.23 433.6 375.91C434.08 375.57 434.62 375.31 435.22 375.13C435.82 374.95 436.48 374.86 437.2 374.86C438.2 374.86 439.08 375.04 439.84 375.4C440.6 375.74 441.19 376.3 441.61 377.08C442.05 377.86 442.27 378.91 442.27 380.23V391H439.15V380.71C439.15 380.11 439.07 379.61 438.91 379.21C438.77 378.81 438.56 378.49 438.28 378.25C438 378.01 437.67 377.84 437.29 377.74C436.91 377.64 436.49 377.59 436.03 377.59C435.31 377.59 434.65 377.76 434.05 378.1C433.47 378.44 433 378.92 432.64 379.54C432.28 380.16 432.1 380.9 432.1 381.76V391H428.98ZM452.717 391.36C451.097 391.36 449.737 391.07 448.637 390.49C447.557 389.89 446.737 388.98 446.177 387.76C445.617 386.54 445.337 384.99 445.337 383.11C445.337 381.21 445.617 379.66 446.177 378.46C446.737 377.24 447.567 376.34 448.667 375.76C449.767 375.16 451.137 374.86 452.777 374.86C454.277 374.86 455.527 375.15 456.527 375.73C457.547 376.29 458.317 377.15 458.837 378.31C459.357 379.47 459.617 380.93 459.617 382.69V383.89H448.547C448.587 385.01 448.757 385.95 449.057 386.71C449.357 387.45 449.807 388 450.407 388.36C451.027 388.7 451.807 388.87 452.747 388.87C453.327 388.87 453.847 388.8 454.307 388.66C454.767 388.5 455.157 388.28 455.477 388C455.797 387.7 456.047 387.35 456.227 386.95C456.407 386.53 456.497 386.06 456.497 385.54H459.557C459.557 386.48 459.397 387.31 459.077 388.03C458.757 388.75 458.287 389.36 457.667 389.86C457.067 390.34 456.347 390.71 455.507 390.97C454.667 391.23 453.737 391.36 452.717 391.36ZM448.607 381.61H456.347C456.347 380.83 456.257 380.18 456.077 379.66C455.917 379.12 455.677 378.68 455.357 378.34C455.037 378 454.657 377.76 454.217 377.62C453.777 377.46 453.277 377.38 452.717 377.38C451.877 377.38 451.157 377.53 450.557 377.83C449.977 378.13 449.527 378.6 449.207 379.24C448.887 379.86 448.687 380.65 448.607 381.61ZM478.691 391.36C476.571 391.36 474.731 390.97 473.171 390.19C471.631 389.41 470.441 388.23 469.601 386.65C468.781 385.07 468.371 383.09 468.371 380.71C468.371 378.31 468.781 376.33 469.601 374.77C470.441 373.19 471.631 372.01 473.171 371.23C474.731 370.45 476.571 370.06 478.691 370.06C480.851 370.06 482.701 370.45 484.241 371.23C485.781 372.01 486.961 373.19 487.781 374.77C488.621 376.33 489.041 378.31 489.041 380.71C489.041 383.09 488.621 385.07 487.781 386.65C486.961 388.23 485.781 389.41 484.241 390.19C482.701 390.97 480.851 391.36 478.691 391.36ZM478.691 388.51C479.791 388.51 480.761 388.36 481.601 388.06C482.461 387.76 483.181 387.3 483.761 386.68C484.361 386.06 484.811 385.28 485.111 384.34C485.431 383.4 485.591 382.31 485.591 381.07V380.41C485.591 379.13 485.431 378.02 485.111 377.08C484.811 376.14 484.361 375.36 483.761 374.74C483.181 374.12 482.461 373.66 481.601 373.36C480.761 373.06 479.791 372.91 478.691 372.91C477.611 372.91 476.641 373.06 475.781 373.36C474.941 373.66 474.221 374.12 473.621 374.74C473.041 375.36 472.601 376.14 472.301 377.08C472.001 378.02 471.851 379.13 471.851 380.41V381.07C471.851 382.31 472.001 383.4 472.301 384.34C472.601 385.28 473.041 386.06 473.621 386.68C474.221 387.3 474.941 387.76 475.781 388.06C476.641 388.36 477.611 388.51 478.691 388.51ZM496.425 391.36C495.525 391.36 494.815 391.19 494.295 390.85C493.795 390.49 493.435 390.04 493.215 389.5C493.015 388.94 492.915 388.35 492.915 387.73V377.8H490.935V375.22H492.975L493.545 370.81H496.035V375.22H498.885V377.8H496.035V387.37C496.035 387.83 496.135 388.18 496.335 388.42C496.535 388.66 496.865 388.78 497.325 388.78H498.885V390.88C498.685 390.96 498.435 391.03 498.135 391.09C497.855 391.17 497.565 391.23 497.265 391.27C496.965 391.33 496.685 391.36 496.425 391.36ZM501.636 391V369.31H504.756V377.11H504.966C505.346 376.63 505.776 376.23 506.256 375.91C506.736 375.57 507.276 375.31 507.876 375.13C508.476 374.95 509.136 374.86 509.856 374.86C510.856 374.86 511.736 375.04 512.496 375.4C513.256 375.74 513.846 376.3 514.266 377.08C514.706 377.86 514.926 378.91 514.926 380.23V391H511.806V380.71C511.806 380.11 511.726 379.61 511.566 379.21C511.426 378.81 511.216 378.49 510.936 378.25C510.656 378.01 510.326 377.84 509.946 377.74C509.566 377.64 509.146 377.59 508.686 377.59C507.966 377.59 507.306 377.76 506.706 378.1C506.126 378.44 505.656 378.92 505.296 379.54C504.936 380.16 504.756 380.9 504.756 381.76V391H501.636ZM525.373 391.36C523.753 391.36 522.393 391.07 521.293 390.49C520.213 389.89 519.393 388.98 518.833 387.76C518.273 386.54 517.993 384.99 517.993 383.11C517.993 381.21 518.273 379.66 518.833 378.46C519.393 377.24 520.223 376.34 521.323 375.76C522.423 375.16 523.793 374.86 525.433 374.86C526.933 374.86 528.183 375.15 529.183 375.73C530.203 376.29 530.973 377.15 531.493 378.31C532.013 379.47 532.273 380.93 532.273 382.69V383.89H521.203C521.243 385.01 521.413 385.95 521.713 386.71C522.013 387.45 522.463 388 523.063 388.36C523.683 388.7 524.463 388.87 525.403 388.87C525.983 388.87 526.503 388.8 526.963 388.66C527.423 388.5 527.813 388.28 528.133 388C528.453 387.7 528.703 387.35 528.883 386.95C529.063 386.53 529.153 386.06 529.153 385.54H532.213C532.213 386.48 532.053 387.31 531.733 388.03C531.413 388.75 530.943 389.36 530.323 389.86C529.723 390.34 529.003 390.71 528.163 390.97C527.323 391.23 526.393 391.36 525.373 391.36ZM521.263 381.61H529.003C529.003 380.83 528.913 380.18 528.733 379.66C528.573 379.12 528.333 378.68 528.013 378.34C527.693 378 527.313 377.76 526.873 377.62C526.433 377.46 525.933 377.38 525.373 377.38C524.533 377.38 523.813 377.53 523.213 377.83C522.633 378.13 522.183 378.6 521.863 379.24C521.543 379.86 521.343 380.65 521.263 381.61ZM535.445 391V375.22H538.025L538.295 377.77H538.475C538.655 377.27 538.885 376.8 539.165 376.36C539.465 375.92 539.845 375.56 540.305 375.28C540.785 375 541.365 374.86 542.045 374.86C542.365 374.86 542.645 374.89 542.885 374.95C543.145 375.01 543.345 375.06 543.485 375.1V378.04H542.435C541.795 378.04 541.225 378.14 540.725 378.34C540.245 378.54 539.835 378.84 539.495 379.24C539.175 379.62 538.935 380.09 538.775 380.65C538.635 381.21 538.565 381.84 538.565 382.54V391H535.445ZM551.636 391.36C550.536 391.36 549.566 391.24 548.726 391C547.886 390.76 547.186 390.43 546.626 390.01C546.066 389.59 545.636 389.09 545.336 388.51C545.056 387.91 544.916 387.25 544.916 386.53C544.916 386.43 544.916 386.34 544.916 386.26C544.936 386.18 544.946 386.11 544.946 386.05H548.036C548.036 386.11 548.036 386.17 548.036 386.23C548.036 386.27 548.036 386.32 548.036 386.38C548.036 387 548.206 387.5 548.546 387.88C548.886 388.24 549.336 388.5 549.896 388.66C550.476 388.8 551.106 388.87 551.786 388.87C552.386 388.87 552.936 388.8 553.436 388.66C553.956 388.5 554.376 388.27 554.696 387.97C555.036 387.67 555.206 387.29 555.206 386.83C555.206 386.23 554.996 385.77 554.576 385.45C554.156 385.13 553.606 384.88 552.926 384.7C552.246 384.5 551.536 384.29 550.796 384.07C550.136 383.89 549.476 383.7 548.816 383.5C548.176 383.28 547.596 383 547.076 382.66C546.556 382.32 546.136 381.89 545.816 381.37C545.496 380.85 545.336 380.2 545.336 379.42C545.336 378.68 545.496 378.03 545.816 377.47C546.136 376.91 546.576 376.44 547.136 376.06C547.716 375.68 548.396 375.39 549.176 375.19C549.976 374.99 550.846 374.89 551.786 374.89C552.766 374.89 553.636 375 554.396 375.22C555.156 375.42 555.796 375.71 556.316 376.09C556.856 376.47 557.266 376.93 557.546 377.47C557.826 377.99 557.966 378.55 557.966 379.15C557.966 379.27 557.956 379.4 557.936 379.54C557.936 379.66 557.936 379.74 557.936 379.78H554.876V379.51C554.876 379.11 554.766 378.75 554.546 378.43C554.326 378.11 553.976 377.85 553.496 377.65C553.036 377.45 552.416 377.35 551.636 377.35C551.116 377.35 550.656 377.4 550.256 377.5C549.856 377.58 549.526 377.7 549.266 377.86C549.006 378.02 548.806 378.21 548.666 378.43C548.546 378.65 548.486 378.9 548.486 379.18C548.486 379.64 548.646 380 548.966 380.26C549.306 380.5 549.746 380.71 550.286 380.89C550.826 381.05 551.406 381.23 552.026 381.43C552.746 381.63 553.476 381.84 554.216 382.06C554.956 382.26 555.636 382.52 556.256 382.84C556.896 383.16 557.406 383.6 557.786 384.16C558.186 384.72 558.386 385.47 558.386 386.41C558.386 387.27 558.216 388.02 557.876 388.66C557.536 389.3 557.056 389.82 556.436 390.22C555.836 390.6 555.126 390.88 554.306 391.06C553.486 391.26 552.596 391.36 551.636 391.36ZM562.178 391V387.52H565.508V391H562.178Z" fill="#370F8C"/>
</svg>
