<svg width="826" height="398" viewBox="0 0 826 398" fill="none" xmlns="http://www.w3.org/2000/svg">
<path d="M288.208 214V174.716H212.324V153.732C218.993 142.345 225.093 130.877 230.624 119.328C236.155 107.779 241.197 95.7413 245.752 83.216C250.307 70.528 254.129 57.352 257.22 43.688H283.816C281.701 52.472 279.017 61.5 275.764 70.772C272.673 79.8813 269.176 88.828 265.272 97.612C261.531 106.396 257.789 114.529 254.048 122.012C250.307 129.495 246.809 136.001 243.556 141.532C240.303 147.063 237.7 151.129 235.748 153.732H288.208V105.664C289.347 102.899 290.485 99.9707 291.624 96.88C292.925 93.6267 294.145 90.3733 295.284 87.12C296.423 83.704 297.48 80.4507 298.456 77.36C299.432 74.2693 300.327 71.3413 301.14 68.576H313.584V153.732H335.056V174.716H313.584V214H288.208Z" fill="#370F8C"/>
<path d="M355.407 214V206.436C355.407 199.441 356.708 193.016 359.311 187.16C362.076 181.141 365.655 175.692 370.047 170.812C374.602 165.932 379.644 161.296 385.175 156.904C390.706 152.512 396.318 148.283 402.011 144.216C409.494 138.848 416.407 133.48 422.751 128.112C429.095 122.744 434.219 116.969 438.123 110.788C442.19 104.607 444.223 97.6933 444.223 90.048C444.223 85.656 443.166 81.5893 441.051 77.848C439.099 74.1067 436.008 71.0973 431.779 68.82C427.55 66.38 422.019 65.16 415.187 65.16C407.704 65.16 401.604 66.4613 396.887 69.064C392.332 71.504 388.916 74.92 386.639 79.312C384.524 83.5413 383.467 88.5027 383.467 94.196V104.2H358.091C357.928 103.387 357.766 102.167 357.603 100.54C357.44 98.9133 357.359 96.88 357.359 94.44C357.359 82.4027 360.043 72.724 365.411 65.404C370.942 57.9213 378.18 52.472 387.127 49.056C396.236 45.4773 405.996 43.688 416.407 43.688C426.492 43.688 434.951 45.152 441.783 48.08C448.778 50.8453 454.308 54.5867 458.375 59.304C462.604 64.0213 465.614 69.2267 467.403 74.92C469.355 80.6133 470.331 86.144 470.331 91.512C470.331 99.32 468.948 106.396 466.183 112.74C463.58 119.084 459.839 125.021 454.959 130.552C450.242 136.083 444.63 141.451 438.123 146.656C431.779 151.699 424.947 156.741 417.627 161.784C413.072 164.875 408.599 168.047 404.207 171.3C399.978 174.553 396.236 177.888 392.983 181.304C389.73 184.557 387.534 187.729 386.395 190.82H471.307V214H355.407ZM494.802 214V206.436C494.802 199.441 496.103 193.016 498.706 187.16C501.471 181.141 505.05 175.692 509.442 170.812C513.996 165.932 519.039 161.296 524.57 156.904C530.1 152.512 535.712 148.283 541.406 144.216C548.888 138.848 555.802 133.48 562.146 128.112C568.49 122.744 573.614 116.969 577.518 110.788C581.584 104.607 583.618 97.6933 583.618 90.048C583.618 85.656 582.56 81.5893 580.446 77.848C578.494 74.1067 575.403 71.0973 571.174 68.82C566.944 66.38 561.414 65.16 554.582 65.16C547.099 65.16 540.999 66.4613 536.282 69.064C531.727 71.504 528.311 74.92 526.034 79.312C523.919 83.5413 522.862 88.5027 522.862 94.196V104.2H497.486C497.323 103.387 497.16 102.167 496.998 100.54C496.835 98.9133 496.754 96.88 496.754 94.44C496.754 82.4027 499.438 72.724 504.806 65.404C510.336 57.9213 517.575 52.472 526.522 49.056C535.631 45.4773 545.391 43.688 555.802 43.688C565.887 43.688 574.346 45.152 581.178 48.08C588.172 50.8453 593.703 54.5867 597.77 59.304C601.999 64.0213 605.008 69.2267 606.798 74.92C608.75 80.6133 609.726 86.144 609.726 91.512C609.726 99.32 608.343 106.396 605.578 112.74C602.975 119.084 599.234 125.021 594.354 130.552C589.636 136.083 584.024 141.451 577.518 146.656C571.174 151.699 564.342 156.741 557.022 161.784C552.467 164.875 547.994 168.047 543.602 171.3C539.372 174.553 535.631 177.888 532.378 181.304C529.124 184.557 526.928 187.729 525.79 190.82H610.702V214H494.802Z" fill="#20C997"/>
<path d="M3.48609 314V286.56H14.0861C16.9128 286.56 19.3261 287.053 21.3261 288.04C23.3261 289 24.8594 290.493 25.9261 292.52C27.0194 294.52 27.5661 297.107 27.5661 300.28C27.5661 303.427 27.0194 306.013 25.9261 308.04C24.8594 310.067 23.3261 311.573 21.3261 312.56C19.3261 313.52 16.9128 314 14.0861 314H3.48609ZM7.96609 310.16H14.0461C15.4594 310.16 16.7128 309.973 17.8061 309.6C18.9261 309.227 19.8594 308.653 20.6061 307.88C21.3794 307.107 21.9528 306.133 22.3261 304.96C22.7261 303.76 22.9261 302.347 22.9261 300.72V299.88C22.9261 298.227 22.7261 296.813 22.3261 295.64C21.9528 294.44 21.3794 293.453 20.6061 292.68C19.8594 291.907 18.9261 291.333 17.8061 290.96C16.7128 290.587 15.4594 290.4 14.0461 290.4H7.96609V310.16ZM37.5039 314.48C36.8372 314.48 36.1172 314.4 35.3439 314.24C34.5706 314.08 33.8372 313.787 33.1439 313.36C32.4772 312.933 31.9306 312.347 31.5039 311.6C31.0772 310.827 30.8639 309.827 30.8639 308.6C30.8639 307.16 31.1972 305.973 31.8639 305.04C32.5306 304.107 33.4639 303.373 34.6639 302.84C35.8639 302.307 37.2906 301.933 38.9439 301.72C40.6239 301.507 42.4506 301.4 44.4239 301.4V299.32C44.4239 298.627 44.3039 298.013 44.0639 297.48C43.8506 296.947 43.4372 296.533 42.8239 296.24C42.2372 295.947 41.3839 295.8 40.2639 295.8C39.1439 295.8 38.2639 295.947 37.6239 296.24C37.0106 296.507 36.5706 296.853 36.3039 297.28C36.0639 297.68 35.9439 298.12 35.9439 298.6V299.2H31.9439C31.9172 299.067 31.9039 298.933 31.9039 298.8C31.9039 298.667 31.9039 298.507 31.9039 298.32C31.9039 297.067 32.2506 296.013 32.9439 295.16C33.6639 294.28 34.6639 293.613 35.9439 293.16C37.2239 292.707 38.7039 292.48 40.3839 292.48C42.1972 292.48 43.7039 292.747 44.9039 293.28C46.1306 293.787 47.0506 294.52 47.6639 295.48C48.2772 296.44 48.5839 297.6 48.5839 298.96V309.64C48.5839 310.147 48.7039 310.507 48.9439 310.72C49.2106 310.933 49.5172 311.04 49.8639 311.04H51.3039V313.84C50.9839 313.973 50.5839 314.107 50.1039 314.24C49.6239 314.373 49.0639 314.44 48.4239 314.44C47.7039 314.44 47.0906 314.307 46.5839 314.04C46.1039 313.8 45.7039 313.453 45.3839 313C45.0906 312.52 44.8906 311.987 44.7839 311.4H44.5439C44.0639 312.013 43.4772 312.56 42.7839 313.04C42.1172 313.493 41.3439 313.84 40.4639 314.08C39.5839 314.347 38.5972 314.48 37.5039 314.48ZM38.6639 311.04C39.4906 311.04 40.2506 310.92 40.9439 310.68C41.6639 310.413 42.2772 310.053 42.7839 309.6C43.2906 309.12 43.6906 308.56 43.9839 307.92C44.2772 307.253 44.4239 306.533 44.4239 305.76V304.36C42.5839 304.36 40.9706 304.467 39.5839 304.68C38.1972 304.893 37.1172 305.293 36.3439 305.88C35.5706 306.44 35.1839 307.227 35.1839 308.24C35.1839 308.853 35.3172 309.373 35.5839 309.8C35.8506 310.2 36.2506 310.507 36.7839 310.72C37.3172 310.933 37.9439 311.04 38.6639 311.04ZM54.1761 314V292.96H57.6161L57.9761 295.96H58.2561C58.7361 295.187 59.2828 294.547 59.8961 294.04C60.5361 293.533 61.2428 293.147 62.0161 292.88C62.8161 292.613 63.6694 292.48 64.5761 292.48C65.8828 292.48 67.0161 292.747 67.9761 293.28C68.9628 293.813 69.7094 294.707 70.2161 295.96H70.4961C70.9761 295.213 71.5361 294.587 72.1761 294.08C72.8161 293.547 73.5361 293.147 74.3361 292.88C75.1628 292.613 76.0428 292.48 76.9761 292.48C78.2294 292.48 79.3361 292.707 80.2961 293.16C81.2561 293.587 82.0161 294.32 82.5761 295.36C83.1361 296.373 83.4161 297.733 83.4161 299.44V314H79.2561V300.2C79.2561 299.4 79.1628 298.747 78.9761 298.24C78.7894 297.707 78.5361 297.293 78.2161 297C77.8961 296.68 77.5094 296.453 77.0561 296.32C76.6028 296.187 76.1094 296.12 75.5761 296.12C74.6961 296.12 73.9094 296.36 73.2161 296.84C72.5228 297.293 71.9628 297.933 71.5361 298.76C71.1094 299.587 70.8961 300.56 70.8961 301.68V314H66.7361V300.2C66.7361 299.4 66.6428 298.747 66.4561 298.24C66.2694 297.707 66.0161 297.293 65.6961 297C65.3761 296.68 64.9894 296.453 64.5361 296.32C64.0828 296.187 63.6028 296.12 63.0961 296.12C62.2161 296.12 61.4161 296.36 60.6961 296.84C59.9761 297.293 59.4028 297.933 58.9761 298.76C58.5494 299.587 58.3361 300.56 58.3361 301.68V314H54.1761ZM88.5902 314V292.96H92.0302L92.3902 295.96H92.6702C93.1768 295.187 93.7768 294.547 94.4702 294.04C95.1635 293.533 95.9235 293.147 96.7502 292.88C97.6035 292.613 98.5368 292.48 99.5502 292.48C100.883 292.48 102.057 292.72 103.07 293.2C104.083 293.653 104.87 294.4 105.43 295.44C106.017 296.48 106.31 297.88 106.31 299.64V314H102.15V300.28C102.15 299.48 102.043 298.813 101.83 298.28C101.643 297.747 101.363 297.32 100.99 297C100.617 296.68 100.177 296.453 99.6702 296.32C99.1635 296.187 98.6035 296.12 97.9902 296.12C97.0302 296.12 96.1502 296.36 95.3502 296.84C94.5768 297.293 93.9502 297.933 93.4702 298.76C92.9902 299.587 92.7502 300.56 92.7502 301.68V314H88.5902ZM112 320.16V318.36C112.587 318.253 113.053 317.987 113.4 317.56C113.773 317.16 114.04 316.653 114.2 316.04C114.387 315.427 114.48 314.747 114.48 314H112.36V309.36H116.8V313.56C116.8 315.107 116.56 316.333 116.08 317.24C115.627 318.147 115.027 318.813 114.28 319.24C113.56 319.693 112.8 320 112 320.16ZM138.526 314V290.4H129.446V286.56H152.166V290.4H143.006V314H138.526ZM155.739 314V285.08H159.899V295.48H160.179C160.685 294.84 161.259 294.307 161.899 293.88C162.539 293.427 163.259 293.08 164.059 292.84C164.859 292.6 165.739 292.48 166.699 292.48C168.032 292.48 169.205 292.72 170.219 293.2C171.232 293.653 172.019 294.4 172.579 295.44C173.165 296.48 173.459 297.88 173.459 299.64V314H169.299V300.28C169.299 299.48 169.192 298.813 168.979 298.28C168.792 297.747 168.512 297.32 168.139 297C167.765 296.68 167.325 296.453 166.819 296.32C166.312 296.187 165.752 296.12 165.139 296.12C164.179 296.12 163.299 296.347 162.499 296.8C161.725 297.253 161.099 297.893 160.619 298.72C160.139 299.547 159.899 300.533 159.899 301.68V314H155.739ZM187.388 314.48C185.228 314.48 183.415 314.093 181.948 313.32C180.508 312.52 179.415 311.307 178.668 309.68C177.922 308.053 177.548 305.987 177.548 303.48C177.548 300.947 177.922 298.88 178.668 297.28C179.415 295.653 180.522 294.453 181.988 293.68C183.455 292.88 185.282 292.48 187.468 292.48C189.468 292.48 191.135 292.867 192.468 293.64C193.828 294.387 194.855 295.533 195.548 297.08C196.242 298.627 196.588 300.573 196.588 302.92V304.52H181.828C181.882 306.013 182.108 307.267 182.508 308.28C182.908 309.267 183.508 310 184.308 310.48C185.135 310.933 186.175 311.16 187.428 311.16C188.202 311.16 188.895 311.067 189.508 310.88C190.122 310.667 190.642 310.373 191.068 310C191.495 309.6 191.828 309.133 192.068 308.6C192.308 308.04 192.428 307.413 192.428 306.72H196.508C196.508 307.973 196.295 309.08 195.868 310.04C195.442 311 194.815 311.813 193.988 312.48C193.188 313.12 192.228 313.613 191.108 313.96C189.988 314.307 188.748 314.48 187.388 314.48ZM181.908 301.48H192.228C192.228 300.44 192.108 299.573 191.868 298.88C191.655 298.16 191.335 297.573 190.908 297.12C190.482 296.667 189.975 296.347 189.388 296.16C188.802 295.947 188.135 295.84 187.388 295.84C186.268 295.84 185.308 296.04 184.508 296.44C183.735 296.84 183.135 297.467 182.708 298.32C182.282 299.147 182.015 300.2 181.908 301.48ZM221.46 314.48C218.66 314.48 216.273 313.987 214.3 313C212.353 311.987 210.86 310.427 209.82 308.32C208.78 306.213 208.26 303.533 208.26 300.28C208.26 295.48 209.42 291.92 211.74 289.6C214.087 287.253 217.34 286.08 221.5 286.08C223.793 286.08 225.847 286.467 227.66 287.24C229.5 288.013 230.94 289.173 231.98 290.72C233.047 292.24 233.58 294.187 233.58 296.56H229.02C229.02 295.093 228.713 293.867 228.1 292.88C227.487 291.893 226.607 291.147 225.46 290.64C224.34 290.133 223.033 289.88 221.54 289.88C219.673 289.88 218.087 290.253 216.78 291C215.5 291.72 214.527 292.813 213.86 294.28C213.22 295.747 212.9 297.613 212.9 299.88V300.76C212.9 303.027 213.22 304.893 213.86 306.36C214.527 307.827 215.5 308.92 216.78 309.64C218.06 310.333 219.647 310.68 221.54 310.68C223.087 310.68 224.433 310.44 225.58 309.96C226.727 309.453 227.607 308.707 228.22 307.72C228.86 306.733 229.18 305.507 229.18 304.04H233.58C233.58 306.413 233.047 308.373 231.98 309.92C230.94 311.467 229.5 312.613 227.66 313.36C225.847 314.107 223.78 314.48 221.46 314.48ZM238.004 314V285.08H242.164V295.48H242.444C242.951 294.84 243.524 294.307 244.164 293.88C244.804 293.427 245.524 293.08 246.324 292.84C247.124 292.6 248.004 292.48 248.964 292.48C250.298 292.48 251.471 292.72 252.484 293.2C253.498 293.653 254.284 294.4 254.844 295.44C255.431 296.48 255.724 297.88 255.724 299.64V314H251.564V300.28C251.564 299.48 251.458 298.813 251.244 298.28C251.058 297.747 250.778 297.32 250.404 297C250.031 296.68 249.591 296.453 249.084 296.32C248.578 296.187 248.018 296.12 247.404 296.12C246.444 296.12 245.564 296.347 244.764 296.8C243.991 297.253 243.364 297.893 242.884 298.72C242.404 299.547 242.164 300.533 242.164 301.68V314H238.004ZM266.254 314.48C265.587 314.48 264.867 314.4 264.094 314.24C263.321 314.08 262.587 313.787 261.894 313.36C261.227 312.933 260.681 312.347 260.254 311.6C259.827 310.827 259.614 309.827 259.614 308.6C259.614 307.16 259.947 305.973 260.614 305.04C261.281 304.107 262.214 303.373 263.414 302.84C264.614 302.307 266.041 301.933 267.694 301.72C269.374 301.507 271.201 301.4 273.174 301.4V299.32C273.174 298.627 273.054 298.013 272.814 297.48C272.601 296.947 272.187 296.533 271.574 296.24C270.987 295.947 270.134 295.8 269.014 295.8C267.894 295.8 267.014 295.947 266.374 296.24C265.761 296.507 265.321 296.853 265.054 297.28C264.814 297.68 264.694 298.12 264.694 298.6V299.2H260.694C260.667 299.067 260.654 298.933 260.654 298.8C260.654 298.667 260.654 298.507 260.654 298.32C260.654 297.067 261.001 296.013 261.694 295.16C262.414 294.28 263.414 293.613 264.694 293.16C265.974 292.707 267.454 292.48 269.134 292.48C270.947 292.48 272.454 292.747 273.654 293.28C274.881 293.787 275.801 294.52 276.414 295.48C277.027 296.44 277.334 297.6 277.334 298.96V309.64C277.334 310.147 277.454 310.507 277.694 310.72C277.961 310.933 278.267 311.04 278.614 311.04H280.054V313.84C279.734 313.973 279.334 314.107 278.854 314.24C278.374 314.373 277.814 314.44 277.174 314.44C276.454 314.44 275.841 314.307 275.334 314.04C274.854 313.8 274.454 313.453 274.134 313C273.841 312.52 273.641 311.987 273.534 311.4H273.294C272.814 312.013 272.227 312.56 271.534 313.04C270.867 313.493 270.094 313.84 269.214 314.08C268.334 314.347 267.347 314.48 266.254 314.48ZM267.414 311.04C268.241 311.04 269.001 310.92 269.694 310.68C270.414 310.413 271.027 310.053 271.534 309.6C272.041 309.12 272.441 308.56 272.734 307.92C273.027 307.253 273.174 306.533 273.174 305.76V304.36C271.334 304.36 269.721 304.467 268.334 304.68C266.947 304.893 265.867 305.293 265.094 305.88C264.321 306.44 263.934 307.227 263.934 308.24C263.934 308.853 264.067 309.373 264.334 309.8C264.601 310.2 265.001 310.507 265.534 310.72C266.067 310.933 266.694 311.04 267.414 311.04ZM282.926 314V292.96H286.366L286.726 295.96H287.006C287.513 295.187 288.113 294.547 288.806 294.04C289.499 293.533 290.259 293.147 291.086 292.88C291.939 292.613 292.873 292.48 293.886 292.48C295.219 292.48 296.393 292.72 297.406 293.2C298.419 293.653 299.206 294.4 299.766 295.44C300.353 296.48 300.646 297.88 300.646 299.64V314H296.486V300.28C296.486 299.48 296.379 298.813 296.166 298.28C295.979 297.747 295.699 297.32 295.326 297C294.953 296.68 294.513 296.453 294.006 296.32C293.499 296.187 292.939 296.12 292.326 296.12C291.366 296.12 290.486 296.36 289.686 296.84C288.913 297.293 288.286 297.933 287.806 298.76C287.326 299.587 287.086 300.56 287.086 301.68V314H282.926ZM309.376 321.28C308.416 321.28 307.509 321.08 306.656 320.68C305.829 320.28 305.162 319.707 304.656 318.96C304.149 318.213 303.896 317.307 303.896 316.24C303.896 315.067 304.216 314.12 304.856 313.4C305.522 312.653 306.296 312.093 307.176 311.72C306.536 311.427 306.016 311 305.616 310.44C305.242 309.88 305.056 309.24 305.056 308.52C305.056 307.533 305.416 306.733 306.136 306.12C306.856 305.507 307.696 305.107 308.656 304.92C307.722 304.307 306.989 303.533 306.456 302.6C305.949 301.667 305.696 300.613 305.696 299.44C305.696 298.027 306.029 296.813 306.696 295.8C307.362 294.76 308.349 293.947 309.656 293.36C310.989 292.773 312.602 292.48 314.496 292.48C315.322 292.48 316.096 292.547 316.816 292.68C317.562 292.787 318.229 292.947 318.816 293.16C319.749 292.68 320.416 292.107 320.816 291.44C321.216 290.747 321.456 290.107 321.536 289.52H325.616C325.616 290.4 325.429 291.2 325.056 291.92C324.709 292.613 324.216 293.2 323.576 293.68C322.962 294.133 322.216 294.453 321.336 294.64C322.002 295.253 322.496 295.973 322.816 296.8C323.162 297.6 323.336 298.48 323.336 299.44C323.336 300.827 323.016 302.04 322.376 303.08C321.736 304.12 320.762 304.933 319.456 305.52C318.176 306.107 316.589 306.4 314.696 306.4H311.416C310.776 306.4 310.256 306.533 309.856 306.8C309.482 307.067 309.296 307.467 309.296 308C309.296 308.453 309.482 308.827 309.856 309.12C310.229 309.413 310.722 309.56 311.336 309.56H320.216C321.762 309.56 323.042 310.08 324.056 311.12C325.069 312.133 325.576 313.44 325.576 315.04C325.576 316.213 325.269 317.267 324.656 318.2C324.069 319.16 323.229 319.907 322.136 320.44C321.069 321 319.829 321.28 318.416 321.28H309.376ZM310.736 318.2H318.376C318.936 318.2 319.442 318.093 319.896 317.88C320.349 317.667 320.709 317.36 320.976 316.96C321.242 316.587 321.376 316.16 321.376 315.68C321.376 314.88 321.122 314.253 320.616 313.8C320.136 313.347 319.536 313.12 318.816 313.12H310.736C309.989 313.12 309.362 313.373 308.856 313.88C308.349 314.36 308.096 314.96 308.096 315.68C308.096 316.427 308.336 317.027 308.816 317.48C309.322 317.96 309.962 318.2 310.736 318.2ZM314.536 303.4C316.109 303.4 317.282 303.053 318.056 302.36C318.829 301.64 319.216 300.667 319.216 299.44C319.216 298.187 318.829 297.227 318.056 296.56C317.282 295.867 316.109 295.52 314.536 295.52C312.962 295.52 311.789 295.867 311.016 296.56C310.242 297.227 309.856 298.187 309.856 299.44C309.856 300.24 310.016 300.947 310.336 301.56C310.682 302.147 311.202 302.6 311.896 302.92C312.616 303.24 313.496 303.4 314.536 303.4ZM337.505 314.48C335.345 314.48 333.532 314.093 332.065 313.32C330.625 312.52 329.532 311.307 328.785 309.68C328.039 308.053 327.665 305.987 327.665 303.48C327.665 300.947 328.039 298.88 328.785 297.28C329.532 295.653 330.639 294.453 332.105 293.68C333.572 292.88 335.399 292.48 337.585 292.48C339.585 292.48 341.252 292.867 342.585 293.64C343.945 294.387 344.972 295.533 345.665 297.08C346.359 298.627 346.705 300.573 346.705 302.92V304.52H331.945C331.999 306.013 332.225 307.267 332.625 308.28C333.025 309.267 333.625 310 334.425 310.48C335.252 310.933 336.292 311.16 337.545 311.16C338.319 311.16 339.012 311.067 339.625 310.88C340.239 310.667 340.759 310.373 341.185 310C341.612 309.6 341.945 309.133 342.185 308.6C342.425 308.04 342.545 307.413 342.545 306.72H346.625C346.625 307.973 346.412 309.08 345.985 310.04C345.559 311 344.932 311.813 344.105 312.48C343.305 313.12 342.345 313.613 341.225 313.96C340.105 314.307 338.865 314.48 337.505 314.48ZM332.025 301.48H342.345C342.345 300.44 342.225 299.573 341.985 298.88C341.772 298.16 341.452 297.573 341.025 297.12C340.599 296.667 340.092 296.347 339.505 296.16C338.919 295.947 338.252 295.84 337.505 295.84C336.385 295.84 335.425 296.04 334.625 296.44C333.852 296.84 333.252 297.467 332.825 298.32C332.399 299.147 332.132 300.2 332.025 301.48ZM365.623 314V302.72L354.943 286.56H360.063L367.903 298.72H368.103L375.863 286.56H380.783L370.103 302.72V314H365.623ZM388.917 314.48C386.731 314.48 384.877 314.093 383.357 313.32C381.864 312.52 380.731 311.307 379.957 309.68C379.211 308.053 378.837 305.987 378.837 303.48C378.837 300.947 379.211 298.88 379.957 297.28C380.731 295.653 381.864 294.453 383.357 293.68C384.877 292.88 386.731 292.48 388.917 292.48C391.157 292.48 393.024 292.88 394.517 293.68C396.011 294.453 397.131 295.653 397.877 297.28C398.651 298.88 399.037 300.947 399.037 303.48C399.037 305.987 398.651 308.053 397.877 309.68C397.131 311.307 396.011 312.52 394.517 313.32C393.024 314.093 391.157 314.48 388.917 314.48ZM388.917 311.04C390.251 311.04 391.344 310.787 392.197 310.28C393.051 309.747 393.677 308.947 394.077 307.88C394.504 306.813 394.717 305.467 394.717 303.84V303.12C394.717 301.493 394.504 300.147 394.077 299.08C393.677 298.013 393.051 297.227 392.197 296.72C391.344 296.187 390.251 295.92 388.917 295.92C387.611 295.92 386.531 296.187 385.677 296.72C384.824 297.227 384.184 298.013 383.757 299.08C383.357 300.147 383.157 301.493 383.157 303.12V303.84C383.157 305.467 383.357 306.813 383.757 307.88C384.184 308.947 384.824 309.747 385.677 310.28C386.531 310.787 387.611 311.04 388.917 311.04ZM409.878 314.48C407.851 314.48 406.211 313.947 404.958 312.88C403.704 311.787 403.078 309.933 403.078 307.32V292.96H407.238V306.68C407.238 307.48 407.331 308.147 407.518 308.68C407.731 309.213 408.024 309.64 408.398 309.96C408.771 310.28 409.211 310.507 409.718 310.64C410.224 310.773 410.784 310.84 411.398 310.84C412.358 310.84 413.224 310.613 413.998 310.16C414.798 309.68 415.438 309.027 415.918 308.2C416.398 307.347 416.638 306.373 416.638 305.28V292.96H420.798V314H417.398L417.038 311H416.758C416.251 311.773 415.651 312.413 414.958 312.92C414.264 313.427 413.491 313.813 412.638 314.08C411.811 314.347 410.891 314.48 409.878 314.48ZM439.691 314L432.131 286.56H436.891L441.571 304.64C441.651 304.933 441.745 305.333 441.851 305.84C441.958 306.347 442.051 306.88 442.131 307.44C442.238 307.973 442.331 308.467 442.411 308.92H442.651C442.731 308.573 442.798 308.2 442.851 307.8C442.905 307.4 442.971 307 443.051 306.6C443.131 306.2 443.198 305.827 443.251 305.48C443.331 305.133 443.385 304.853 443.411 304.64L447.731 286.56H453.491L457.851 304.64C457.931 304.933 458.025 305.333 458.131 305.84C458.238 306.347 458.331 306.88 458.411 307.44C458.518 307.973 458.611 308.467 458.691 308.92H458.931C458.985 308.6 459.051 308.24 459.131 307.84C459.211 307.44 459.291 307.053 459.371 306.68C459.451 306.28 459.531 305.907 459.611 305.56C459.718 305.213 459.798 304.907 459.851 304.64L464.531 286.56H468.771L461.211 314H455.971L451.371 295.68C451.291 295.28 451.198 294.827 451.091 294.32C450.985 293.787 450.878 293.253 450.771 292.72C450.691 292.16 450.625 291.68 450.571 291.28H450.371C450.318 291.707 450.251 292.2 450.171 292.76C450.091 293.32 449.998 293.867 449.891 294.4C449.785 294.907 449.691 295.333 449.611 295.68L445.091 314H439.691ZM475.316 314.48C474.65 314.48 473.93 314.4 473.156 314.24C472.383 314.08 471.65 313.787 470.956 313.36C470.29 312.933 469.743 312.347 469.316 311.6C468.89 310.827 468.676 309.827 468.676 308.6C468.676 307.16 469.01 305.973 469.676 305.04C470.343 304.107 471.276 303.373 472.476 302.84C473.676 302.307 475.103 301.933 476.756 301.72C478.436 301.507 480.263 301.4 482.236 301.4V299.32C482.236 298.627 482.116 298.013 481.876 297.48C481.663 296.947 481.25 296.533 480.636 296.24C480.05 295.947 479.196 295.8 478.076 295.8C476.956 295.8 476.076 295.947 475.436 296.24C474.823 296.507 474.383 296.853 474.116 297.28C473.876 297.68 473.756 298.12 473.756 298.6V299.2H469.756C469.73 299.067 469.716 298.933 469.716 298.8C469.716 298.667 469.716 298.507 469.716 298.32C469.716 297.067 470.063 296.013 470.756 295.16C471.476 294.28 472.476 293.613 473.756 293.16C475.036 292.707 476.516 292.48 478.196 292.48C480.01 292.48 481.516 292.747 482.716 293.28C483.943 293.787 484.863 294.52 485.476 295.48C486.09 296.44 486.396 297.6 486.396 298.96V309.64C486.396 310.147 486.516 310.507 486.756 310.72C487.023 310.933 487.33 311.04 487.676 311.04H489.116V313.84C488.796 313.973 488.396 314.107 487.916 314.24C487.436 314.373 486.876 314.44 486.236 314.44C485.516 314.44 484.903 314.307 484.396 314.04C483.916 313.8 483.516 313.453 483.196 313C482.903 312.52 482.703 311.987 482.596 311.4H482.356C481.876 312.013 481.29 312.56 480.596 313.04C479.93 313.493 479.156 313.84 478.276 314.08C477.396 314.347 476.41 314.48 475.316 314.48ZM476.476 311.04C477.303 311.04 478.063 310.92 478.756 310.68C479.476 310.413 480.09 310.053 480.596 309.6C481.103 309.12 481.503 308.56 481.796 307.92C482.09 307.253 482.236 306.533 482.236 305.76V304.36C480.396 304.36 478.783 304.467 477.396 304.68C476.01 304.893 474.93 305.293 474.156 305.88C473.383 306.44 472.996 307.227 472.996 308.24C472.996 308.853 473.13 309.373 473.396 309.8C473.663 310.2 474.063 310.507 474.596 310.72C475.13 310.933 475.756 311.04 476.476 311.04ZM491.989 314V292.96H495.429L495.789 295.96H496.069C496.575 295.187 497.175 294.547 497.869 294.04C498.562 293.533 499.322 293.147 500.149 292.88C501.002 292.613 501.935 292.48 502.949 292.48C504.282 292.48 505.455 292.72 506.469 293.2C507.482 293.653 508.269 294.4 508.829 295.44C509.415 296.48 509.709 297.88 509.709 299.64V314H505.549V300.28C505.549 299.48 505.442 298.813 505.229 298.28C505.042 297.747 504.762 297.32 504.389 297C504.015 296.68 503.575 296.453 503.069 296.32C502.562 296.187 502.002 296.12 501.389 296.12C500.429 296.12 499.549 296.36 498.749 296.84C497.975 297.293 497.349 297.933 496.869 298.76C496.389 299.587 496.149 300.56 496.149 301.68V314H491.989ZM520.158 314.48C518.958 314.48 518.012 314.253 517.318 313.8C516.652 313.32 516.172 312.72 515.878 312C515.612 311.253 515.478 310.467 515.478 309.64V296.4H512.838V292.96H515.558L516.318 287.08H519.638V292.96H523.438V296.4H519.638V309.16C519.638 309.773 519.772 310.24 520.038 310.56C520.305 310.88 520.745 311.04 521.358 311.04H523.438V313.84C523.172 313.947 522.838 314.04 522.438 314.12C522.065 314.227 521.678 314.307 521.278 314.36C520.878 314.44 520.505 314.48 520.158 314.48ZM535.826 314.48C533.666 314.48 531.852 314.093 530.386 313.32C528.946 312.52 527.852 311.307 527.106 309.68C526.359 308.053 525.986 305.987 525.986 303.48C525.986 300.947 526.359 298.88 527.106 297.28C527.852 295.653 528.959 294.453 530.426 293.68C531.892 292.88 533.719 292.48 535.906 292.48C537.906 292.48 539.572 292.867 540.906 293.64C542.266 294.387 543.292 295.533 543.986 297.08C544.679 298.627 545.026 300.573 545.026 302.92V304.52H530.266C530.319 306.013 530.546 307.267 530.946 308.28C531.346 309.267 531.946 310 532.746 310.48C533.572 310.933 534.612 311.16 535.866 311.16C536.639 311.16 537.332 311.067 537.946 310.88C538.559 310.667 539.079 310.373 539.506 310C539.932 309.6 540.266 309.133 540.506 308.6C540.746 308.04 540.866 307.413 540.866 306.72H544.946C544.946 307.973 544.732 309.08 544.306 310.04C543.879 311 543.252 311.813 542.426 312.48C541.626 313.12 540.666 313.613 539.546 313.96C538.426 314.307 537.186 314.48 535.826 314.48ZM530.346 301.48H540.666C540.666 300.44 540.546 299.573 540.306 298.88C540.092 298.16 539.772 297.573 539.346 297.12C538.919 296.667 538.412 296.347 537.826 296.16C537.239 295.947 536.572 295.84 535.826 295.84C534.706 295.84 533.746 296.04 532.946 296.44C532.172 296.84 531.572 297.467 531.146 298.32C530.719 299.147 530.452 300.2 530.346 301.48ZM556.494 314.48C554.788 314.48 553.308 314.093 552.054 313.32C550.801 312.547 549.828 311.347 549.134 309.72C548.468 308.093 548.134 305.987 548.134 303.4C548.134 300.867 548.481 298.8 549.174 297.2C549.868 295.6 550.828 294.413 552.054 293.64C553.281 292.867 554.694 292.48 556.294 292.48C557.228 292.48 558.094 292.587 558.894 292.8C559.694 293.013 560.401 293.347 561.014 293.8C561.654 294.253 562.188 294.827 562.614 295.52H562.894V285.08H567.054V314H563.654L563.254 311.12H562.974C562.281 312.24 561.361 313.08 560.214 313.64C559.094 314.2 557.854 314.48 556.494 314.48ZM557.654 310.88C558.881 310.88 559.868 310.613 560.614 310.08C561.388 309.52 561.961 308.72 562.334 307.68C562.708 306.613 562.894 305.32 562.894 303.8V303.24C562.894 301.96 562.774 300.867 562.534 299.96C562.294 299.053 561.948 298.32 561.494 297.76C561.041 297.173 560.494 296.747 559.854 296.48C559.214 296.213 558.494 296.08 557.694 296.08C556.468 296.08 555.468 296.333 554.694 296.84C553.921 297.32 553.348 298.08 552.974 299.12C552.628 300.16 552.454 301.507 552.454 303.16V303.88C552.454 305.533 552.641 306.88 553.014 307.92C553.388 308.933 553.948 309.68 554.694 310.16C555.468 310.64 556.454 310.88 557.654 310.88ZM585.941 314L578.381 286.56H583.141L587.821 304.64C587.901 304.933 587.995 305.333 588.101 305.84C588.208 306.347 588.301 306.88 588.381 307.44C588.488 307.973 588.581 308.467 588.661 308.92H588.901C588.981 308.573 589.048 308.2 589.101 307.8C589.155 307.4 589.221 307 589.301 306.6C589.381 306.2 589.448 305.827 589.501 305.48C589.581 305.133 589.635 304.853 589.661 304.64L593.981 286.56H599.741L604.101 304.64C604.181 304.933 604.275 305.333 604.381 305.84C604.488 306.347 604.581 306.88 604.661 307.44C604.768 307.973 604.861 308.467 604.941 308.92H605.181C605.235 308.6 605.301 308.24 605.381 307.84C605.461 307.44 605.541 307.053 605.621 306.68C605.701 306.28 605.781 305.907 605.861 305.56C605.968 305.213 606.048 304.907 606.101 304.64L610.781 286.56H615.021L607.461 314H602.221L597.621 295.68C597.541 295.28 597.448 294.827 597.341 294.32C597.235 293.787 597.128 293.253 597.021 292.72C596.941 292.16 596.875 291.68 596.821 291.28H596.621C596.568 291.707 596.501 292.2 596.421 292.76C596.341 293.32 596.248 293.867 596.141 294.4C596.035 294.907 595.941 295.333 595.861 295.68L591.341 314H585.941ZM621.566 314.48C620.9 314.48 620.18 314.4 619.406 314.24C618.633 314.08 617.9 313.787 617.206 313.36C616.54 312.933 615.993 312.347 615.566 311.6C615.14 310.827 614.926 309.827 614.926 308.6C614.926 307.16 615.26 305.973 615.926 305.04C616.593 304.107 617.526 303.373 618.726 302.84C619.926 302.307 621.353 301.933 623.006 301.72C624.686 301.507 626.513 301.4 628.486 301.4V299.32C628.486 298.627 628.366 298.013 628.126 297.48C627.913 296.947 627.5 296.533 626.886 296.24C626.3 295.947 625.446 295.8 624.326 295.8C623.206 295.8 622.326 295.947 621.686 296.24C621.073 296.507 620.633 296.853 620.366 297.28C620.126 297.68 620.006 298.12 620.006 298.6V299.2H616.006C615.98 299.067 615.966 298.933 615.966 298.8C615.966 298.667 615.966 298.507 615.966 298.32C615.966 297.067 616.313 296.013 617.006 295.16C617.726 294.28 618.726 293.613 620.006 293.16C621.286 292.707 622.766 292.48 624.446 292.48C626.26 292.48 627.766 292.747 628.966 293.28C630.193 293.787 631.113 294.52 631.726 295.48C632.34 296.44 632.646 297.6 632.646 298.96V309.64C632.646 310.147 632.766 310.507 633.006 310.72C633.273 310.933 633.58 311.04 633.926 311.04H635.366V313.84C635.046 313.973 634.646 314.107 634.166 314.24C633.686 314.373 633.126 314.44 632.486 314.44C631.766 314.44 631.153 314.307 630.646 314.04C630.166 313.8 629.766 313.453 629.446 313C629.153 312.52 628.953 311.987 628.846 311.4H628.606C628.126 312.013 627.54 312.56 626.846 313.04C626.18 313.493 625.406 313.84 624.526 314.08C623.646 314.347 622.66 314.48 621.566 314.48ZM622.726 311.04C623.553 311.04 624.313 310.92 625.006 310.68C625.726 310.413 626.34 310.053 626.846 309.6C627.353 309.12 627.753 308.56 628.046 307.92C628.34 307.253 628.486 306.533 628.486 305.76V304.36C626.646 304.36 625.033 304.467 623.646 304.68C622.26 304.893 621.18 305.293 620.406 305.88C619.633 306.44 619.246 307.227 619.246 308.24C619.246 308.853 619.38 309.373 619.646 309.8C619.913 310.2 620.313 310.507 620.846 310.72C621.38 310.933 622.006 311.04 622.726 311.04ZM645.999 314.48C644.532 314.48 643.239 314.32 642.119 314C640.999 313.68 640.065 313.24 639.319 312.68C638.572 312.12 637.999 311.453 637.599 310.68C637.225 309.88 637.039 309 637.039 308.04C637.039 307.907 637.039 307.787 637.039 307.68C637.065 307.573 637.079 307.48 637.079 307.4H641.199C641.199 307.48 641.199 307.56 641.199 307.64C641.199 307.693 641.199 307.76 641.199 307.84C641.199 308.667 641.425 309.333 641.879 309.84C642.332 310.32 642.932 310.667 643.679 310.88C644.452 311.067 645.292 311.16 646.199 311.16C646.999 311.16 647.732 311.067 648.399 310.88C649.092 310.667 649.652 310.36 650.079 309.96C650.532 309.56 650.759 309.053 650.759 308.44C650.759 307.64 650.479 307.027 649.919 306.6C649.359 306.173 648.625 305.84 647.719 305.6C646.812 305.333 645.865 305.053 644.879 304.76C643.999 304.52 643.119 304.267 642.239 304C641.385 303.707 640.612 303.333 639.919 302.88C639.225 302.427 638.665 301.853 638.239 301.16C637.812 300.467 637.599 299.6 637.599 298.56C637.599 297.573 637.812 296.707 638.239 295.96C638.665 295.213 639.252 294.587 639.999 294.08C640.772 293.573 641.679 293.187 642.719 292.92C643.785 292.653 644.945 292.52 646.199 292.52C647.505 292.52 648.665 292.667 649.679 292.96C650.692 293.227 651.545 293.613 652.239 294.12C652.959 294.627 653.505 295.24 653.879 295.96C654.252 296.653 654.439 297.4 654.439 298.2C654.439 298.36 654.425 298.533 654.399 298.72C654.399 298.88 654.399 298.987 654.399 299.04H650.319V298.68C650.319 298.147 650.172 297.667 649.879 297.24C649.585 296.813 649.119 296.467 648.479 296.2C647.865 295.933 647.039 295.8 645.999 295.8C645.305 295.8 644.692 295.867 644.159 296C643.625 296.107 643.185 296.267 642.839 296.48C642.492 296.693 642.225 296.947 642.039 297.24C641.879 297.533 641.799 297.867 641.799 298.24C641.799 298.853 642.012 299.333 642.439 299.68C642.892 300 643.479 300.28 644.199 300.52C644.919 300.733 645.692 300.973 646.519 301.24C647.479 301.507 648.452 301.787 649.439 302.08C650.425 302.347 651.332 302.693 652.159 303.12C653.012 303.547 653.692 304.133 654.199 304.88C654.732 305.627 654.999 306.627 654.999 307.88C654.999 309.027 654.772 310.027 654.319 310.88C653.865 311.733 653.225 312.427 652.399 312.96C651.599 313.467 650.652 313.84 649.559 314.08C648.465 314.347 647.279 314.48 645.999 314.48ZM667.978 314V286.56H682.418C684.365 286.56 685.978 286.907 687.258 287.6C688.538 288.293 689.498 289.267 690.138 290.52C690.778 291.747 691.098 293.187 691.098 294.84C691.098 296.68 690.685 298.28 689.858 299.64C689.032 301 687.858 302 686.338 302.64L692.058 314H687.178L681.978 303.4H672.458V314H667.978ZM672.458 299.64H682.058C683.498 299.64 684.605 299.213 685.378 298.36C686.178 297.507 686.578 296.32 686.578 294.8C686.578 293.867 686.405 293.08 686.058 292.44C685.712 291.773 685.205 291.267 684.538 290.92C683.872 290.573 683.045 290.4 682.058 290.4H672.458V299.64ZM704.615 314.48C702.455 314.48 700.642 314.093 699.175 313.32C697.735 312.52 696.642 311.307 695.895 309.68C695.148 308.053 694.775 305.987 694.775 303.48C694.775 300.947 695.148 298.88 695.895 297.28C696.642 295.653 697.748 294.453 699.215 293.68C700.682 292.88 702.508 292.48 704.695 292.48C706.695 292.48 708.362 292.867 709.695 293.64C711.055 294.387 712.082 295.533 712.775 297.08C713.468 298.627 713.815 300.573 713.815 302.92V304.52H699.055C699.108 306.013 699.335 307.267 699.735 308.28C700.135 309.267 700.735 310 701.535 310.48C702.362 310.933 703.402 311.16 704.655 311.16C705.428 311.16 706.122 311.067 706.735 310.88C707.348 310.667 707.868 310.373 708.295 310C708.722 309.6 709.055 309.133 709.295 308.6C709.535 308.04 709.655 307.413 709.655 306.72H713.735C713.735 307.973 713.522 309.08 713.095 310.04C712.668 311 712.042 311.813 711.215 312.48C710.415 313.12 709.455 313.613 708.335 313.96C707.215 314.307 705.975 314.48 704.615 314.48ZM699.135 301.48H709.455C709.455 300.44 709.335 299.573 709.095 298.88C708.882 298.16 708.562 297.573 708.135 297.12C707.708 296.667 707.202 296.347 706.615 296.16C706.028 295.947 705.362 295.84 704.615 295.84C703.495 295.84 702.535 296.04 701.735 296.44C700.962 296.84 700.362 297.467 699.935 298.32C699.508 299.147 699.242 300.2 699.135 301.48ZM718.043 289.32V285.08H722.203V289.32H718.043ZM717.403 321.28C717.083 321.28 716.723 321.253 716.323 321.2C715.95 321.173 715.59 321.107 715.243 321C714.87 320.92 714.563 320.84 714.323 320.76V317.88H716.243C716.83 317.88 717.27 317.72 717.563 317.4C717.883 317.08 718.043 316.627 718.043 316.04V292.96H722.203V316.24C722.203 317.093 722.057 317.893 721.763 318.64C721.497 319.413 721.017 320.04 720.323 320.52C719.63 321.027 718.657 321.28 717.403 321.28ZM736.216 314.48C734.056 314.48 732.243 314.093 730.776 313.32C729.336 312.52 728.243 311.307 727.496 309.68C726.75 308.053 726.376 305.987 726.376 303.48C726.376 300.947 726.75 298.88 727.496 297.28C728.243 295.653 729.35 294.453 730.816 293.68C732.283 292.88 734.11 292.48 736.296 292.48C738.296 292.48 739.963 292.867 741.296 293.64C742.656 294.387 743.683 295.533 744.376 297.08C745.07 298.627 745.416 300.573 745.416 302.92V304.52H730.656C730.71 306.013 730.936 307.267 731.336 308.28C731.736 309.267 732.336 310 733.136 310.48C733.963 310.933 735.003 311.16 736.256 311.16C737.03 311.16 737.723 311.067 738.336 310.88C738.95 310.667 739.47 310.373 739.896 310C740.323 309.6 740.656 309.133 740.896 308.6C741.136 308.04 741.256 307.413 741.256 306.72H745.336C745.336 307.973 745.123 309.08 744.696 310.04C744.27 311 743.643 311.813 742.816 312.48C742.016 313.12 741.056 313.613 739.936 313.96C738.816 314.307 737.576 314.48 736.216 314.48ZM730.736 301.48H741.056C741.056 300.44 740.936 299.573 740.696 298.88C740.483 298.16 740.163 297.573 739.736 297.12C739.31 296.667 738.803 296.347 738.216 296.16C737.63 295.947 736.963 295.84 736.216 295.84C735.096 295.84 734.136 296.04 733.336 296.44C732.563 296.84 731.963 297.467 731.536 298.32C731.11 299.147 730.843 300.2 730.736 301.48ZM758.005 314.48C755.898 314.48 754.138 314.093 752.725 313.32C751.312 312.52 750.245 311.307 749.525 309.68C748.832 308.053 748.485 305.987 748.485 303.48C748.485 300.973 748.845 298.92 749.565 297.32C750.285 295.693 751.352 294.48 752.765 293.68C754.205 292.88 755.965 292.48 758.045 292.48C759.485 292.48 760.738 292.667 761.805 293.04C762.872 293.387 763.778 293.92 764.525 294.64C765.272 295.333 765.818 296.2 766.165 297.24C766.538 298.28 766.725 299.467 766.725 300.8H762.525C762.525 299.68 762.365 298.76 762.045 298.04C761.725 297.32 761.232 296.787 760.565 296.44C759.898 296.067 759.032 295.88 757.965 295.88C756.845 295.88 755.898 296.147 755.125 296.68C754.352 297.187 753.765 297.973 753.365 299.04C752.965 300.08 752.765 301.453 752.765 303.16V303.84C752.765 305.467 752.952 306.827 753.325 307.92C753.725 308.987 754.312 309.787 755.085 310.32C755.885 310.827 756.898 311.08 758.125 311.08C759.192 311.08 760.045 310.893 760.685 310.52C761.352 310.12 761.845 309.56 762.165 308.84C762.512 308.093 762.685 307.2 762.685 306.16H766.725C766.725 307.413 766.538 308.547 766.165 309.56C765.818 310.573 765.272 311.453 764.525 312.2C763.805 312.92 762.898 313.48 761.805 313.88C760.712 314.28 759.445 314.48 758.005 314.48ZM776.174 314.48C774.974 314.48 774.027 314.253 773.334 313.8C772.667 313.32 772.187 312.72 771.894 312C771.627 311.253 771.494 310.467 771.494 309.64V296.4H768.854V292.96H771.574L772.334 287.08H775.654V292.96H779.454V296.4H775.654V309.16C775.654 309.773 775.787 310.24 776.054 310.56C776.321 310.88 776.761 311.04 777.374 311.04H779.454V313.84C779.187 313.947 778.854 314.04 778.454 314.12C778.081 314.227 777.694 314.307 777.294 314.36C776.894 314.44 776.521 314.48 776.174 314.48ZM791.841 314.48C789.681 314.48 787.868 314.093 786.401 313.32C784.961 312.52 783.868 311.307 783.121 309.68C782.375 308.053 782.001 305.987 782.001 303.48C782.001 300.947 782.375 298.88 783.121 297.28C783.868 295.653 784.975 294.453 786.441 293.68C787.908 292.88 789.735 292.48 791.921 292.48C793.921 292.48 795.588 292.867 796.921 293.64C798.281 294.387 799.308 295.533 800.001 297.08C800.695 298.627 801.041 300.573 801.041 302.92V304.52H786.281C786.335 306.013 786.561 307.267 786.961 308.28C787.361 309.267 787.961 310 788.761 310.48C789.588 310.933 790.628 311.16 791.881 311.16C792.655 311.16 793.348 311.067 793.961 310.88C794.575 310.667 795.095 310.373 795.521 310C795.948 309.6 796.281 309.133 796.521 308.6C796.761 308.04 796.881 307.413 796.881 306.72H800.961C800.961 307.973 800.748 309.08 800.321 310.04C799.895 311 799.268 311.813 798.441 312.48C797.641 313.12 796.681 313.613 795.561 313.96C794.441 314.307 793.201 314.48 791.841 314.48ZM786.361 301.48H796.681C796.681 300.44 796.561 299.573 796.321 298.88C796.108 298.16 795.788 297.573 795.361 297.12C794.935 296.667 794.428 296.347 793.841 296.16C793.255 295.947 792.588 295.84 791.841 295.84C790.721 295.84 789.761 296.04 788.961 296.44C788.188 296.84 787.588 297.467 787.161 298.32C786.735 299.147 786.468 300.2 786.361 301.48ZM812.51 314.48C810.803 314.48 809.323 314.093 808.07 313.32C806.817 312.547 805.843 311.347 805.15 309.72C804.483 308.093 804.15 305.987 804.15 303.4C804.15 300.867 804.497 298.8 805.19 297.2C805.883 295.6 806.843 294.413 808.07 293.64C809.297 292.867 810.71 292.48 812.31 292.48C813.243 292.48 814.11 292.587 814.91 292.8C815.71 293.013 816.417 293.347 817.03 293.8C817.67 294.253 818.203 294.827 818.63 295.52H818.91V285.08H823.07V314H819.67L819.27 311.12H818.99C818.297 312.24 817.377 313.08 816.23 313.64C815.11 314.2 813.87 314.48 812.51 314.48ZM813.67 310.88C814.897 310.88 815.883 310.613 816.63 310.08C817.403 309.52 817.977 308.72 818.35 307.68C818.723 306.613 818.91 305.32 818.91 303.8V303.24C818.91 301.96 818.79 300.867 818.55 299.96C818.31 299.053 817.963 298.32 817.51 297.76C817.057 297.173 816.51 296.747 815.87 296.48C815.23 296.213 814.51 296.08 813.71 296.08C812.483 296.08 811.483 296.333 810.71 296.84C809.937 297.32 809.363 298.08 808.99 299.12C808.643 300.16 808.47 301.507 808.47 303.16V303.88C808.47 305.533 808.657 306.88 809.03 307.92C809.403 308.933 809.963 309.68 810.71 310.16C811.483 310.64 812.47 310.88 813.67 310.88ZM180.249 391V370.42H183.609V388.09H193.869V391H180.249ZM202.922 391.36C201.302 391.36 199.942 391.07 198.842 390.49C197.762 389.89 196.942 388.98 196.382 387.76C195.822 386.54 195.542 384.99 195.542 383.11C195.542 381.21 195.822 379.66 196.382 378.46C196.942 377.24 197.772 376.34 198.872 375.76C199.972 375.16 201.342 374.86 202.982 374.86C204.482 374.86 205.732 375.15 206.732 375.73C207.752 376.29 208.522 377.15 209.042 378.31C209.562 379.47 209.822 380.93 209.822 382.69V383.89H198.752C198.792 385.01 198.962 385.95 199.262 386.71C199.562 387.45 200.012 388 200.612 388.36C201.232 388.7 202.012 388.87 202.952 388.87C203.532 388.87 204.052 388.8 204.512 388.66C204.972 388.5 205.362 388.28 205.682 388C206.002 387.7 206.252 387.35 206.432 386.95C206.612 386.53 206.702 386.06 206.702 385.54H209.762C209.762 386.48 209.602 387.31 209.282 388.03C208.962 388.75 208.492 389.36 207.872 389.86C207.272 390.34 206.552 390.71 205.712 390.97C204.872 391.23 203.942 391.36 202.922 391.36ZM198.812 381.61H206.552C206.552 380.83 206.462 380.18 206.282 379.66C206.122 379.12 205.882 378.68 205.562 378.34C205.242 378 204.862 377.76 204.422 377.62C203.982 377.46 203.482 377.38 202.922 377.38C202.082 377.38 201.362 377.53 200.762 377.83C200.182 378.13 199.732 378.6 199.412 379.24C199.092 379.86 198.892 380.65 198.812 381.61ZM216.923 391.36C216.023 391.36 215.313 391.19 214.793 390.85C214.293 390.49 213.933 390.04 213.713 389.5C213.513 388.94 213.413 388.35 213.413 387.73V377.8H211.433V375.22H213.473L214.043 370.81H216.533V375.22H219.383V377.8H216.533V387.37C216.533 387.83 216.633 388.18 216.833 388.42C217.033 388.66 217.363 388.78 217.823 388.78H219.383V390.88C219.183 390.96 218.933 391.03 218.633 391.09C218.353 391.17 218.063 391.23 217.763 391.27C217.463 391.33 217.183 391.36 216.923 391.36ZM222.134 378.52V377.14C222.574 377.06 222.934 376.87 223.214 376.57C223.494 376.25 223.694 375.86 223.814 375.4C223.934 374.94 223.994 374.44 223.994 373.9H222.404V370.42H225.764V373.57C225.764 374.71 225.584 375.63 225.224 376.33C224.864 377.01 224.404 377.52 223.844 377.86C223.304 378.18 222.734 378.4 222.134 378.52ZM233.901 391.36C232.801 391.36 231.831 391.24 230.991 391C230.151 390.76 229.451 390.43 228.891 390.01C228.331 389.59 227.901 389.09 227.601 388.51C227.321 387.91 227.181 387.25 227.181 386.53C227.181 386.43 227.181 386.34 227.181 386.26C227.201 386.18 227.211 386.11 227.211 386.05H230.301C230.301 386.11 230.301 386.17 230.301 386.23C230.301 386.27 230.301 386.32 230.301 386.38C230.301 387 230.471 387.5 230.811 387.88C231.151 388.24 231.601 388.5 232.161 388.66C232.741 388.8 233.371 388.87 234.051 388.87C234.651 388.87 235.201 388.8 235.701 388.66C236.221 388.5 236.641 388.27 236.961 387.97C237.301 387.67 237.471 387.29 237.471 386.83C237.471 386.23 237.261 385.77 236.841 385.45C236.421 385.13 235.871 384.88 235.191 384.7C234.511 384.5 233.801 384.29 233.061 384.07C232.401 383.89 231.741 383.7 231.081 383.5C230.441 383.28 229.861 383 229.341 382.66C228.821 382.32 228.401 381.89 228.081 381.37C227.761 380.85 227.601 380.2 227.601 379.42C227.601 378.68 227.761 378.03 228.081 377.47C228.401 376.91 228.841 376.44 229.401 376.06C229.981 375.68 230.661 375.39 231.441 375.19C232.241 374.99 233.111 374.89 234.051 374.89C235.031 374.89 235.901 375 236.661 375.22C237.421 375.42 238.061 375.71 238.581 376.09C239.121 376.47 239.531 376.93 239.811 377.47C240.091 377.99 240.231 378.55 240.231 379.15C240.231 379.27 240.221 379.4 240.201 379.54C240.201 379.66 240.201 379.74 240.201 379.78H237.141V379.51C237.141 379.11 237.031 378.75 236.811 378.43C236.591 378.11 236.241 377.85 235.761 377.65C235.301 377.45 234.681 377.35 233.901 377.35C233.381 377.35 232.921 377.4 232.521 377.5C232.121 377.58 231.791 377.7 231.531 377.86C231.271 378.02 231.071 378.21 230.931 378.43C230.811 378.65 230.751 378.9 230.751 379.18C230.751 379.64 230.911 380 231.231 380.26C231.571 380.5 232.011 380.71 232.551 380.89C233.091 381.05 233.671 381.23 234.291 381.43C235.011 381.63 235.741 381.84 236.481 382.06C237.221 382.26 237.901 382.52 238.521 382.84C239.161 383.16 239.671 383.6 240.051 384.16C240.451 384.72 240.651 385.47 240.651 386.41C240.651 387.27 240.481 388.02 240.141 388.66C239.801 389.3 239.321 389.82 238.701 390.22C238.101 390.6 237.391 390.88 236.571 391.06C235.751 391.26 234.861 391.36 233.901 391.36ZM255.426 391V373.3H248.616V370.42H265.656V373.3H258.786V391H255.426ZM269.923 391.36C269.423 391.36 268.883 391.3 268.303 391.18C267.723 391.06 267.173 390.84 266.653 390.52C266.153 390.2 265.743 389.76 265.423 389.2C265.103 388.62 264.943 387.87 264.943 386.95C264.943 385.87 265.193 384.98 265.693 384.28C266.193 383.58 266.893 383.03 267.793 382.63C268.693 382.23 269.763 381.95 271.003 381.79C272.263 381.63 273.633 381.55 275.113 381.55V379.99C275.113 379.47 275.023 379.01 274.843 378.61C274.683 378.21 274.373 377.9 273.913 377.68C273.473 377.46 272.833 377.35 271.993 377.35C271.153 377.35 270.493 377.46 270.013 377.68C269.553 377.88 269.223 378.14 269.023 378.46C268.843 378.76 268.753 379.09 268.753 379.45V379.9H265.753C265.733 379.8 265.723 379.7 265.723 379.6C265.723 379.5 265.723 379.38 265.723 379.24C265.723 378.3 265.983 377.51 266.503 376.87C267.043 376.21 267.793 375.71 268.753 375.37C269.713 375.03 270.823 374.86 272.083 374.86C273.443 374.86 274.573 375.06 275.473 375.46C276.393 375.84 277.083 376.39 277.543 377.11C278.003 377.83 278.233 378.7 278.233 379.72V387.73C278.233 388.11 278.323 388.38 278.503 388.54C278.703 388.7 278.933 388.78 279.193 388.78H280.273V390.88C280.033 390.98 279.733 391.08 279.373 391.18C279.013 391.28 278.593 391.33 278.113 391.33C277.573 391.33 277.113 391.23 276.733 391.03C276.373 390.85 276.073 390.59 275.833 390.25C275.613 389.89 275.463 389.49 275.383 389.05H275.203C274.843 389.51 274.403 389.92 273.883 390.28C273.383 390.62 272.803 390.88 272.143 391.06C271.483 391.26 270.743 391.36 269.923 391.36ZM270.793 388.78C271.413 388.78 271.983 388.69 272.503 388.51C273.043 388.31 273.503 388.04 273.883 387.7C274.263 387.34 274.563 386.92 274.783 386.44C275.003 385.94 275.113 385.4 275.113 384.82V383.77C273.733 383.77 272.523 383.85 271.483 384.01C270.443 384.17 269.633 384.47 269.053 384.91C268.473 385.33 268.183 385.92 268.183 386.68C268.183 387.14 268.283 387.53 268.483 387.85C268.683 388.15 268.983 388.38 269.383 388.54C269.783 388.7 270.253 388.78 270.793 388.78ZM282.427 391V369.31H285.547V382.42L291.757 375.22H295.447L290.107 381.34L295.747 391H292.147L288.097 383.62L285.547 386.14V391H282.427ZM303.791 391.36C302.171 391.36 300.811 391.07 299.711 390.49C298.631 389.89 297.811 388.98 297.251 387.76C296.691 386.54 296.411 384.99 296.411 383.11C296.411 381.21 296.691 379.66 297.251 378.46C297.811 377.24 298.641 376.34 299.741 375.76C300.841 375.16 302.211 374.86 303.851 374.86C305.351 374.86 306.601 375.15 307.601 375.73C308.621 376.29 309.391 377.15 309.911 378.31C310.431 379.47 310.691 380.93 310.691 382.69V383.89H299.621C299.661 385.01 299.831 385.95 300.131 386.71C300.431 387.45 300.881 388 301.481 388.36C302.101 388.7 302.881 388.87 303.821 388.87C304.401 388.87 304.921 388.8 305.381 388.66C305.841 388.5 306.231 388.28 306.551 388C306.871 387.7 307.121 387.35 307.301 386.95C307.481 386.53 307.571 386.06 307.571 385.54H310.631C310.631 386.48 310.471 387.31 310.151 388.03C309.831 388.75 309.361 389.36 308.741 389.86C308.141 390.34 307.421 390.71 306.581 390.97C305.741 391.23 304.811 391.36 303.791 391.36ZM299.681 381.61H307.421C307.421 380.83 307.331 380.18 307.151 379.66C306.991 379.12 306.751 378.68 306.431 378.34C306.111 378 305.731 377.76 305.291 377.62C304.851 377.46 304.351 377.38 303.791 377.38C302.951 377.38 302.231 377.53 301.631 377.83C301.051 378.13 300.601 378.6 300.281 379.24C299.961 379.86 299.761 380.65 299.681 381.61ZM324.879 391V382.54L316.869 370.42H320.709L326.589 379.54H326.739L332.559 370.42H336.249L328.239 382.54V391H324.879ZM342.35 391.36C340.71 391.36 339.32 391.07 338.18 390.49C337.06 389.89 336.21 388.98 335.63 387.76C335.07 386.54 334.79 384.99 334.79 383.11C334.79 381.21 335.07 379.66 335.63 378.46C336.21 377.24 337.06 376.34 338.18 375.76C339.32 375.16 340.71 374.86 342.35 374.86C344.03 374.86 345.43 375.16 346.55 375.76C347.67 376.34 348.51 377.24 349.07 378.46C349.65 379.66 349.94 381.21 349.94 383.11C349.94 384.99 349.65 386.54 349.07 387.76C348.51 388.98 347.67 389.89 346.55 390.49C345.43 391.07 344.03 391.36 342.35 391.36ZM342.35 388.78C343.35 388.78 344.17 388.59 344.81 388.21C345.45 387.81 345.92 387.21 346.22 386.41C346.54 385.61 346.7 384.6 346.7 383.38V382.84C346.7 381.62 346.54 380.61 346.22 379.81C345.92 379.01 345.45 378.42 344.81 378.04C344.17 377.64 343.35 377.44 342.35 377.44C341.37 377.44 340.56 377.64 339.92 378.04C339.28 378.42 338.8 379.01 338.48 379.81C338.18 380.61 338.03 381.62 338.03 382.84V383.38C338.03 384.6 338.18 385.61 338.48 386.41C338.8 387.21 339.28 387.81 339.92 388.21C340.56 388.59 341.37 388.78 342.35 388.78ZM358.07 391.36C356.55 391.36 355.32 390.96 354.38 390.16C353.44 389.34 352.97 387.95 352.97 385.99V375.22H356.09V385.51C356.09 386.11 356.16 386.61 356.3 387.01C356.46 387.41 356.68 387.73 356.96 387.97C357.24 388.21 357.57 388.38 357.95 388.48C358.33 388.58 358.75 388.63 359.21 388.63C359.93 388.63 360.58 388.46 361.16 388.12C361.76 387.76 362.24 387.27 362.6 386.65C362.96 386.01 363.14 385.28 363.14 384.46V375.22H366.26V391H363.71L363.44 388.75H363.23C362.85 389.33 362.4 389.81 361.88 390.19C361.36 390.57 360.78 390.86 360.14 391.06C359.52 391.26 358.83 391.36 358.07 391.36ZM376.861 391V370.42H387.781C388.921 370.42 389.921 370.63 390.781 371.05C391.641 371.45 392.311 372.03 392.791 372.79C393.291 373.55 393.541 374.44 393.541 375.46C393.541 376.24 393.391 376.95 393.091 377.59C392.811 378.23 392.411 378.77 391.891 379.21C391.391 379.65 390.821 379.98 390.181 380.2V380.32C390.921 380.48 391.581 380.78 392.161 381.22C392.761 381.64 393.231 382.2 393.571 382.9C393.931 383.58 394.111 384.4 394.111 385.36C394.111 386.66 393.821 387.73 393.241 388.57C392.681 389.41 391.931 390.03 390.991 390.43C390.051 390.81 388.981 391 387.781 391H376.861ZM380.221 388.12H387.511C388.431 388.12 389.181 387.88 389.761 387.4C390.361 386.9 390.661 386.1 390.661 385C390.661 384.34 390.531 383.78 390.271 383.32C390.031 382.84 389.661 382.48 389.161 382.24C388.661 381.98 388.031 381.85 387.271 381.85H380.221V388.12ZM380.221 379.03H387.001C387.641 379.03 388.191 378.91 388.651 378.67C389.111 378.43 389.461 378.09 389.701 377.65C389.961 377.21 390.091 376.72 390.091 376.18C390.091 375.2 389.821 374.48 389.281 374.02C388.761 373.54 388.071 373.3 387.211 373.3H380.221V379.03ZM401.495 391.36C400.995 391.36 400.455 391.3 399.875 391.18C399.295 391.06 398.745 390.84 398.225 390.52C397.725 390.2 397.315 389.76 396.995 389.2C396.675 388.62 396.515 387.87 396.515 386.95C396.515 385.87 396.765 384.98 397.265 384.28C397.765 383.58 398.465 383.03 399.365 382.63C400.265 382.23 401.335 381.95 402.575 381.79C403.835 381.63 405.205 381.55 406.685 381.55V379.99C406.685 379.47 406.595 379.01 406.415 378.61C406.255 378.21 405.945 377.9 405.485 377.68C405.045 377.46 404.405 377.35 403.565 377.35C402.725 377.35 402.065 377.46 401.585 377.68C401.125 377.88 400.795 378.14 400.595 378.46C400.415 378.76 400.325 379.09 400.325 379.45V379.9H397.325C397.305 379.8 397.295 379.7 397.295 379.6C397.295 379.5 397.295 379.38 397.295 379.24C397.295 378.3 397.555 377.51 398.075 376.87C398.615 376.21 399.365 375.71 400.325 375.37C401.285 375.03 402.395 374.86 403.655 374.86C405.015 374.86 406.145 375.06 407.045 375.46C407.965 375.84 408.655 376.39 409.115 377.11C409.575 377.83 409.805 378.7 409.805 379.72V387.73C409.805 388.11 409.895 388.38 410.075 388.54C410.275 388.7 410.505 388.78 410.765 388.78H411.845V390.88C411.605 390.98 411.305 391.08 410.945 391.18C410.585 391.28 410.165 391.33 409.685 391.33C409.145 391.33 408.685 391.23 408.305 391.03C407.945 390.85 407.645 390.59 407.405 390.25C407.185 389.89 407.035 389.49 406.955 389.05H406.775C406.415 389.51 405.975 389.92 405.455 390.28C404.955 390.62 404.375 390.88 403.715 391.06C403.055 391.26 402.315 391.36 401.495 391.36ZM402.365 388.78C402.985 388.78 403.555 388.69 404.075 388.51C404.615 388.31 405.075 388.04 405.455 387.7C405.835 387.34 406.135 386.92 406.355 386.44C406.575 385.94 406.685 385.4 406.685 384.82V383.77C405.305 383.77 404.095 383.85 403.055 384.01C402.015 384.17 401.205 384.47 400.625 384.91C400.045 385.33 399.755 385.92 399.755 386.68C399.755 387.14 399.855 387.53 400.055 387.85C400.255 388.15 400.555 388.38 400.955 388.54C401.355 388.7 401.825 388.78 402.365 388.78ZM420.269 391.36C418.689 391.36 417.369 391.07 416.309 390.49C415.249 389.89 414.449 388.98 413.909 387.76C413.389 386.54 413.129 384.99 413.129 383.11C413.129 381.23 413.399 379.69 413.939 378.49C414.479 377.27 415.279 376.36 416.339 375.76C417.419 375.16 418.739 374.86 420.299 374.86C421.379 374.86 422.319 375 423.119 375.28C423.919 375.54 424.599 375.94 425.159 376.48C425.719 377 426.129 377.65 426.389 378.43C426.669 379.21 426.809 380.1 426.809 381.1H423.659C423.659 380.26 423.539 379.57 423.299 379.03C423.059 378.49 422.689 378.09 422.189 377.83C421.689 377.55 421.039 377.41 420.239 377.41C419.399 377.41 418.689 377.61 418.109 378.01C417.529 378.39 417.089 378.98 416.789 379.78C416.489 380.56 416.339 381.59 416.339 382.87V383.38C416.339 384.6 416.479 385.62 416.759 386.44C417.059 387.24 417.499 387.84 418.079 388.24C418.679 388.62 419.439 388.81 420.359 388.81C421.159 388.81 421.799 388.67 422.279 388.39C422.779 388.09 423.149 387.67 423.389 387.13C423.649 386.57 423.779 385.9 423.779 385.12H426.809C426.809 386.06 426.669 386.91 426.389 387.67C426.129 388.43 425.719 389.09 425.159 389.65C424.619 390.19 423.939 390.61 423.119 390.91C422.299 391.21 421.349 391.36 420.269 391.36ZM429.966 391V369.31H433.086V382.42L439.296 375.22H442.986L437.646 381.34L443.286 391H439.686L435.636 383.62L433.086 386.14V391H429.966ZM456.461 391V373.3H449.651V370.42H466.691V373.3H459.821V391H456.461ZM473.688 391.36C472.048 391.36 470.658 391.07 469.518 390.49C468.398 389.89 467.548 388.98 466.968 387.76C466.408 386.54 466.128 384.99 466.128 383.11C466.128 381.21 466.408 379.66 466.968 378.46C467.548 377.24 468.398 376.34 469.518 375.76C470.658 375.16 472.048 374.86 473.688 374.86C475.368 374.86 476.768 375.16 477.888 375.76C479.008 376.34 479.848 377.24 480.408 378.46C480.988 379.66 481.278 381.21 481.278 383.11C481.278 384.99 480.988 386.54 480.408 387.76C479.848 388.98 479.008 389.89 477.888 390.49C476.768 391.07 475.368 391.36 473.688 391.36ZM473.688 388.78C474.688 388.78 475.508 388.59 476.148 388.21C476.788 387.81 477.258 387.21 477.558 386.41C477.878 385.61 478.038 384.6 478.038 383.38V382.84C478.038 381.62 477.878 380.61 477.558 379.81C477.258 379.01 476.788 378.42 476.148 378.04C475.508 377.64 474.688 377.44 473.688 377.44C472.708 377.44 471.898 377.64 471.258 378.04C470.618 378.42 470.138 379.01 469.818 379.81C469.518 380.61 469.368 381.62 469.368 382.84V383.38C469.368 384.6 469.518 385.61 469.818 386.41C470.138 387.21 470.618 387.81 471.258 388.21C471.898 388.59 472.708 388.78 473.688 388.78ZM496.071 391V373.3H489.261V370.42H506.301V373.3H499.431V391H496.071ZM508.98 391V369.31H512.1V377.11H512.31C512.69 376.63 513.12 376.23 513.6 375.91C514.08 375.57 514.62 375.31 515.22 375.13C515.82 374.95 516.48 374.86 517.2 374.86C518.2 374.86 519.08 375.04 519.84 375.4C520.6 375.74 521.19 376.3 521.61 377.08C522.05 377.86 522.27 378.91 522.27 380.23V391H519.15V380.71C519.15 380.11 519.07 379.61 518.91 379.21C518.77 378.81 518.56 378.49 518.28 378.25C518 378.01 517.67 377.84 517.29 377.74C516.91 377.64 516.49 377.59 516.03 377.59C515.31 377.59 514.65 377.76 514.05 378.1C513.47 378.44 513 378.92 512.64 379.54C512.28 380.16 512.1 380.9 512.1 381.76V391H508.98ZM532.717 391.36C531.097 391.36 529.737 391.07 528.637 390.49C527.557 389.89 526.737 388.98 526.177 387.76C525.617 386.54 525.337 384.99 525.337 383.11C525.337 381.21 525.617 379.66 526.177 378.46C526.737 377.24 527.567 376.34 528.667 375.76C529.767 375.16 531.137 374.86 532.777 374.86C534.277 374.86 535.527 375.15 536.527 375.73C537.547 376.29 538.317 377.15 538.837 378.31C539.357 379.47 539.617 380.93 539.617 382.69V383.89H528.547C528.587 385.01 528.757 385.95 529.057 386.71C529.357 387.45 529.807 388 530.407 388.36C531.027 388.7 531.807 388.87 532.747 388.87C533.327 388.87 533.847 388.8 534.307 388.66C534.767 388.5 535.157 388.28 535.477 388C535.797 387.7 536.047 387.35 536.227 386.95C536.407 386.53 536.497 386.06 536.497 385.54H539.557C539.557 386.48 539.397 387.31 539.077 388.03C538.757 388.75 538.287 389.36 537.667 389.86C537.067 390.34 536.347 390.71 535.507 390.97C534.667 391.23 533.737 391.36 532.717 391.36ZM528.607 381.61H536.347C536.347 380.83 536.257 380.18 536.077 379.66C535.917 379.12 535.677 378.68 535.357 378.34C535.037 378 534.657 377.76 534.217 377.62C533.777 377.46 533.277 377.38 532.717 377.38C531.877 377.38 531.157 377.53 530.557 377.83C529.977 378.13 529.527 378.6 529.207 379.24C528.887 379.86 528.687 380.65 528.607 381.61ZM558.691 391.36C556.571 391.36 554.731 390.97 553.171 390.19C551.631 389.41 550.441 388.23 549.601 386.65C548.781 385.07 548.371 383.09 548.371 380.71C548.371 378.31 548.781 376.33 549.601 374.77C550.441 373.19 551.631 372.01 553.171 371.23C554.731 370.45 556.571 370.06 558.691 370.06C560.851 370.06 562.701 370.45 564.241 371.23C565.781 372.01 566.961 373.19 567.781 374.77C568.621 376.33 569.041 378.31 569.041 380.71C569.041 383.09 568.621 385.07 567.781 386.65C566.961 388.23 565.781 389.41 564.241 390.19C562.701 390.97 560.851 391.36 558.691 391.36ZM558.691 388.51C559.791 388.51 560.761 388.36 561.601 388.06C562.461 387.76 563.181 387.3 563.761 386.68C564.361 386.06 564.811 385.28 565.111 384.34C565.431 383.4 565.591 382.31 565.591 381.07V380.41C565.591 379.13 565.431 378.02 565.111 377.08C564.811 376.14 564.361 375.36 563.761 374.74C563.181 374.12 562.461 373.66 561.601 373.36C560.761 373.06 559.791 372.91 558.691 372.91C557.611 372.91 556.641 373.06 555.781 373.36C554.941 373.66 554.221 374.12 553.621 374.74C553.041 375.36 552.601 376.14 552.301 377.08C552.001 378.02 551.851 379.13 551.851 380.41V381.07C551.851 382.31 552.001 383.4 552.301 384.34C552.601 385.28 553.041 386.06 553.621 386.68C554.221 387.3 554.941 387.76 555.781 388.06C556.641 388.36 557.611 388.51 558.691 388.51ZM576.425 391.36C575.525 391.36 574.815 391.19 574.295 390.85C573.795 390.49 573.435 390.04 573.215 389.5C573.015 388.94 572.915 388.35 572.915 387.73V377.8H570.935V375.22H572.975L573.545 370.81H576.035V375.22H578.885V377.8H576.035V387.37C576.035 387.83 576.135 388.18 576.335 388.42C576.535 388.66 576.865 388.78 577.325 388.78H578.885V390.88C578.685 390.96 578.435 391.03 578.135 391.09C577.855 391.17 577.565 391.23 577.265 391.27C576.965 391.33 576.685 391.36 576.425 391.36ZM581.636 391V369.31H584.756V377.11H584.966C585.346 376.63 585.776 376.23 586.256 375.91C586.736 375.57 587.276 375.31 587.876 375.13C588.476 374.95 589.136 374.86 589.856 374.86C590.856 374.86 591.736 375.04 592.496 375.4C593.256 375.74 593.846 376.3 594.266 377.08C594.706 377.86 594.926 378.91 594.926 380.23V391H591.806V380.71C591.806 380.11 591.726 379.61 591.566 379.21C591.426 378.81 591.216 378.49 590.936 378.25C590.656 378.01 590.326 377.84 589.946 377.74C589.566 377.64 589.146 377.59 588.686 377.59C587.966 377.59 587.306 377.76 586.706 378.1C586.126 378.44 585.656 378.92 585.296 379.54C584.936 380.16 584.756 380.9 584.756 381.76V391H581.636ZM605.373 391.36C603.753 391.36 602.393 391.07 601.293 390.49C600.213 389.89 599.393 388.98 598.833 387.76C598.273 386.54 597.993 384.99 597.993 383.11C597.993 381.21 598.273 379.66 598.833 378.46C599.393 377.24 600.223 376.34 601.323 375.76C602.423 375.16 603.793 374.86 605.433 374.86C606.933 374.86 608.183 375.15 609.183 375.73C610.203 376.29 610.973 377.15 611.493 378.31C612.013 379.47 612.273 380.93 612.273 382.69V383.89H601.203C601.243 385.01 601.413 385.95 601.713 386.71C602.013 387.45 602.463 388 603.063 388.36C603.683 388.7 604.463 388.87 605.403 388.87C605.983 388.87 606.503 388.8 606.963 388.66C607.423 388.5 607.813 388.28 608.133 388C608.453 387.7 608.703 387.35 608.883 386.95C609.063 386.53 609.153 386.06 609.153 385.54H612.213C612.213 386.48 612.053 387.31 611.733 388.03C611.413 388.75 610.943 389.36 610.323 389.86C609.723 390.34 609.003 390.71 608.163 390.97C607.323 391.23 606.393 391.36 605.373 391.36ZM601.263 381.61H609.003C609.003 380.83 608.913 380.18 608.733 379.66C608.573 379.12 608.333 378.68 608.013 378.34C607.693 378 607.313 377.76 606.873 377.62C606.433 377.46 605.933 377.38 605.373 377.38C604.533 377.38 603.813 377.53 603.213 377.83C602.633 378.13 602.183 378.6 601.863 379.24C601.543 379.86 601.343 380.65 601.263 381.61ZM615.445 391V375.22H618.025L618.295 377.77H618.475C618.655 377.27 618.885 376.8 619.165 376.36C619.465 375.92 619.845 375.56 620.305 375.28C620.785 375 621.365 374.86 622.045 374.86C622.365 374.86 622.645 374.89 622.885 374.95C623.145 375.01 623.345 375.06 623.485 375.1V378.04H622.435C621.795 378.04 621.225 378.14 620.725 378.34C620.245 378.54 619.835 378.84 619.495 379.24C619.175 379.62 618.935 380.09 618.775 380.65C618.635 381.21 618.565 381.84 618.565 382.54V391H615.445ZM631.636 391.36C630.536 391.36 629.566 391.24 628.726 391C627.886 390.76 627.186 390.43 626.626 390.01C626.066 389.59 625.636 389.09 625.336 388.51C625.056 387.91 624.916 387.25 624.916 386.53C624.916 386.43 624.916 386.34 624.916 386.26C624.936 386.18 624.946 386.11 624.946 386.05H628.036C628.036 386.11 628.036 386.17 628.036 386.23C628.036 386.27 628.036 386.32 628.036 386.38C628.036 387 628.206 387.5 628.546 387.88C628.886 388.24 629.336 388.5 629.896 388.66C630.476 388.8 631.106 388.87 631.786 388.87C632.386 388.87 632.936 388.8 633.436 388.66C633.956 388.5 634.376 388.27 634.696 387.97C635.036 387.67 635.206 387.29 635.206 386.83C635.206 386.23 634.996 385.77 634.576 385.45C634.156 385.13 633.606 384.88 632.926 384.7C632.246 384.5 631.536 384.29 630.796 384.07C630.136 383.89 629.476 383.7 628.816 383.5C628.176 383.28 627.596 383 627.076 382.66C626.556 382.32 626.136 381.89 625.816 381.37C625.496 380.85 625.336 380.2 625.336 379.42C625.336 378.68 625.496 378.03 625.816 377.47C626.136 376.91 626.576 376.44 627.136 376.06C627.716 375.68 628.396 375.39 629.176 375.19C629.976 374.99 630.846 374.89 631.786 374.89C632.766 374.89 633.636 375 634.396 375.22C635.156 375.42 635.796 375.71 636.316 376.09C636.856 376.47 637.266 376.93 637.546 377.47C637.826 377.99 637.966 378.55 637.966 379.15C637.966 379.27 637.956 379.4 637.936 379.54C637.936 379.66 637.936 379.74 637.936 379.78H634.876V379.51C634.876 379.11 634.766 378.75 634.546 378.43C634.326 378.11 633.976 377.85 633.496 377.65C633.036 377.45 632.416 377.35 631.636 377.35C631.116 377.35 630.656 377.4 630.256 377.5C629.856 377.58 629.526 377.7 629.266 377.86C629.006 378.02 628.806 378.21 628.666 378.43C628.546 378.65 628.486 378.9 628.486 379.18C628.486 379.64 628.646 380 628.966 380.26C629.306 380.5 629.746 380.71 630.286 380.89C630.826 381.05 631.406 381.23 632.026 381.43C632.746 381.63 633.476 381.84 634.216 382.06C634.956 382.26 635.636 382.52 636.256 382.84C636.896 383.16 637.406 383.6 637.786 384.16C638.186 384.72 638.386 385.47 638.386 386.41C638.386 387.27 638.216 388.02 637.876 388.66C637.536 389.3 637.056 389.82 636.436 390.22C635.836 390.6 635.126 390.88 634.306 391.06C633.486 391.26 632.596 391.36 631.636 391.36ZM642.178 391V387.52H645.508V391H642.178Z" fill="#370F8C"/>
</svg>
