<svg width="603" height="398" viewBox="0 0 603 398" fill="none" xmlns="http://www.w3.org/2000/svg">
<path d="M161.971 216.928C150.259 216.928 139.93 214.732 130.983 210.34C122.199 205.948 115.367 199.685 110.487 191.552C105.607 183.256 103.167 173.415 103.167 162.028H129.275C129.275 169.023 130.658 175.123 133.423 180.328C136.188 185.371 140.011 189.275 144.891 192.04C149.934 194.643 155.627 195.944 161.971 195.944C168.152 195.944 173.602 194.643 178.319 192.04C183.199 189.275 186.94 185.208 189.543 179.84C192.308 174.309 193.691 167.477 193.691 159.344C193.691 151.861 192.39 145.68 189.787 140.8C187.347 135.757 183.768 132.097 179.051 129.82C174.496 127.38 169.21 126.16 163.191 126.16C158.799 126.16 154.651 126.892 150.747 128.356C146.843 129.657 143.427 131.528 140.499 133.968C137.571 136.408 135.05 139.336 132.935 142.752L109.023 139.336L115.855 46.616H211.259V70.04H138.059L134.643 116.888C137.246 114.936 140.092 113.065 143.183 111.276C146.436 109.487 150.178 108.023 154.407 106.884C158.799 105.745 163.76 105.176 169.291 105.176C178.726 105.176 187.266 107.128 194.911 111.032C202.556 114.936 208.656 120.873 213.211 128.844C217.766 136.652 220.043 146.737 220.043 159.1C220.043 171.3 217.684 181.711 212.967 190.332C208.25 198.953 201.58 205.541 192.959 210.096C184.338 214.651 174.008 216.928 161.971 216.928Z" fill="#370F8C"/>
<path d="M301.354 216.928C292.408 216.928 284.274 215.627 276.954 213.024C269.797 210.259 263.697 205.623 258.654 199.116C253.774 192.609 249.952 183.825 247.186 172.764C244.584 161.54 243.282 147.388 243.282 130.308C243.282 113.228 244.584 99.1573 247.186 88.096C249.952 76.872 253.774 68.0067 258.654 61.5C263.697 54.9933 269.797 50.4387 276.954 47.836C284.274 45.0707 292.408 43.688 301.354 43.688C310.464 43.688 318.597 45.0707 325.754 47.836C332.912 50.4387 338.93 54.9933 343.81 61.5C348.853 68.0067 352.676 76.872 355.278 88.096C358.044 99.1573 359.426 113.228 359.426 130.308C359.426 147.388 358.044 161.54 355.278 172.764C352.676 183.825 348.853 192.609 343.81 199.116C338.93 205.623 332.912 210.259 325.754 213.024C318.597 215.627 310.464 216.928 301.354 216.928ZM301.354 195.944C309.976 195.944 316.482 193.748 320.874 189.356C325.429 184.801 328.601 178.132 330.39 169.348C332.18 160.564 333.074 149.665 333.074 136.652V124.696C333.074 111.357 332.18 100.296 330.39 91.512C328.601 82.5653 325.429 75.896 320.874 71.504C316.482 66.9493 309.976 64.672 301.354 64.672C292.896 64.672 286.389 66.9493 281.834 71.504C277.28 75.896 274.108 82.484 272.318 91.268C270.529 100.052 269.634 111.032 269.634 124.208V136.164C269.634 149.177 270.529 160.157 272.318 169.104C274.108 178.051 277.28 184.801 281.834 189.356C286.389 193.748 292.896 195.944 301.354 195.944ZM441.464 216.928C432.517 216.928 424.384 215.627 417.064 213.024C409.906 210.259 403.806 205.623 398.764 199.116C393.884 192.609 390.061 183.825 387.296 172.764C384.693 161.54 383.392 147.388 383.392 130.308C383.392 113.228 384.693 99.1573 387.296 88.096C390.061 76.872 393.884 68.0067 398.764 61.5C403.806 54.9933 409.906 50.4387 417.064 47.836C424.384 45.0707 432.517 43.688 441.464 43.688C450.573 43.688 458.706 45.0707 465.864 47.836C473.021 50.4387 479.04 54.9933 483.92 61.5C488.962 68.0067 492.785 76.872 495.388 88.096C498.153 99.1573 499.536 113.228 499.536 130.308C499.536 147.388 498.153 161.54 495.388 172.764C492.785 183.825 488.962 192.609 483.92 199.116C479.04 205.623 473.021 210.259 465.864 213.024C458.706 215.627 450.573 216.928 441.464 216.928ZM441.464 195.944C450.085 195.944 456.592 193.748 460.984 189.356C465.538 184.801 468.71 178.132 470.5 169.348C472.289 160.564 473.184 149.665 473.184 136.652V124.696C473.184 111.357 472.289 100.296 470.5 91.512C468.71 82.5653 465.538 75.896 460.984 71.504C456.592 66.9493 450.085 64.672 441.464 64.672C433.005 64.672 426.498 66.9493 421.944 71.504C417.389 75.896 414.217 82.484 412.428 91.268C410.638 100.052 409.744 111.032 409.744 124.208V136.164C409.744 149.177 410.638 160.157 412.428 169.104C414.217 178.051 417.389 184.801 421.944 189.356C426.498 193.748 433.005 195.944 441.464 195.944Z" fill="#20C997"/>
<path d="M15.7152 314.48C12.8885 314.48 10.4352 313.96 8.35516 312.92C6.30182 311.88 4.71516 310.307 3.59516 308.2C2.50182 306.093 1.95516 303.453 1.95516 300.28C1.95516 297.08 2.50182 294.44 3.59516 292.36C4.71516 290.253 6.30182 288.68 8.35516 287.64C10.4352 286.6 12.8885 286.08 15.7152 286.08C18.5952 286.08 21.0618 286.6 23.1152 287.64C25.1685 288.68 26.7418 290.253 27.8352 292.36C28.9552 294.44 29.5152 297.08 29.5152 300.28C29.5152 303.453 28.9552 306.093 27.8352 308.2C26.7418 310.307 25.1685 311.88 23.1152 312.92C21.0618 313.96 18.5952 314.48 15.7152 314.48ZM15.7152 310.68C17.1818 310.68 18.4752 310.48 19.5952 310.08C20.7418 309.68 21.7018 309.067 22.4752 308.24C23.2752 307.413 23.8752 306.373 24.2752 305.12C24.7018 303.867 24.9152 302.413 24.9152 300.76V299.88C24.9152 298.173 24.7018 296.693 24.2752 295.44C23.8752 294.187 23.2752 293.147 22.4752 292.32C21.7018 291.493 20.7418 290.88 19.5952 290.48C18.4752 290.08 17.1818 289.88 15.7152 289.88C14.2752 289.88 12.9818 290.08 11.8352 290.48C10.7152 290.88 9.75516 291.493 8.95516 292.32C8.18182 293.147 7.59516 294.187 7.19516 295.44C6.79516 296.693 6.59516 298.173 6.59516 299.88V300.76C6.59516 302.413 6.79516 303.867 7.19516 305.12C7.59516 306.373 8.18182 307.413 8.95516 308.24C9.75516 309.067 10.7152 309.68 11.8352 310.08C12.9818 310.48 14.2752 310.68 15.7152 310.68ZM34.1214 314V285.08H38.2814V295.48H38.5614C39.0681 294.84 39.6414 294.307 40.2814 293.88C40.9214 293.427 41.6414 293.08 42.4414 292.84C43.2414 292.6 44.1214 292.48 45.0814 292.48C46.4147 292.48 47.5881 292.72 48.6014 293.2C49.6147 293.653 50.4014 294.4 50.9614 295.44C51.5481 296.48 51.8414 297.88 51.8414 299.64V314H47.6814V300.28C47.6814 299.48 47.5747 298.813 47.3614 298.28C47.1747 297.747 46.8947 297.32 46.5214 297C46.1481 296.68 45.7081 296.453 45.2014 296.32C44.6947 296.187 44.1347 296.12 43.5214 296.12C42.5614 296.12 41.6814 296.347 40.8814 296.8C40.1081 297.253 39.4814 297.893 39.0014 298.72C38.5214 299.547 38.2814 300.533 38.2814 301.68V314H34.1214ZM75.9742 314.48C74.4809 314.48 73.0409 314.32 71.6542 314C70.2676 313.707 69.0409 313.227 67.9742 312.56C66.9076 311.867 66.0676 311 65.4542 309.96C64.8409 308.893 64.5342 307.627 64.5342 306.16C64.5342 306 64.5342 305.853 64.5342 305.72C64.5609 305.56 64.5742 305.427 64.5742 305.32H69.0542C69.0542 305.4 69.0409 305.52 69.0142 305.68C69.0142 305.84 69.0142 305.973 69.0142 306.08C69.0142 307.067 69.3076 307.907 69.8942 308.6C70.4809 309.293 71.2942 309.813 72.3342 310.16C73.4009 310.507 74.6142 310.68 75.9742 310.68C76.7209 310.68 77.4409 310.64 78.1342 310.56C78.8276 310.453 79.4542 310.307 80.0142 310.12C80.6009 309.907 81.1076 309.653 81.5342 309.36C81.9609 309.04 82.2942 308.667 82.5342 308.24C82.7742 307.813 82.8942 307.32 82.8942 306.76C82.8942 305.907 82.6409 305.2 82.1342 304.64C81.6542 304.08 80.9876 303.613 80.1342 303.24C79.3076 302.867 78.3609 302.533 77.2942 302.24C76.2542 301.947 75.1742 301.653 74.0542 301.36C72.9342 301.067 71.8409 300.72 70.7742 300.32C69.7342 299.92 68.7876 299.44 67.9342 298.88C67.1076 298.293 66.4409 297.573 65.9342 296.72C65.4542 295.84 65.2142 294.773 65.2142 293.52C65.2142 292.32 65.4676 291.253 65.9742 290.32C66.4809 289.387 67.2142 288.613 68.1742 288C69.1342 287.36 70.2809 286.88 71.6142 286.56C72.9476 286.24 74.4542 286.08 76.1342 286.08C77.5742 286.08 78.9342 286.24 80.2142 286.56C81.4942 286.853 82.6142 287.32 83.5742 287.96C84.5342 288.6 85.2809 289.413 85.8142 290.4C86.3742 291.387 86.6542 292.56 86.6542 293.92V294.4H82.2142V293.88C82.2142 293.027 81.9609 292.307 81.4542 291.72C80.9476 291.133 80.2409 290.68 79.3342 290.36C78.4276 290.04 77.3742 289.88 76.1742 289.88C74.7609 289.88 73.5742 290.027 72.6142 290.32C71.6542 290.587 70.9209 290.973 70.4142 291.48C69.9342 291.96 69.6942 292.547 69.6942 293.24C69.6942 294.013 69.9476 294.653 70.4542 295.16C70.9609 295.64 71.6276 296.053 72.4542 296.4C73.3076 296.747 74.2542 297.067 75.2942 297.36C76.3609 297.627 77.4409 297.92 78.5342 298.24C79.6542 298.533 80.7342 298.88 81.7742 299.28C82.8409 299.68 83.7876 300.173 84.6142 300.76C85.4676 301.347 86.1476 302.08 86.6542 302.96C87.1609 303.813 87.4142 304.867 87.4142 306.12C87.4142 308.093 86.9209 309.707 85.9342 310.96C84.9476 312.187 83.5876 313.08 81.8542 313.64C80.1476 314.2 78.1876 314.48 75.9742 314.48ZM92.0511 314V292.96H95.4911L95.8511 295.96H96.1311C96.6378 295.187 97.2378 294.547 97.9311 294.04C98.6244 293.533 99.3844 293.147 100.211 292.88C101.064 292.613 101.998 292.48 103.011 292.48C104.344 292.48 105.518 292.72 106.531 293.2C107.544 293.653 108.331 294.4 108.891 295.44C109.478 296.48 109.771 297.88 109.771 299.64V314H105.611V300.28C105.611 299.48 105.504 298.813 105.291 298.28C105.104 297.747 104.824 297.32 104.451 297C104.078 296.68 103.638 296.453 103.131 296.32C102.624 296.187 102.064 296.12 101.451 296.12C100.491 296.12 99.6111 296.36 98.8111 296.84C98.0378 297.293 97.4111 297.933 96.9311 298.76C96.4511 299.587 96.2111 300.56 96.2111 301.68V314H92.0511ZM120.301 314.48C119.634 314.48 118.914 314.4 118.141 314.24C117.367 314.08 116.634 313.787 115.941 313.36C115.274 312.933 114.727 312.347 114.301 311.6C113.874 310.827 113.661 309.827 113.661 308.6C113.661 307.16 113.994 305.973 114.661 305.04C115.327 304.107 116.261 303.373 117.461 302.84C118.661 302.307 120.087 301.933 121.741 301.72C123.421 301.507 125.247 301.4 127.221 301.4V299.32C127.221 298.627 127.101 298.013 126.861 297.48C126.647 296.947 126.234 296.533 125.621 296.24C125.034 295.947 124.181 295.8 123.061 295.8C121.941 295.8 121.061 295.947 120.421 296.24C119.807 296.507 119.367 296.853 119.101 297.28C118.861 297.68 118.741 298.12 118.741 298.6V299.2H114.741C114.714 299.067 114.701 298.933 114.701 298.8C114.701 298.667 114.701 298.507 114.701 298.32C114.701 297.067 115.047 296.013 115.741 295.16C116.461 294.28 117.461 293.613 118.741 293.16C120.021 292.707 121.501 292.48 123.181 292.48C124.994 292.48 126.501 292.747 127.701 293.28C128.927 293.787 129.847 294.52 130.461 295.48C131.074 296.44 131.381 297.6 131.381 298.96V309.64C131.381 310.147 131.501 310.507 131.741 310.72C132.007 310.933 132.314 311.04 132.661 311.04H134.101V313.84C133.781 313.973 133.381 314.107 132.901 314.24C132.421 314.373 131.861 314.44 131.221 314.44C130.501 314.44 129.887 314.307 129.381 314.04C128.901 313.8 128.501 313.453 128.181 313C127.887 312.52 127.687 311.987 127.581 311.4H127.341C126.861 312.013 126.274 312.56 125.581 313.04C124.914 313.493 124.141 313.84 123.261 314.08C122.381 314.347 121.394 314.48 120.301 314.48ZM121.461 311.04C122.287 311.04 123.047 310.92 123.741 310.68C124.461 310.413 125.074 310.053 125.581 309.6C126.087 309.12 126.487 308.56 126.781 307.92C127.074 307.253 127.221 306.533 127.221 305.76V304.36C125.381 304.36 123.767 304.467 122.381 304.68C120.994 304.893 119.914 305.293 119.141 305.88C118.367 306.44 117.981 307.227 117.981 308.24C117.981 308.853 118.114 309.373 118.381 309.8C118.647 310.2 119.047 310.507 119.581 310.72C120.114 310.933 120.741 311.04 121.461 311.04ZM136.973 320.92V292.96H140.373L140.733 295.84H141.013C141.733 294.72 142.653 293.88 143.773 293.32C144.893 292.76 146.146 292.48 147.533 292.48C149.266 292.48 150.746 292.867 151.973 293.64C153.226 294.413 154.186 295.613 154.853 297.24C155.52 298.867 155.853 300.973 155.853 303.56C155.853 306.067 155.506 308.133 154.813 309.76C154.146 311.36 153.2 312.547 151.973 313.32C150.746 314.093 149.333 314.48 147.733 314.48C146.8 314.48 145.933 314.373 145.133 314.16C144.333 313.947 143.613 313.613 142.973 313.16C142.36 312.707 141.826 312.133 141.373 311.44H141.133V320.92H136.973ZM146.293 310.88C147.546 310.88 148.56 310.64 149.333 310.16C150.106 309.653 150.666 308.88 151.013 307.84C151.386 306.8 151.573 305.48 151.573 303.88V303.16C151.573 301.48 151.386 300.12 151.013 299.08C150.64 298.04 150.066 297.28 149.293 296.8C148.546 296.32 147.573 296.08 146.373 296.08C145.146 296.08 144.146 296.36 143.373 296.92C142.6 297.453 142.026 298.253 141.653 299.32C141.306 300.387 141.133 301.68 141.133 303.2V303.76C141.133 305.013 141.253 306.093 141.493 307C141.733 307.907 142.08 308.653 142.533 309.24C142.986 309.8 143.533 310.213 144.173 310.48C144.813 310.747 145.52 310.88 146.293 310.88ZM160.617 320.16V318.36C161.204 318.253 161.67 317.987 162.017 317.56C162.39 317.16 162.657 316.653 162.817 316.04C163.004 315.427 163.097 314.747 163.097 314H160.977V309.36H165.417V313.56C165.417 315.107 165.177 316.333 164.697 317.24C164.244 318.147 163.644 318.813 162.897 319.24C162.177 319.693 161.417 320 160.617 320.16ZM190.584 314.48C189.09 314.48 187.65 314.32 186.264 314C184.877 313.707 183.65 313.227 182.584 312.56C181.517 311.867 180.677 311 180.064 309.96C179.45 308.893 179.144 307.627 179.144 306.16C179.144 306 179.144 305.853 179.144 305.72C179.17 305.56 179.184 305.427 179.184 305.32H183.664C183.664 305.4 183.65 305.52 183.624 305.68C183.624 305.84 183.624 305.973 183.624 306.08C183.624 307.067 183.917 307.907 184.504 308.6C185.09 309.293 185.904 309.813 186.944 310.16C188.01 310.507 189.224 310.68 190.584 310.68C191.33 310.68 192.05 310.64 192.744 310.56C193.437 310.453 194.064 310.307 194.624 310.12C195.21 309.907 195.717 309.653 196.144 309.36C196.57 309.04 196.904 308.667 197.144 308.24C197.384 307.813 197.504 307.32 197.504 306.76C197.504 305.907 197.25 305.2 196.744 304.64C196.264 304.08 195.597 303.613 194.744 303.24C193.917 302.867 192.97 302.533 191.904 302.24C190.864 301.947 189.784 301.653 188.664 301.36C187.544 301.067 186.45 300.72 185.384 300.32C184.344 299.92 183.397 299.44 182.544 298.88C181.717 298.293 181.05 297.573 180.544 296.72C180.064 295.84 179.824 294.773 179.824 293.52C179.824 292.32 180.077 291.253 180.584 290.32C181.09 289.387 181.824 288.613 182.784 288C183.744 287.36 184.89 286.88 186.224 286.56C187.557 286.24 189.064 286.08 190.744 286.08C192.184 286.08 193.544 286.24 194.824 286.56C196.104 286.853 197.224 287.32 198.184 287.96C199.144 288.6 199.89 289.413 200.424 290.4C200.984 291.387 201.264 292.56 201.264 293.92V294.4H196.824V293.88C196.824 293.027 196.57 292.307 196.064 291.72C195.557 291.133 194.85 290.68 193.944 290.36C193.037 290.04 191.984 289.88 190.784 289.88C189.37 289.88 188.184 290.027 187.224 290.32C186.264 290.587 185.53 290.973 185.024 291.48C184.544 291.96 184.304 292.547 184.304 293.24C184.304 294.013 184.557 294.653 185.064 295.16C185.57 295.64 186.237 296.053 187.064 296.4C187.917 296.747 188.864 297.067 189.904 297.36C190.97 297.627 192.05 297.92 193.144 298.24C194.264 298.533 195.344 298.88 196.384 299.28C197.45 299.68 198.397 300.173 199.224 300.76C200.077 301.347 200.757 302.08 201.264 302.96C201.77 303.813 202.024 304.867 202.024 306.12C202.024 308.093 201.53 309.707 200.544 310.96C199.557 312.187 198.197 313.08 196.464 313.64C194.757 314.2 192.797 314.48 190.584 314.48ZM215.62 314.48C213.434 314.48 211.58 314.093 210.06 313.32C208.567 312.52 207.434 311.307 206.66 309.68C205.914 308.053 205.54 305.987 205.54 303.48C205.54 300.947 205.914 298.88 206.66 297.28C207.434 295.653 208.567 294.453 210.06 293.68C211.58 292.88 213.434 292.48 215.62 292.48C217.86 292.48 219.727 292.88 221.22 293.68C222.714 294.453 223.834 295.653 224.58 297.28C225.354 298.88 225.74 300.947 225.74 303.48C225.74 305.987 225.354 308.053 224.58 309.68C223.834 311.307 222.714 312.52 221.22 313.32C219.727 314.093 217.86 314.48 215.62 314.48ZM215.62 311.04C216.954 311.04 218.047 310.787 218.9 310.28C219.754 309.747 220.38 308.947 220.78 307.88C221.207 306.813 221.42 305.467 221.42 303.84V303.12C221.42 301.493 221.207 300.147 220.78 299.08C220.38 298.013 219.754 297.227 218.9 296.72C218.047 296.187 216.954 295.92 215.62 295.92C214.314 295.92 213.234 296.187 212.38 296.72C211.527 297.227 210.887 298.013 210.46 299.08C210.06 300.147 209.86 301.493 209.86 303.12V303.84C209.86 305.467 210.06 306.813 210.46 307.88C210.887 308.947 211.527 309.747 212.38 310.28C213.234 310.787 214.314 311.04 215.62 311.04ZM229.981 314V292.96H233.421L233.781 295.96H234.061C234.541 295.187 235.087 294.547 235.701 294.04C236.341 293.533 237.047 293.147 237.821 292.88C238.621 292.613 239.474 292.48 240.381 292.48C241.687 292.48 242.821 292.747 243.781 293.28C244.767 293.813 245.514 294.707 246.021 295.96H246.301C246.781 295.213 247.341 294.587 247.981 294.08C248.621 293.547 249.341 293.147 250.141 292.88C250.967 292.613 251.847 292.48 252.781 292.48C254.034 292.48 255.141 292.707 256.101 293.16C257.061 293.587 257.821 294.32 258.381 295.36C258.941 296.373 259.221 297.733 259.221 299.44V314H255.061V300.2C255.061 299.4 254.967 298.747 254.781 298.24C254.594 297.707 254.341 297.293 254.021 297C253.701 296.68 253.314 296.453 252.861 296.32C252.407 296.187 251.914 296.12 251.381 296.12C250.501 296.12 249.714 296.36 249.021 296.84C248.327 297.293 247.767 297.933 247.341 298.76C246.914 299.587 246.701 300.56 246.701 301.68V314H242.541V300.2C242.541 299.4 242.447 298.747 242.261 298.24C242.074 297.707 241.821 297.293 241.501 297C241.181 296.68 240.794 296.453 240.341 296.32C239.887 296.187 239.407 296.12 238.901 296.12C238.021 296.12 237.221 296.36 236.501 296.84C235.781 297.293 235.207 297.933 234.781 298.76C234.354 299.587 234.141 300.56 234.141 301.68V314H229.981ZM273.115 314.48C270.955 314.48 269.142 314.093 267.675 313.32C266.235 312.52 265.142 311.307 264.395 309.68C263.648 308.053 263.275 305.987 263.275 303.48C263.275 300.947 263.648 298.88 264.395 297.28C265.142 295.653 266.248 294.453 267.715 293.68C269.182 292.88 271.008 292.48 273.195 292.48C275.195 292.48 276.862 292.867 278.195 293.64C279.555 294.387 280.582 295.533 281.275 297.08C281.968 298.627 282.315 300.573 282.315 302.92V304.52H267.555C267.608 306.013 267.835 307.267 268.235 308.28C268.635 309.267 269.235 310 270.035 310.48C270.862 310.933 271.902 311.16 273.155 311.16C273.928 311.16 274.622 311.067 275.235 310.88C275.848 310.667 276.368 310.373 276.795 310C277.222 309.6 277.555 309.133 277.795 308.6C278.035 308.04 278.155 307.413 278.155 306.72H282.235C282.235 307.973 282.022 309.08 281.595 310.04C281.168 311 280.542 311.813 279.715 312.48C278.915 313.12 277.955 313.613 276.835 313.96C275.715 314.307 274.475 314.48 273.115 314.48ZM267.635 301.48H277.955C277.955 300.44 277.835 299.573 277.595 298.88C277.382 298.16 277.062 297.573 276.635 297.12C276.208 296.667 275.702 296.347 275.115 296.16C274.528 295.947 273.862 295.84 273.115 295.84C271.995 295.84 271.035 296.04 270.235 296.44C269.462 296.84 268.862 297.467 268.435 298.32C268.008 299.147 267.742 300.2 267.635 301.48ZM291.783 314.48C290.583 314.48 289.637 314.253 288.943 313.8C288.277 313.32 287.797 312.72 287.503 312C287.237 311.253 287.103 310.467 287.103 309.64V296.4H284.463V292.96H287.183L287.943 287.08H291.263V292.96H295.063V296.4H291.263V309.16C291.263 309.773 291.397 310.24 291.663 310.56C291.93 310.88 292.37 311.04 292.983 311.04H295.063V313.84C294.797 313.947 294.463 314.04 294.063 314.12C293.69 314.227 293.303 314.307 292.903 314.36C292.503 314.44 292.13 314.48 291.783 314.48ZM298.731 314V285.08H302.891V295.48H303.171C303.677 294.84 304.251 294.307 304.891 293.88C305.531 293.427 306.251 293.08 307.051 292.84C307.851 292.6 308.731 292.48 309.691 292.48C311.024 292.48 312.197 292.72 313.211 293.2C314.224 293.653 315.011 294.4 315.571 295.44C316.157 296.48 316.451 297.88 316.451 299.64V314H312.291V300.28C312.291 299.48 312.184 298.813 311.971 298.28C311.784 297.747 311.504 297.32 311.131 297C310.757 296.68 310.317 296.453 309.811 296.32C309.304 296.187 308.744 296.12 308.131 296.12C307.171 296.12 306.291 296.347 305.491 296.8C304.717 297.253 304.091 297.893 303.611 298.72C303.131 299.547 302.891 300.533 302.891 301.68V314H298.731ZM321.66 289.32V285.08H325.82V289.32H321.66ZM321.66 314V292.96H325.82V314H321.66ZM331.192 314V292.96H334.632L334.992 295.96H335.272C335.778 295.187 336.378 294.547 337.072 294.04C337.765 293.533 338.525 293.147 339.352 292.88C340.205 292.613 341.138 292.48 342.152 292.48C343.485 292.48 344.658 292.72 345.672 293.2C346.685 293.653 347.472 294.4 348.032 295.44C348.618 296.48 348.912 297.88 348.912 299.64V314H344.752V300.28C344.752 299.48 344.645 298.813 344.432 298.28C344.245 297.747 343.965 297.32 343.592 297C343.218 296.68 342.778 296.453 342.272 296.32C341.765 296.187 341.205 296.12 340.592 296.12C339.632 296.12 338.752 296.36 337.952 296.84C337.178 297.293 336.552 297.933 336.072 298.76C335.592 299.587 335.352 300.56 335.352 301.68V314H331.192ZM357.641 321.28C356.681 321.28 355.775 321.08 354.921 320.68C354.095 320.28 353.428 319.707 352.921 318.96C352.415 318.213 352.161 317.307 352.161 316.24C352.161 315.067 352.481 314.12 353.121 313.4C353.788 312.653 354.561 312.093 355.441 311.72C354.801 311.427 354.281 311 353.881 310.44C353.508 309.88 353.321 309.24 353.321 308.52C353.321 307.533 353.681 306.733 354.401 306.12C355.121 305.507 355.961 305.107 356.921 304.92C355.988 304.307 355.255 303.533 354.721 302.6C354.215 301.667 353.961 300.613 353.961 299.44C353.961 298.027 354.295 296.813 354.961 295.8C355.628 294.76 356.615 293.947 357.921 293.36C359.255 292.773 360.868 292.48 362.761 292.48C363.588 292.48 364.361 292.547 365.081 292.68C365.828 292.787 366.495 292.947 367.081 293.16C368.015 292.68 368.681 292.107 369.081 291.44C369.481 290.747 369.721 290.107 369.801 289.52H373.881C373.881 290.4 373.695 291.2 373.321 291.92C372.975 292.613 372.481 293.2 371.841 293.68C371.228 294.133 370.481 294.453 369.601 294.64C370.268 295.253 370.761 295.973 371.081 296.8C371.428 297.6 371.601 298.48 371.601 299.44C371.601 300.827 371.281 302.04 370.641 303.08C370.001 304.12 369.028 304.933 367.721 305.52C366.441 306.107 364.855 306.4 362.961 306.4H359.681C359.041 306.4 358.521 306.533 358.121 306.8C357.748 307.067 357.561 307.467 357.561 308C357.561 308.453 357.748 308.827 358.121 309.12C358.495 309.413 358.988 309.56 359.601 309.56H368.481C370.028 309.56 371.308 310.08 372.321 311.12C373.335 312.133 373.841 313.44 373.841 315.04C373.841 316.213 373.535 317.267 372.921 318.2C372.335 319.16 371.495 319.907 370.401 320.44C369.335 321 368.095 321.28 366.681 321.28H357.641ZM359.001 318.2H366.641C367.201 318.2 367.708 318.093 368.161 317.88C368.615 317.667 368.975 317.36 369.241 316.96C369.508 316.587 369.641 316.16 369.641 315.68C369.641 314.88 369.388 314.253 368.881 313.8C368.401 313.347 367.801 313.12 367.081 313.12H359.001C358.255 313.12 357.628 313.373 357.121 313.88C356.615 314.36 356.361 314.96 356.361 315.68C356.361 316.427 356.601 317.027 357.081 317.48C357.588 317.96 358.228 318.2 359.001 318.2ZM362.801 303.4C364.375 303.4 365.548 303.053 366.321 302.36C367.095 301.64 367.481 300.667 367.481 299.44C367.481 298.187 367.095 297.227 366.321 296.56C365.548 295.867 364.375 295.52 362.801 295.52C361.228 295.52 360.055 295.867 359.281 296.56C358.508 297.227 358.121 298.187 358.121 299.44C358.121 300.24 358.281 300.947 358.601 301.56C358.948 302.147 359.468 302.6 360.161 302.92C360.881 303.24 361.761 303.4 362.801 303.4ZM390.574 314L383.014 286.56H387.774L392.454 304.64C392.534 304.933 392.628 305.333 392.734 305.84C392.841 306.347 392.934 306.88 393.014 307.44C393.121 307.973 393.214 308.467 393.294 308.92H393.534C393.614 308.573 393.681 308.2 393.734 307.8C393.788 307.4 393.854 307 393.934 306.6C394.014 306.2 394.081 305.827 394.134 305.48C394.214 305.133 394.268 304.853 394.294 304.64L398.614 286.56H404.374L408.734 304.64C408.814 304.933 408.908 305.333 409.014 305.84C409.121 306.347 409.214 306.88 409.294 307.44C409.401 307.973 409.494 308.467 409.574 308.92H409.814C409.868 308.6 409.934 308.24 410.014 307.84C410.094 307.44 410.174 307.053 410.254 306.68C410.334 306.28 410.414 305.907 410.494 305.56C410.601 305.213 410.681 304.907 410.734 304.64L415.414 286.56H419.654L412.094 314H406.854L402.254 295.68C402.174 295.28 402.081 294.827 401.974 294.32C401.868 293.787 401.761 293.253 401.654 292.72C401.574 292.16 401.508 291.68 401.454 291.28H401.254C401.201 291.707 401.134 292.2 401.054 292.76C400.974 293.32 400.881 293.867 400.774 294.4C400.668 294.907 400.574 295.333 400.494 295.68L395.974 314H390.574ZM429.599 314.48C427.439 314.48 425.626 314.093 424.159 313.32C422.719 312.52 421.626 311.307 420.879 309.68C420.133 308.053 419.759 305.987 419.759 303.48C419.759 300.947 420.133 298.88 420.879 297.28C421.626 295.653 422.733 294.453 424.199 293.68C425.666 292.88 427.493 292.48 429.679 292.48C431.679 292.48 433.346 292.867 434.679 293.64C436.039 294.387 437.066 295.533 437.759 297.08C438.453 298.627 438.799 300.573 438.799 302.92V304.52H424.039C424.093 306.013 424.319 307.267 424.719 308.28C425.119 309.267 425.719 310 426.519 310.48C427.346 310.933 428.386 311.16 429.639 311.16C430.413 311.16 431.106 311.067 431.719 310.88C432.333 310.667 432.853 310.373 433.279 310C433.706 309.6 434.039 309.133 434.279 308.6C434.519 308.04 434.639 307.413 434.639 306.72H438.719C438.719 307.973 438.506 309.08 438.079 310.04C437.653 311 437.026 311.813 436.199 312.48C435.399 313.12 434.439 313.613 433.319 313.96C432.199 314.307 430.959 314.48 429.599 314.48ZM424.119 301.48H434.439C434.439 300.44 434.319 299.573 434.079 298.88C433.866 298.16 433.546 297.573 433.119 297.12C432.693 296.667 432.186 296.347 431.599 296.16C431.013 295.947 430.346 295.84 429.599 295.84C428.479 295.84 427.519 296.04 426.719 296.44C425.946 296.84 425.346 297.467 424.919 298.32C424.493 299.147 424.226 300.2 424.119 301.48ZM443.028 314V292.96H446.468L446.828 295.96H447.108C447.614 295.187 448.214 294.547 448.908 294.04C449.601 293.533 450.361 293.147 451.188 292.88C452.041 292.613 452.974 292.48 453.988 292.48C455.321 292.48 456.494 292.72 457.508 293.2C458.521 293.653 459.308 294.4 459.868 295.44C460.454 296.48 460.748 297.88 460.748 299.64V314H456.588V300.28C456.588 299.48 456.481 298.813 456.268 298.28C456.081 297.747 455.801 297.32 455.428 297C455.054 296.68 454.614 296.453 454.108 296.32C453.601 296.187 453.041 296.12 452.428 296.12C451.468 296.12 450.588 296.36 449.788 296.84C449.014 297.293 448.388 297.933 447.908 298.76C447.428 299.587 447.188 300.56 447.188 301.68V314H443.028ZM471.197 314.48C469.997 314.48 469.051 314.253 468.357 313.8C467.691 313.32 467.211 312.72 466.917 312C466.651 311.253 466.517 310.467 466.517 309.64V296.4H463.877V292.96H466.597L467.357 287.08H470.677V292.96H474.477V296.4H470.677V309.16C470.677 309.773 470.811 310.24 471.077 310.56C471.344 310.88 471.784 311.04 472.397 311.04H474.477V313.84C474.211 313.947 473.877 314.04 473.477 314.12C473.104 314.227 472.717 314.307 472.317 314.36C471.917 314.44 471.544 314.48 471.197 314.48ZM491.668 314L484.108 286.56H488.868L493.548 304.64C493.628 304.933 493.721 305.333 493.828 305.84C493.935 306.347 494.028 306.88 494.108 307.44C494.215 307.973 494.308 308.467 494.388 308.92H494.628C494.708 308.573 494.775 308.2 494.828 307.8C494.881 307.4 494.948 307 495.028 306.6C495.108 306.2 495.175 305.827 495.228 305.48C495.308 305.133 495.361 304.853 495.388 304.64L499.708 286.56H505.468L509.828 304.64C509.908 304.933 510.001 305.333 510.108 305.84C510.215 306.347 510.308 306.88 510.388 307.44C510.495 307.973 510.588 308.467 510.668 308.92H510.908C510.961 308.6 511.028 308.24 511.108 307.84C511.188 307.44 511.268 307.053 511.348 306.68C511.428 306.28 511.508 305.907 511.588 305.56C511.695 305.213 511.775 304.907 511.828 304.64L516.508 286.56H520.748L513.188 314H507.948L503.348 295.68C503.268 295.28 503.175 294.827 503.068 294.32C502.961 293.787 502.855 293.253 502.748 292.72C502.668 292.16 502.601 291.68 502.548 291.28H502.348C502.295 291.707 502.228 292.2 502.148 292.76C502.068 293.32 501.975 293.867 501.868 294.4C501.761 294.907 501.668 295.333 501.588 295.68L497.068 314H491.668ZM523.028 314V292.96H526.468L526.828 296.36H527.068C527.308 295.693 527.614 295.067 527.988 294.48C528.388 293.893 528.894 293.413 529.508 293.04C530.148 292.667 530.921 292.48 531.828 292.48C532.254 292.48 532.628 292.52 532.948 292.6C533.294 292.68 533.561 292.747 533.748 292.8V296.72H532.348C531.494 296.72 530.734 296.853 530.068 297.12C529.428 297.387 528.881 297.787 528.428 298.32C528.001 298.827 527.681 299.453 527.468 300.2C527.281 300.947 527.188 301.787 527.188 302.72V314H523.028ZM545.425 314.48C543.238 314.48 541.385 314.093 539.865 313.32C538.372 312.52 537.238 311.307 536.465 309.68C535.718 308.053 535.345 305.987 535.345 303.48C535.345 300.947 535.718 298.88 536.465 297.28C537.238 295.653 538.372 294.453 539.865 293.68C541.385 292.88 543.238 292.48 545.425 292.48C547.665 292.48 549.532 292.88 551.025 293.68C552.518 294.453 553.638 295.653 554.385 297.28C555.158 298.88 555.545 300.947 555.545 303.48C555.545 305.987 555.158 308.053 554.385 309.68C553.638 311.307 552.518 312.52 551.025 313.32C549.532 314.093 547.665 314.48 545.425 314.48ZM545.425 311.04C546.758 311.04 547.852 310.787 548.705 310.28C549.558 309.747 550.185 308.947 550.585 307.88C551.012 306.813 551.225 305.467 551.225 303.84V303.12C551.225 301.493 551.012 300.147 550.585 299.08C550.185 298.013 549.558 297.227 548.705 296.72C547.852 296.187 546.758 295.92 545.425 295.92C544.118 295.92 543.038 296.187 542.185 296.72C541.332 297.227 540.692 298.013 540.265 299.08C539.865 300.147 539.665 301.493 539.665 303.12V303.84C539.665 305.467 539.865 306.813 540.265 307.88C540.692 308.947 541.332 309.747 542.185 310.28C543.038 310.787 544.118 311.04 545.425 311.04ZM559.785 314V292.96H563.225L563.585 295.96H563.865C564.372 295.187 564.972 294.547 565.665 294.04C566.359 293.533 567.119 293.147 567.945 292.88C568.799 292.613 569.732 292.48 570.745 292.48C572.079 292.48 573.252 292.72 574.265 293.2C575.279 293.653 576.065 294.4 576.625 295.44C577.212 296.48 577.505 297.88 577.505 299.64V314H573.345V300.28C573.345 299.48 573.239 298.813 573.025 298.28C572.839 297.747 572.559 297.32 572.185 297C571.812 296.68 571.372 296.453 570.865 296.32C570.359 296.187 569.799 296.12 569.185 296.12C568.225 296.12 567.345 296.36 566.545 296.84C565.772 297.293 565.145 297.933 564.665 298.76C564.185 299.587 563.945 300.56 563.945 301.68V314H559.785ZM586.235 321.28C585.275 321.28 584.368 321.08 583.515 320.68C582.688 320.28 582.022 319.707 581.515 318.96C581.008 318.213 580.755 317.307 580.755 316.24C580.755 315.067 581.075 314.12 581.715 313.4C582.382 312.653 583.155 312.093 584.035 311.72C583.395 311.427 582.875 311 582.475 310.44C582.102 309.88 581.915 309.24 581.915 308.52C581.915 307.533 582.275 306.733 582.995 306.12C583.715 305.507 584.555 305.107 585.515 304.92C584.582 304.307 583.848 303.533 583.315 302.6C582.808 301.667 582.555 300.613 582.555 299.44C582.555 298.027 582.888 296.813 583.555 295.8C584.222 294.76 585.208 293.947 586.515 293.36C587.848 292.773 589.462 292.48 591.355 292.48C592.182 292.48 592.955 292.547 593.675 292.68C594.422 292.787 595.088 292.947 595.675 293.16C596.608 292.68 597.275 292.107 597.675 291.44C598.075 290.747 598.315 290.107 598.395 289.52H602.475C602.475 290.4 602.288 291.2 601.915 291.92C601.568 292.613 601.075 293.2 600.435 293.68C599.822 294.133 599.075 294.453 598.195 294.64C598.862 295.253 599.355 295.973 599.675 296.8C600.022 297.6 600.195 298.48 600.195 299.44C600.195 300.827 599.875 302.04 599.235 303.08C598.595 304.12 597.622 304.933 596.315 305.52C595.035 306.107 593.448 306.4 591.555 306.4H588.275C587.635 306.4 587.115 306.533 586.715 306.8C586.342 307.067 586.155 307.467 586.155 308C586.155 308.453 586.342 308.827 586.715 309.12C587.088 309.413 587.582 309.56 588.195 309.56H597.075C598.622 309.56 599.902 310.08 600.915 311.12C601.928 312.133 602.435 313.44 602.435 315.04C602.435 316.213 602.128 317.267 601.515 318.2C600.928 319.16 600.088 319.907 598.995 320.44C597.928 321 596.688 321.28 595.275 321.28H586.235ZM587.595 318.2H595.235C595.795 318.2 596.302 318.093 596.755 317.88C597.208 317.667 597.568 317.36 597.835 316.96C598.102 316.587 598.235 316.16 598.235 315.68C598.235 314.88 597.982 314.253 597.475 313.8C596.995 313.347 596.395 313.12 595.675 313.12H587.595C586.848 313.12 586.222 313.373 585.715 313.88C585.208 314.36 584.955 314.96 584.955 315.68C584.955 316.427 585.195 317.027 585.675 317.48C586.182 317.96 586.822 318.2 587.595 318.2ZM591.395 303.4C592.968 303.4 594.142 303.053 594.915 302.36C595.688 301.64 596.075 300.667 596.075 299.44C596.075 298.187 595.688 297.227 594.915 296.56C594.142 295.867 592.968 295.52 591.395 295.52C589.822 295.52 588.648 295.867 587.875 296.56C587.102 297.227 586.715 298.187 586.715 299.44C586.715 300.24 586.875 300.947 587.195 301.56C587.542 302.147 588.062 302.6 588.755 302.92C589.475 303.24 590.355 303.4 591.395 303.4ZM68.7493 391V370.42H72.1093V388.09H82.3693V391H68.7493ZM91.4221 391.36C89.8021 391.36 88.4421 391.07 87.3421 390.49C86.2621 389.89 85.4421 388.98 84.8821 387.76C84.3221 386.54 84.0421 384.99 84.0421 383.11C84.0421 381.21 84.3221 379.66 84.8821 378.46C85.4421 377.24 86.2721 376.34 87.3721 375.76C88.4721 375.16 89.8421 374.86 91.4821 374.86C92.9821 374.86 94.2321 375.15 95.2321 375.73C96.2521 376.29 97.0221 377.15 97.5421 378.31C98.0621 379.47 98.3221 380.93 98.3221 382.69V383.89H87.2521C87.2921 385.01 87.4621 385.95 87.7621 386.71C88.0621 387.45 88.5121 388 89.1121 388.36C89.7321 388.7 90.5121 388.87 91.4521 388.87C92.0321 388.87 92.5521 388.8 93.0121 388.66C93.4721 388.5 93.8621 388.28 94.1821 388C94.5021 387.7 94.7521 387.35 94.9321 386.95C95.1121 386.53 95.2021 386.06 95.2021 385.54H98.2621C98.2621 386.48 98.1021 387.31 97.7821 388.03C97.4621 388.75 96.9921 389.36 96.3721 389.86C95.7721 390.34 95.0521 390.71 94.2121 390.97C93.3721 391.23 92.4421 391.36 91.4221 391.36ZM87.3121 381.61H95.0521C95.0521 380.83 94.9621 380.18 94.7821 379.66C94.6221 379.12 94.3821 378.68 94.0621 378.34C93.7421 378 93.3621 377.76 92.9221 377.62C92.4821 377.46 91.9821 377.38 91.4221 377.38C90.5821 377.38 89.8621 377.53 89.2621 377.83C88.6821 378.13 88.2321 378.6 87.9121 379.24C87.5921 379.86 87.3921 380.65 87.3121 381.61ZM105.423 391.36C104.523 391.36 103.813 391.19 103.293 390.85C102.793 390.49 102.433 390.04 102.213 389.5C102.013 388.94 101.913 388.35 101.913 387.73V377.8H99.9334V375.22H101.973L102.543 370.81H105.033V375.22H107.883V377.8H105.033V387.37C105.033 387.83 105.133 388.18 105.333 388.42C105.533 388.66 105.863 388.78 106.323 388.78H107.883V390.88C107.683 390.96 107.433 391.03 107.133 391.09C106.853 391.17 106.563 391.23 106.263 391.27C105.963 391.33 105.683 391.36 105.423 391.36ZM110.634 378.52V377.14C111.074 377.06 111.434 376.87 111.714 376.57C111.994 376.25 112.194 375.86 112.314 375.4C112.434 374.94 112.494 374.44 112.494 373.9H110.904V370.42H114.264V373.57C114.264 374.71 114.084 375.63 113.724 376.33C113.364 377.01 112.904 377.52 112.344 377.86C111.804 378.18 111.234 378.4 110.634 378.52ZM122.401 391.36C121.301 391.36 120.331 391.24 119.491 391C118.651 390.76 117.951 390.43 117.391 390.01C116.831 389.59 116.401 389.09 116.101 388.51C115.821 387.91 115.681 387.25 115.681 386.53C115.681 386.43 115.681 386.34 115.681 386.26C115.701 386.18 115.711 386.11 115.711 386.05H118.801C118.801 386.11 118.801 386.17 118.801 386.23C118.801 386.27 118.801 386.32 118.801 386.38C118.801 387 118.971 387.5 119.311 387.88C119.651 388.24 120.101 388.5 120.661 388.66C121.241 388.8 121.871 388.87 122.551 388.87C123.151 388.87 123.701 388.8 124.201 388.66C124.721 388.5 125.141 388.27 125.461 387.97C125.801 387.67 125.971 387.29 125.971 386.83C125.971 386.23 125.761 385.77 125.341 385.45C124.921 385.13 124.371 384.88 123.691 384.7C123.011 384.5 122.301 384.29 121.561 384.07C120.901 383.89 120.241 383.7 119.581 383.5C118.941 383.28 118.361 383 117.841 382.66C117.321 382.32 116.901 381.89 116.581 381.37C116.261 380.85 116.101 380.2 116.101 379.42C116.101 378.68 116.261 378.03 116.581 377.47C116.901 376.91 117.341 376.44 117.901 376.06C118.481 375.68 119.161 375.39 119.941 375.19C120.741 374.99 121.611 374.89 122.551 374.89C123.531 374.89 124.401 375 125.161 375.22C125.921 375.42 126.561 375.71 127.081 376.09C127.621 376.47 128.031 376.93 128.311 377.47C128.591 377.99 128.731 378.55 128.731 379.15C128.731 379.27 128.721 379.4 128.701 379.54C128.701 379.66 128.701 379.74 128.701 379.78H125.641V379.51C125.641 379.11 125.531 378.75 125.311 378.43C125.091 378.11 124.741 377.85 124.261 377.65C123.801 377.45 123.181 377.35 122.401 377.35C121.881 377.35 121.421 377.4 121.021 377.5C120.621 377.58 120.291 377.7 120.031 377.86C119.771 378.02 119.571 378.21 119.431 378.43C119.311 378.65 119.251 378.9 119.251 379.18C119.251 379.64 119.411 380 119.731 380.26C120.071 380.5 120.511 380.71 121.051 380.89C121.591 381.05 122.171 381.23 122.791 381.43C123.511 381.63 124.241 381.84 124.981 382.06C125.721 382.26 126.401 382.52 127.021 382.84C127.661 383.16 128.171 383.6 128.551 384.16C128.951 384.72 129.151 385.47 129.151 386.41C129.151 387.27 128.981 388.02 128.641 388.66C128.301 389.3 127.821 389.82 127.201 390.22C126.601 390.6 125.891 390.88 125.071 391.06C124.251 391.26 123.361 391.36 122.401 391.36ZM143.926 391V373.3H137.116V370.42H154.156V373.3H147.286V391H143.926ZM158.423 391.36C157.923 391.36 157.383 391.3 156.803 391.18C156.223 391.06 155.673 390.84 155.153 390.52C154.653 390.2 154.243 389.76 153.923 389.2C153.603 388.62 153.443 387.87 153.443 386.95C153.443 385.87 153.693 384.98 154.193 384.28C154.693 383.58 155.393 383.03 156.293 382.63C157.193 382.23 158.263 381.95 159.503 381.79C160.763 381.63 162.133 381.55 163.613 381.55V379.99C163.613 379.47 163.523 379.01 163.343 378.61C163.183 378.21 162.873 377.9 162.413 377.68C161.973 377.46 161.333 377.35 160.493 377.35C159.653 377.35 158.993 377.46 158.513 377.68C158.053 377.88 157.723 378.14 157.523 378.46C157.343 378.76 157.253 379.09 157.253 379.45V379.9H154.253C154.233 379.8 154.223 379.7 154.223 379.6C154.223 379.5 154.223 379.38 154.223 379.24C154.223 378.3 154.483 377.51 155.003 376.87C155.543 376.21 156.293 375.71 157.253 375.37C158.213 375.03 159.323 374.86 160.583 374.86C161.943 374.86 163.073 375.06 163.973 375.46C164.893 375.84 165.583 376.39 166.043 377.11C166.503 377.83 166.733 378.7 166.733 379.72V387.73C166.733 388.11 166.823 388.38 167.003 388.54C167.203 388.7 167.433 388.78 167.693 388.78H168.773V390.88C168.533 390.98 168.233 391.08 167.873 391.18C167.513 391.28 167.093 391.33 166.613 391.33C166.073 391.33 165.613 391.23 165.233 391.03C164.873 390.85 164.573 390.59 164.333 390.25C164.113 389.89 163.963 389.49 163.883 389.05H163.703C163.343 389.51 162.903 389.92 162.383 390.28C161.883 390.62 161.303 390.88 160.643 391.06C159.983 391.26 159.243 391.36 158.423 391.36ZM159.293 388.78C159.913 388.78 160.483 388.69 161.003 388.51C161.543 388.31 162.003 388.04 162.383 387.7C162.763 387.34 163.063 386.92 163.283 386.44C163.503 385.94 163.613 385.4 163.613 384.82V383.77C162.233 383.77 161.023 383.85 159.983 384.01C158.943 384.17 158.133 384.47 157.553 384.91C156.973 385.33 156.683 385.92 156.683 386.68C156.683 387.14 156.783 387.53 156.983 387.85C157.183 388.15 157.483 388.38 157.883 388.54C158.283 388.7 158.753 388.78 159.293 388.78ZM170.927 391V369.31H174.047V382.42L180.257 375.22H183.947L178.607 381.34L184.247 391H180.647L176.597 383.62L174.047 386.14V391H170.927ZM192.291 391.36C190.671 391.36 189.311 391.07 188.211 390.49C187.131 389.89 186.311 388.98 185.751 387.76C185.191 386.54 184.911 384.99 184.911 383.11C184.911 381.21 185.191 379.66 185.751 378.46C186.311 377.24 187.141 376.34 188.241 375.76C189.341 375.16 190.711 374.86 192.351 374.86C193.851 374.86 195.101 375.15 196.101 375.73C197.121 376.29 197.891 377.15 198.411 378.31C198.931 379.47 199.191 380.93 199.191 382.69V383.89H188.121C188.161 385.01 188.331 385.95 188.631 386.71C188.931 387.45 189.381 388 189.981 388.36C190.601 388.7 191.381 388.87 192.321 388.87C192.901 388.87 193.421 388.8 193.881 388.66C194.341 388.5 194.731 388.28 195.051 388C195.371 387.7 195.621 387.35 195.801 386.95C195.981 386.53 196.071 386.06 196.071 385.54H199.131C199.131 386.48 198.971 387.31 198.651 388.03C198.331 388.75 197.861 389.36 197.241 389.86C196.641 390.34 195.921 390.71 195.081 390.97C194.241 391.23 193.311 391.36 192.291 391.36ZM188.181 381.61H195.921C195.921 380.83 195.831 380.18 195.651 379.66C195.491 379.12 195.251 378.68 194.931 378.34C194.611 378 194.231 377.76 193.791 377.62C193.351 377.46 192.851 377.38 192.291 377.38C191.451 377.38 190.731 377.53 190.131 377.83C189.551 378.13 189.101 378.6 188.781 379.24C188.461 379.86 188.261 380.65 188.181 381.61ZM213.379 391V382.54L205.369 370.42H209.209L215.089 379.54H215.239L221.059 370.42H224.749L216.739 382.54V391H213.379ZM230.85 391.36C229.21 391.36 227.82 391.07 226.68 390.49C225.56 389.89 224.71 388.98 224.13 387.76C223.57 386.54 223.29 384.99 223.29 383.11C223.29 381.21 223.57 379.66 224.13 378.46C224.71 377.24 225.56 376.34 226.68 375.76C227.82 375.16 229.21 374.86 230.85 374.86C232.53 374.86 233.93 375.16 235.05 375.76C236.17 376.34 237.01 377.24 237.57 378.46C238.15 379.66 238.44 381.21 238.44 383.11C238.44 384.99 238.15 386.54 237.57 387.76C237.01 388.98 236.17 389.89 235.05 390.49C233.93 391.07 232.53 391.36 230.85 391.36ZM230.85 388.78C231.85 388.78 232.67 388.59 233.31 388.21C233.95 387.81 234.42 387.21 234.72 386.41C235.04 385.61 235.2 384.6 235.2 383.38V382.84C235.2 381.62 235.04 380.61 234.72 379.81C234.42 379.01 233.95 378.42 233.31 378.04C232.67 377.64 231.85 377.44 230.85 377.44C229.87 377.44 229.06 377.64 228.42 378.04C227.78 378.42 227.3 379.01 226.98 379.81C226.68 380.61 226.53 381.62 226.53 382.84V383.38C226.53 384.6 226.68 385.61 226.98 386.41C227.3 387.21 227.78 387.81 228.42 388.21C229.06 388.59 229.87 388.78 230.85 388.78ZM246.57 391.36C245.05 391.36 243.82 390.96 242.88 390.16C241.94 389.34 241.47 387.95 241.47 385.99V375.22H244.59V385.51C244.59 386.11 244.66 386.61 244.8 387.01C244.96 387.41 245.18 387.73 245.46 387.97C245.74 388.21 246.07 388.38 246.45 388.48C246.83 388.58 247.25 388.63 247.71 388.63C248.43 388.63 249.08 388.46 249.66 388.12C250.26 387.76 250.74 387.27 251.1 386.65C251.46 386.01 251.64 385.28 251.64 384.46V375.22H254.76V391H252.21L251.94 388.75H251.73C251.35 389.33 250.9 389.81 250.38 390.19C249.86 390.57 249.28 390.86 248.64 391.06C248.02 391.26 247.33 391.36 246.57 391.36ZM265.361 391V370.42H276.281C277.421 370.42 278.421 370.63 279.281 371.05C280.141 371.45 280.811 372.03 281.291 372.79C281.791 373.55 282.041 374.44 282.041 375.46C282.041 376.24 281.891 376.95 281.591 377.59C281.311 378.23 280.911 378.77 280.391 379.21C279.891 379.65 279.321 379.98 278.681 380.2V380.32C279.421 380.48 280.081 380.78 280.661 381.22C281.261 381.64 281.731 382.2 282.071 382.9C282.431 383.58 282.611 384.4 282.611 385.36C282.611 386.66 282.321 387.73 281.741 388.57C281.181 389.41 280.431 390.03 279.491 390.43C278.551 390.81 277.481 391 276.281 391H265.361ZM268.721 388.12H276.011C276.931 388.12 277.681 387.88 278.261 387.4C278.861 386.9 279.161 386.1 279.161 385C279.161 384.34 279.031 383.78 278.771 383.32C278.531 382.84 278.161 382.48 277.661 382.24C277.161 381.98 276.531 381.85 275.771 381.85H268.721V388.12ZM268.721 379.03H275.501C276.141 379.03 276.691 378.91 277.151 378.67C277.611 378.43 277.961 378.09 278.201 377.65C278.461 377.21 278.591 376.72 278.591 376.18C278.591 375.2 278.321 374.48 277.781 374.02C277.261 373.54 276.571 373.3 275.711 373.3H268.721V379.03ZM289.995 391.36C289.495 391.36 288.955 391.3 288.375 391.18C287.795 391.06 287.245 390.84 286.725 390.52C286.225 390.2 285.815 389.76 285.495 389.2C285.175 388.62 285.015 387.87 285.015 386.95C285.015 385.87 285.265 384.98 285.765 384.28C286.265 383.58 286.965 383.03 287.865 382.63C288.765 382.23 289.835 381.95 291.075 381.79C292.335 381.63 293.705 381.55 295.185 381.55V379.99C295.185 379.47 295.095 379.01 294.915 378.61C294.755 378.21 294.445 377.9 293.985 377.68C293.545 377.46 292.905 377.35 292.065 377.35C291.225 377.35 290.565 377.46 290.085 377.68C289.625 377.88 289.295 378.14 289.095 378.46C288.915 378.76 288.825 379.09 288.825 379.45V379.9H285.825C285.805 379.8 285.795 379.7 285.795 379.6C285.795 379.5 285.795 379.38 285.795 379.24C285.795 378.3 286.055 377.51 286.575 376.87C287.115 376.21 287.865 375.71 288.825 375.37C289.785 375.03 290.895 374.86 292.155 374.86C293.515 374.86 294.645 375.06 295.545 375.46C296.465 375.84 297.155 376.39 297.615 377.11C298.075 377.83 298.305 378.7 298.305 379.72V387.73C298.305 388.11 298.395 388.38 298.575 388.54C298.775 388.7 299.005 388.78 299.265 388.78H300.345V390.88C300.105 390.98 299.805 391.08 299.445 391.18C299.085 391.28 298.665 391.33 298.185 391.33C297.645 391.33 297.185 391.23 296.805 391.03C296.445 390.85 296.145 390.59 295.905 390.25C295.685 389.89 295.535 389.49 295.455 389.05H295.275C294.915 389.51 294.475 389.92 293.955 390.28C293.455 390.62 292.875 390.88 292.215 391.06C291.555 391.26 290.815 391.36 289.995 391.36ZM290.865 388.78C291.485 388.78 292.055 388.69 292.575 388.51C293.115 388.31 293.575 388.04 293.955 387.7C294.335 387.34 294.635 386.92 294.855 386.44C295.075 385.94 295.185 385.4 295.185 384.82V383.77C293.805 383.77 292.595 383.85 291.555 384.01C290.515 384.17 289.705 384.47 289.125 384.91C288.545 385.33 288.255 385.92 288.255 386.68C288.255 387.14 288.355 387.53 288.555 387.85C288.755 388.15 289.055 388.38 289.455 388.54C289.855 388.7 290.325 388.78 290.865 388.78ZM308.769 391.36C307.189 391.36 305.869 391.07 304.809 390.49C303.749 389.89 302.949 388.98 302.409 387.76C301.889 386.54 301.629 384.99 301.629 383.11C301.629 381.23 301.899 379.69 302.439 378.49C302.979 377.27 303.779 376.36 304.839 375.76C305.919 375.16 307.239 374.86 308.799 374.86C309.879 374.86 310.819 375 311.619 375.28C312.419 375.54 313.099 375.94 313.659 376.48C314.219 377 314.629 377.65 314.889 378.43C315.169 379.21 315.309 380.1 315.309 381.1H312.159C312.159 380.26 312.039 379.57 311.799 379.03C311.559 378.49 311.189 378.09 310.689 377.83C310.189 377.55 309.539 377.41 308.739 377.41C307.899 377.41 307.189 377.61 306.609 378.01C306.029 378.39 305.589 378.98 305.289 379.78C304.989 380.56 304.839 381.59 304.839 382.87V383.38C304.839 384.6 304.979 385.62 305.259 386.44C305.559 387.24 305.999 387.84 306.579 388.24C307.179 388.62 307.939 388.81 308.859 388.81C309.659 388.81 310.299 388.67 310.779 388.39C311.279 388.09 311.649 387.67 311.889 387.13C312.149 386.57 312.279 385.9 312.279 385.12H315.309C315.309 386.06 315.169 386.91 314.889 387.67C314.629 388.43 314.219 389.09 313.659 389.65C313.119 390.19 312.439 390.61 311.619 390.91C310.799 391.21 309.849 391.36 308.769 391.36ZM318.466 391V369.31H321.586V382.42L327.796 375.22H331.486L326.146 381.34L331.786 391H328.186L324.136 383.62L321.586 386.14V391H318.466ZM344.961 391V373.3H338.151V370.42H355.191V373.3H348.321V391H344.961ZM362.188 391.36C360.548 391.36 359.158 391.07 358.018 390.49C356.898 389.89 356.048 388.98 355.468 387.76C354.908 386.54 354.628 384.99 354.628 383.11C354.628 381.21 354.908 379.66 355.468 378.46C356.048 377.24 356.898 376.34 358.018 375.76C359.158 375.16 360.548 374.86 362.188 374.86C363.868 374.86 365.268 375.16 366.388 375.76C367.508 376.34 368.348 377.24 368.908 378.46C369.488 379.66 369.778 381.21 369.778 383.11C369.778 384.99 369.488 386.54 368.908 387.76C368.348 388.98 367.508 389.89 366.388 390.49C365.268 391.07 363.868 391.36 362.188 391.36ZM362.188 388.78C363.188 388.78 364.008 388.59 364.648 388.21C365.288 387.81 365.758 387.21 366.058 386.41C366.378 385.61 366.538 384.6 366.538 383.38V382.84C366.538 381.62 366.378 380.61 366.058 379.81C365.758 379.01 365.288 378.42 364.648 378.04C364.008 377.64 363.188 377.44 362.188 377.44C361.208 377.44 360.398 377.64 359.758 378.04C359.118 378.42 358.638 379.01 358.318 379.81C358.018 380.61 357.868 381.62 357.868 382.84V383.38C357.868 384.6 358.018 385.61 358.318 386.41C358.638 387.21 359.118 387.81 359.758 388.21C360.398 388.59 361.208 388.78 362.188 388.78ZM384.571 391V373.3H377.761V370.42H394.801V373.3H387.931V391H384.571ZM397.48 391V369.31H400.6V377.11H400.81C401.19 376.63 401.62 376.23 402.1 375.91C402.58 375.57 403.12 375.31 403.72 375.13C404.32 374.95 404.98 374.86 405.7 374.86C406.7 374.86 407.58 375.04 408.34 375.4C409.1 375.74 409.69 376.3 410.11 377.08C410.55 377.86 410.77 378.91 410.77 380.23V391H407.65V380.71C407.65 380.11 407.57 379.61 407.41 379.21C407.27 378.81 407.06 378.49 406.78 378.25C406.5 378.01 406.17 377.84 405.79 377.74C405.41 377.64 404.99 377.59 404.53 377.59C403.81 377.59 403.15 377.76 402.55 378.1C401.97 378.44 401.5 378.92 401.14 379.54C400.78 380.16 400.6 380.9 400.6 381.76V391H397.48ZM421.217 391.36C419.597 391.36 418.237 391.07 417.137 390.49C416.057 389.89 415.237 388.98 414.677 387.76C414.117 386.54 413.837 384.99 413.837 383.11C413.837 381.21 414.117 379.66 414.677 378.46C415.237 377.24 416.067 376.34 417.167 375.76C418.267 375.16 419.637 374.86 421.277 374.86C422.777 374.86 424.027 375.15 425.027 375.73C426.047 376.29 426.817 377.15 427.337 378.31C427.857 379.47 428.117 380.93 428.117 382.69V383.89H417.047C417.087 385.01 417.257 385.95 417.557 386.71C417.857 387.45 418.307 388 418.907 388.36C419.527 388.7 420.307 388.87 421.247 388.87C421.827 388.87 422.347 388.8 422.807 388.66C423.267 388.5 423.657 388.28 423.977 388C424.297 387.7 424.547 387.35 424.727 386.95C424.907 386.53 424.997 386.06 424.997 385.54H428.057C428.057 386.48 427.897 387.31 427.577 388.03C427.257 388.75 426.787 389.36 426.167 389.86C425.567 390.34 424.847 390.71 424.007 390.97C423.167 391.23 422.237 391.36 421.217 391.36ZM417.107 381.61H424.847C424.847 380.83 424.757 380.18 424.577 379.66C424.417 379.12 424.177 378.68 423.857 378.34C423.537 378 423.157 377.76 422.717 377.62C422.277 377.46 421.777 377.38 421.217 377.38C420.377 377.38 419.657 377.53 419.057 377.83C418.477 378.13 418.027 378.6 417.707 379.24C417.387 379.86 417.187 380.65 417.107 381.61ZM447.191 391.36C445.071 391.36 443.231 390.97 441.671 390.19C440.131 389.41 438.941 388.23 438.101 386.65C437.281 385.07 436.871 383.09 436.871 380.71C436.871 378.31 437.281 376.33 438.101 374.77C438.941 373.19 440.131 372.01 441.671 371.23C443.231 370.45 445.071 370.06 447.191 370.06C449.351 370.06 451.201 370.45 452.741 371.23C454.281 372.01 455.461 373.19 456.281 374.77C457.121 376.33 457.541 378.31 457.541 380.71C457.541 383.09 457.121 385.07 456.281 386.65C455.461 388.23 454.281 389.41 452.741 390.19C451.201 390.97 449.351 391.36 447.191 391.36ZM447.191 388.51C448.291 388.51 449.261 388.36 450.101 388.06C450.961 387.76 451.681 387.3 452.261 386.68C452.861 386.06 453.311 385.28 453.611 384.34C453.931 383.4 454.091 382.31 454.091 381.07V380.41C454.091 379.13 453.931 378.02 453.611 377.08C453.311 376.14 452.861 375.36 452.261 374.74C451.681 374.12 450.961 373.66 450.101 373.36C449.261 373.06 448.291 372.91 447.191 372.91C446.111 372.91 445.141 373.06 444.281 373.36C443.441 373.66 442.721 374.12 442.121 374.74C441.541 375.36 441.101 376.14 440.801 377.08C440.501 378.02 440.351 379.13 440.351 380.41V381.07C440.351 382.31 440.501 383.4 440.801 384.34C441.101 385.28 441.541 386.06 442.121 386.68C442.721 387.3 443.441 387.76 444.281 388.06C445.141 388.36 446.111 388.51 447.191 388.51ZM464.925 391.36C464.025 391.36 463.315 391.19 462.795 390.85C462.295 390.49 461.935 390.04 461.715 389.5C461.515 388.94 461.415 388.35 461.415 387.73V377.8H459.435V375.22H461.475L462.045 370.81H464.535V375.22H467.385V377.8H464.535V387.37C464.535 387.83 464.635 388.18 464.835 388.42C465.035 388.66 465.365 388.78 465.825 388.78H467.385V390.88C467.185 390.96 466.935 391.03 466.635 391.09C466.355 391.17 466.065 391.23 465.765 391.27C465.465 391.33 465.185 391.36 464.925 391.36ZM470.136 391V369.31H473.256V377.11H473.466C473.846 376.63 474.276 376.23 474.756 375.91C475.236 375.57 475.776 375.31 476.376 375.13C476.976 374.95 477.636 374.86 478.356 374.86C479.356 374.86 480.236 375.04 480.996 375.4C481.756 375.74 482.346 376.3 482.766 377.08C483.206 377.86 483.426 378.91 483.426 380.23V391H480.306V380.71C480.306 380.11 480.226 379.61 480.066 379.21C479.926 378.81 479.716 378.49 479.436 378.25C479.156 378.01 478.826 377.84 478.446 377.74C478.066 377.64 477.646 377.59 477.186 377.59C476.466 377.59 475.806 377.76 475.206 378.1C474.626 378.44 474.156 378.92 473.796 379.54C473.436 380.16 473.256 380.9 473.256 381.76V391H470.136ZM493.873 391.36C492.253 391.36 490.893 391.07 489.793 390.49C488.713 389.89 487.893 388.98 487.333 387.76C486.773 386.54 486.493 384.99 486.493 383.11C486.493 381.21 486.773 379.66 487.333 378.46C487.893 377.24 488.723 376.34 489.823 375.76C490.923 375.16 492.293 374.86 493.933 374.86C495.433 374.86 496.683 375.15 497.683 375.73C498.703 376.29 499.473 377.15 499.993 378.31C500.513 379.47 500.773 380.93 500.773 382.69V383.89H489.703C489.743 385.01 489.913 385.95 490.213 386.71C490.513 387.45 490.963 388 491.563 388.36C492.183 388.7 492.963 388.87 493.903 388.87C494.483 388.87 495.003 388.8 495.463 388.66C495.923 388.5 496.313 388.28 496.633 388C496.953 387.7 497.203 387.35 497.383 386.95C497.563 386.53 497.653 386.06 497.653 385.54H500.713C500.713 386.48 500.553 387.31 500.233 388.03C499.913 388.75 499.443 389.36 498.823 389.86C498.223 390.34 497.503 390.71 496.663 390.97C495.823 391.23 494.893 391.36 493.873 391.36ZM489.763 381.61H497.503C497.503 380.83 497.413 380.18 497.233 379.66C497.073 379.12 496.833 378.68 496.513 378.34C496.193 378 495.813 377.76 495.373 377.62C494.933 377.46 494.433 377.38 493.873 377.38C493.033 377.38 492.313 377.53 491.713 377.83C491.133 378.13 490.683 378.6 490.363 379.24C490.043 379.86 489.843 380.65 489.763 381.61ZM503.945 391V375.22H506.525L506.795 377.77H506.975C507.155 377.27 507.385 376.8 507.665 376.36C507.965 375.92 508.345 375.56 508.805 375.28C509.285 375 509.865 374.86 510.545 374.86C510.865 374.86 511.145 374.89 511.385 374.95C511.645 375.01 511.845 375.06 511.985 375.1V378.04H510.935C510.295 378.04 509.725 378.14 509.225 378.34C508.745 378.54 508.335 378.84 507.995 379.24C507.675 379.62 507.435 380.09 507.275 380.65C507.135 381.21 507.065 381.84 507.065 382.54V391H503.945ZM520.136 391.36C519.036 391.36 518.066 391.24 517.226 391C516.386 390.76 515.686 390.43 515.126 390.01C514.566 389.59 514.136 389.09 513.836 388.51C513.556 387.91 513.416 387.25 513.416 386.53C513.416 386.43 513.416 386.34 513.416 386.26C513.436 386.18 513.446 386.11 513.446 386.05H516.536C516.536 386.11 516.536 386.17 516.536 386.23C516.536 386.27 516.536 386.32 516.536 386.38C516.536 387 516.706 387.5 517.046 387.88C517.386 388.24 517.836 388.5 518.396 388.66C518.976 388.8 519.606 388.87 520.286 388.87C520.886 388.87 521.436 388.8 521.936 388.66C522.456 388.5 522.876 388.27 523.196 387.97C523.536 387.67 523.706 387.29 523.706 386.83C523.706 386.23 523.496 385.77 523.076 385.45C522.656 385.13 522.106 384.88 521.426 384.7C520.746 384.5 520.036 384.29 519.296 384.07C518.636 383.89 517.976 383.7 517.316 383.5C516.676 383.28 516.096 383 515.576 382.66C515.056 382.32 514.636 381.89 514.316 381.37C513.996 380.85 513.836 380.2 513.836 379.42C513.836 378.68 513.996 378.03 514.316 377.47C514.636 376.91 515.076 376.44 515.636 376.06C516.216 375.68 516.896 375.39 517.676 375.19C518.476 374.99 519.346 374.89 520.286 374.89C521.266 374.89 522.136 375 522.896 375.22C523.656 375.42 524.296 375.71 524.816 376.09C525.356 376.47 525.766 376.93 526.046 377.47C526.326 377.99 526.466 378.55 526.466 379.15C526.466 379.27 526.456 379.4 526.436 379.54C526.436 379.66 526.436 379.74 526.436 379.78H523.376V379.51C523.376 379.11 523.266 378.75 523.046 378.43C522.826 378.11 522.476 377.85 521.996 377.65C521.536 377.45 520.916 377.35 520.136 377.35C519.616 377.35 519.156 377.4 518.756 377.5C518.356 377.58 518.026 377.7 517.766 377.86C517.506 378.02 517.306 378.21 517.166 378.43C517.046 378.65 516.986 378.9 516.986 379.18C516.986 379.64 517.146 380 517.466 380.26C517.806 380.5 518.246 380.71 518.786 380.89C519.326 381.05 519.906 381.23 520.526 381.43C521.246 381.63 521.976 381.84 522.716 382.06C523.456 382.26 524.136 382.52 524.756 382.84C525.396 383.16 525.906 383.6 526.286 384.16C526.686 384.72 526.886 385.47 526.886 386.41C526.886 387.27 526.716 388.02 526.376 388.66C526.036 389.3 525.556 389.82 524.936 390.22C524.336 390.6 523.626 390.88 522.806 391.06C521.986 391.26 521.096 391.36 520.136 391.36ZM530.678 391V387.52H534.008V391H530.678Z" fill="#370F8C"/>
</svg>
