<svg width="666" height="411" viewBox="0 0 666 411" fill="none" xmlns="http://www.w3.org/2000/svg">
<path d="M208.446 214V174.716H132.562V153.732C139.232 142.345 145.332 130.877 150.862 119.328C156.393 107.779 161.436 95.7413 165.99 83.216C170.545 70.528 174.368 57.352 177.458 43.688H204.054C201.94 52.472 199.256 61.5 196.002 70.772C192.912 79.8813 189.414 88.828 185.51 97.612C181.769 106.396 178.028 114.529 174.286 122.012C170.545 129.495 167.048 136.001 163.794 141.532C160.541 147.063 157.938 151.129 155.986 153.732H208.446V105.664C209.585 102.899 210.724 99.9707 211.862 96.88C213.164 93.6267 214.384 90.3733 215.522 87.12C216.661 83.704 217.718 80.4507 218.694 77.36C219.67 74.2693 220.565 71.3413 221.378 68.576H233.822V153.732H255.294V174.716H233.822V214H208.446ZM486.759 214V174.716H410.875V153.732C417.544 142.345 423.644 130.877 429.175 119.328C434.705 107.779 439.748 95.7413 444.303 83.216C448.857 70.528 452.68 57.352 455.771 43.688H482.367C480.252 52.472 477.568 61.5 474.315 70.772C471.224 79.8813 467.727 88.828 463.823 97.612C460.081 106.396 456.34 114.529 452.599 122.012C448.857 129.495 445.36 136.001 442.107 141.532C438.853 147.063 436.251 151.129 434.299 153.732H486.759V105.664C487.897 102.899 489.036 99.9707 490.175 96.88C491.476 93.6267 492.696 90.3733 493.835 87.12C494.973 83.704 496.031 80.4507 497.007 77.36C497.983 74.2693 498.877 71.3413 499.691 68.576H512.135V153.732H533.607V174.716H512.135V214H486.759Z" fill="#370F8C"/>
<path d="M333.473 216.928C324.527 216.928 316.393 215.627 309.073 213.024C301.916 210.259 295.816 205.623 290.773 199.116C285.893 192.609 282.071 183.825 279.305 172.764C276.703 161.54 275.401 147.388 275.401 130.308C275.401 113.228 276.703 99.1573 279.305 88.096C282.071 76.872 285.893 68.0067 290.773 61.5C295.816 54.9933 301.916 50.4387 309.073 47.836C316.393 45.0707 324.527 43.688 333.473 43.688C342.583 43.688 350.716 45.0707 357.873 47.836C365.031 50.4387 371.049 54.9933 375.929 61.5C380.972 68.0067 384.795 76.872 387.397 88.096C390.163 99.1573 391.545 113.228 391.545 130.308C391.545 147.388 390.163 161.54 387.397 172.764C384.795 183.825 380.972 192.609 375.929 199.116C371.049 205.623 365.031 210.259 357.873 213.024C350.716 215.627 342.583 216.928 333.473 216.928ZM333.473 195.944C342.095 195.944 348.601 193.748 352.993 189.356C357.548 184.801 360.72 178.132 362.509 169.348C364.299 160.564 365.193 149.665 365.193 136.652V124.696C365.193 111.357 364.299 100.296 362.509 91.512C360.72 82.5653 357.548 75.896 352.993 71.504C348.601 66.9493 342.095 64.672 333.473 64.672C325.015 64.672 318.508 66.9493 313.953 71.504C309.399 75.896 306.227 82.484 304.437 91.268C302.648 100.052 301.753 111.032 301.753 124.208V136.164C301.753 149.177 302.648 160.157 304.437 169.104C306.227 178.051 309.399 184.801 313.953 189.356C318.508 193.748 325.015 195.944 333.473 195.944Z" fill="#20C997"/>
<path d="M15.887 314.48C13.0604 314.48 10.607 313.96 8.52703 312.92C6.4737 311.88 4.88703 310.307 3.76703 308.2C2.6737 306.093 2.12703 303.453 2.12703 300.28C2.12703 297.08 2.6737 294.44 3.76703 292.36C4.88703 290.253 6.4737 288.68 8.52703 287.64C10.607 286.6 13.0604 286.08 15.887 286.08C18.767 286.08 21.2337 286.6 23.287 287.64C25.3404 288.68 26.9137 290.253 28.007 292.36C29.127 294.44 29.687 297.08 29.687 300.28C29.687 303.453 29.127 306.093 28.007 308.2C26.9137 310.307 25.3404 311.88 23.287 312.92C21.2337 313.96 18.767 314.48 15.887 314.48ZM15.887 310.68C17.3537 310.68 18.647 310.48 19.767 310.08C20.9137 309.68 21.8737 309.067 22.647 308.24C23.447 307.413 24.047 306.373 24.447 305.12C24.8737 303.867 25.087 302.413 25.087 300.76V299.88C25.087 298.173 24.8737 296.693 24.447 295.44C24.047 294.187 23.447 293.147 22.647 292.32C21.8737 291.493 20.9137 290.88 19.767 290.48C18.647 290.08 17.3537 289.88 15.887 289.88C14.447 289.88 13.1537 290.08 12.007 290.48C10.887 290.88 9.92703 291.493 9.12703 292.32C8.3537 293.147 7.76703 294.187 7.36703 295.44C6.96703 296.693 6.76703 298.173 6.76703 299.88V300.76C6.76703 302.413 6.96703 303.867 7.36703 305.12C7.76703 306.373 8.3537 307.413 9.12703 308.24C9.92703 309.067 10.887 309.68 12.007 310.08C13.1537 310.48 14.447 310.68 15.887 310.68ZM34.2933 314V285.08H38.4533V295.48H38.7333C39.2399 294.84 39.8133 294.307 40.4533 293.88C41.0933 293.427 41.8133 293.08 42.6133 292.84C43.4133 292.6 44.2933 292.48 45.2533 292.48C46.5866 292.48 47.7599 292.72 48.7733 293.2C49.7866 293.653 50.5733 294.4 51.1333 295.44C51.7199 296.48 52.0133 297.88 52.0133 299.64V314H47.8533V300.28C47.8533 299.48 47.7466 298.813 47.5333 298.28C47.3466 297.747 47.0666 297.32 46.6933 297C46.3199 296.68 45.8799 296.453 45.3733 296.32C44.8666 296.187 44.3066 296.12 43.6933 296.12C42.7333 296.12 41.8533 296.347 41.0533 296.8C40.2799 297.253 39.6533 297.893 39.1733 298.72C38.6933 299.547 38.4533 300.533 38.4533 301.68V314H34.2933ZM65.9861 314V286.56H70.3061L82.8261 303.76C82.9861 303.92 83.1594 304.147 83.3461 304.44C83.5594 304.733 83.7594 305.027 83.9461 305.32C84.1328 305.613 84.2661 305.853 84.3461 306.04H84.5461C84.5461 305.64 84.5461 305.253 84.5461 304.88C84.5461 304.507 84.5461 304.133 84.5461 303.76V286.56H88.8661V314H84.7061L72.0261 296.6C71.8128 296.28 71.5461 295.88 71.2261 295.4C70.9061 294.893 70.6661 294.507 70.5061 294.24H70.3061C70.3061 294.613 70.3061 295 70.3061 295.4C70.3061 295.773 70.3061 296.173 70.3061 296.6V314H65.9861ZM103.761 314.48C101.574 314.48 99.7211 314.093 98.2011 313.32C96.7078 312.52 95.5744 311.307 94.8011 309.68C94.0544 308.053 93.6811 305.987 93.6811 303.48C93.6811 300.947 94.0544 298.88 94.8011 297.28C95.5744 295.653 96.7078 294.453 98.2011 293.68C99.7211 292.88 101.574 292.48 103.761 292.48C106.001 292.48 107.868 292.88 109.361 293.68C110.854 294.453 111.974 295.653 112.721 297.28C113.494 298.88 113.881 300.947 113.881 303.48C113.881 305.987 113.494 308.053 112.721 309.68C111.974 311.307 110.854 312.52 109.361 313.32C107.868 314.093 106.001 314.48 103.761 314.48ZM103.761 311.04C105.094 311.04 106.188 310.787 107.041 310.28C107.894 309.747 108.521 308.947 108.921 307.88C109.348 306.813 109.561 305.467 109.561 303.84V303.12C109.561 301.493 109.348 300.147 108.921 299.08C108.521 298.013 107.894 297.227 107.041 296.72C106.188 296.187 105.094 295.92 103.761 295.92C102.454 295.92 101.374 296.187 100.521 296.72C99.6678 297.227 99.0278 298.013 98.6011 299.08C98.2011 300.147 98.0011 301.493 98.0011 303.12V303.84C98.0011 305.467 98.2011 306.813 98.6011 307.88C99.0278 308.947 99.6678 309.747 100.521 310.28C101.374 310.787 102.454 311.04 103.761 311.04ZM118.601 320.16V318.36C119.188 318.253 119.655 317.987 120.001 317.56C120.375 317.16 120.641 316.653 120.801 316.04C120.988 315.427 121.081 314.747 121.081 314H118.961V309.36H123.401V313.56C123.401 315.107 123.161 316.333 122.681 317.24C122.228 318.147 121.628 318.813 120.881 319.24C120.161 319.693 119.401 320 118.601 320.16ZM148.568 314.48C147.075 314.48 145.635 314.32 144.248 314C142.861 313.707 141.635 313.227 140.568 312.56C139.501 311.867 138.661 311 138.048 309.96C137.435 308.893 137.128 307.627 137.128 306.16C137.128 306 137.128 305.853 137.128 305.72C137.155 305.56 137.168 305.427 137.168 305.32H141.648C141.648 305.4 141.635 305.52 141.608 305.68C141.608 305.84 141.608 305.973 141.608 306.08C141.608 307.067 141.901 307.907 142.488 308.6C143.075 309.293 143.888 309.813 144.928 310.16C145.995 310.507 147.208 310.68 148.568 310.68C149.315 310.68 150.035 310.64 150.728 310.56C151.421 310.453 152.048 310.307 152.608 310.12C153.195 309.907 153.701 309.653 154.128 309.36C154.555 309.04 154.888 308.667 155.128 308.24C155.368 307.813 155.488 307.32 155.488 306.76C155.488 305.907 155.235 305.2 154.728 304.64C154.248 304.08 153.581 303.613 152.728 303.24C151.901 302.867 150.955 302.533 149.888 302.24C148.848 301.947 147.768 301.653 146.648 301.36C145.528 301.067 144.435 300.72 143.368 300.32C142.328 299.92 141.381 299.44 140.528 298.88C139.701 298.293 139.035 297.573 138.528 296.72C138.048 295.84 137.808 294.773 137.808 293.52C137.808 292.32 138.061 291.253 138.568 290.32C139.075 289.387 139.808 288.613 140.768 288C141.728 287.36 142.875 286.88 144.208 286.56C145.541 286.24 147.048 286.08 148.728 286.08C150.168 286.08 151.528 286.24 152.808 286.56C154.088 286.853 155.208 287.32 156.168 287.96C157.128 288.6 157.875 289.413 158.408 290.4C158.968 291.387 159.248 292.56 159.248 293.92V294.4H154.808V293.88C154.808 293.027 154.555 292.307 154.048 291.72C153.541 291.133 152.835 290.68 151.928 290.36C151.021 290.04 149.968 289.88 148.768 289.88C147.355 289.88 146.168 290.027 145.208 290.32C144.248 290.587 143.515 290.973 143.008 291.48C142.528 291.96 142.288 292.547 142.288 293.24C142.288 294.013 142.541 294.653 143.048 295.16C143.555 295.64 144.221 296.053 145.048 296.4C145.901 296.747 146.848 297.067 147.888 297.36C148.955 297.627 150.035 297.92 151.128 298.24C152.248 298.533 153.328 298.88 154.368 299.28C155.435 299.68 156.381 300.173 157.208 300.76C158.061 301.347 158.741 302.08 159.248 302.96C159.755 303.813 160.008 304.867 160.008 306.12C160.008 308.093 159.515 309.707 158.528 310.96C157.541 312.187 156.181 313.08 154.448 313.64C152.741 314.2 150.781 314.48 148.568 314.48ZM173.365 314.48C171.205 314.48 169.392 314.093 167.925 313.32C166.485 312.52 165.392 311.307 164.645 309.68C163.898 308.053 163.525 305.987 163.525 303.48C163.525 300.947 163.898 298.88 164.645 297.28C165.392 295.653 166.498 294.453 167.965 293.68C169.432 292.88 171.258 292.48 173.445 292.48C175.445 292.48 177.112 292.867 178.445 293.64C179.805 294.387 180.832 295.533 181.525 297.08C182.218 298.627 182.565 300.573 182.565 302.92V304.52H167.805C167.858 306.013 168.085 307.267 168.485 308.28C168.885 309.267 169.485 310 170.285 310.48C171.112 310.933 172.152 311.16 173.405 311.16C174.178 311.16 174.872 311.067 175.485 310.88C176.098 310.667 176.618 310.373 177.045 310C177.472 309.6 177.805 309.133 178.045 308.6C178.285 308.04 178.405 307.413 178.405 306.72H182.485C182.485 307.973 182.272 309.08 181.845 310.04C181.418 311 180.792 311.813 179.965 312.48C179.165 313.12 178.205 313.613 177.085 313.96C175.965 314.307 174.725 314.48 173.365 314.48ZM167.885 301.48H178.205C178.205 300.44 178.085 299.573 177.845 298.88C177.632 298.16 177.312 297.573 176.885 297.12C176.458 296.667 175.952 296.347 175.365 296.16C174.778 295.947 174.112 295.84 173.365 295.84C172.245 295.84 171.285 296.04 170.485 296.44C169.712 296.84 169.112 297.467 168.685 298.32C168.258 299.147 167.992 300.2 167.885 301.48ZM195.513 314.48C193.353 314.48 191.54 314.093 190.073 313.32C188.633 312.52 187.54 311.307 186.793 309.68C186.047 308.053 185.673 305.987 185.673 303.48C185.673 300.947 186.047 298.88 186.793 297.28C187.54 295.653 188.647 294.453 190.113 293.68C191.58 292.88 193.407 292.48 195.593 292.48C197.593 292.48 199.26 292.867 200.593 293.64C201.953 294.387 202.98 295.533 203.673 297.08C204.367 298.627 204.713 300.573 204.713 302.92V304.52H189.953C190.007 306.013 190.233 307.267 190.633 308.28C191.033 309.267 191.633 310 192.433 310.48C193.26 310.933 194.3 311.16 195.553 311.16C196.327 311.16 197.02 311.067 197.633 310.88C198.247 310.667 198.767 310.373 199.193 310C199.62 309.6 199.953 309.133 200.193 308.6C200.433 308.04 200.553 307.413 200.553 306.72H204.633C204.633 307.973 204.42 309.08 203.993 310.04C203.567 311 202.94 311.813 202.113 312.48C201.313 313.12 200.353 313.613 199.233 313.96C198.113 314.307 196.873 314.48 195.513 314.48ZM190.033 301.48H200.353C200.353 300.44 200.233 299.573 199.993 298.88C199.78 298.16 199.46 297.573 199.033 297.12C198.607 296.667 198.1 296.347 197.513 296.16C196.927 295.947 196.26 295.84 195.513 295.84C194.393 295.84 193.433 296.04 192.633 296.44C191.86 296.84 191.26 297.467 190.833 298.32C190.407 299.147 190.14 300.2 190.033 301.48ZM208.942 314V292.96H212.382L212.742 295.96H213.022C213.502 295.187 214.048 294.547 214.662 294.04C215.302 293.533 216.008 293.147 216.782 292.88C217.582 292.613 218.435 292.48 219.342 292.48C220.648 292.48 221.782 292.747 222.742 293.28C223.728 293.813 224.475 294.707 224.982 295.96H225.262C225.742 295.213 226.302 294.587 226.942 294.08C227.582 293.547 228.302 293.147 229.102 292.88C229.928 292.613 230.808 292.48 231.742 292.48C232.995 292.48 234.102 292.707 235.062 293.16C236.022 293.587 236.782 294.32 237.342 295.36C237.902 296.373 238.182 297.733 238.182 299.44V314H234.022V300.2C234.022 299.4 233.928 298.747 233.742 298.24C233.555 297.707 233.302 297.293 232.982 297C232.662 296.68 232.275 296.453 231.822 296.32C231.368 296.187 230.875 296.12 230.342 296.12C229.462 296.12 228.675 296.36 227.982 296.84C227.288 297.293 226.728 297.933 226.302 298.76C225.875 299.587 225.662 300.56 225.662 301.68V314H221.502V300.2C221.502 299.4 221.408 298.747 221.222 298.24C221.035 297.707 220.782 297.293 220.462 297C220.142 296.68 219.755 296.453 219.302 296.32C218.848 296.187 218.368 296.12 217.862 296.12C216.982 296.12 216.182 296.36 215.462 296.84C214.742 297.293 214.168 297.933 213.742 298.76C213.315 299.587 213.102 300.56 213.102 301.68V314H208.942ZM251.116 314.48C249.649 314.48 248.356 314.32 247.236 314C246.116 313.68 245.182 313.24 244.436 312.68C243.689 312.12 243.116 311.453 242.716 310.68C242.342 309.88 242.156 309 242.156 308.04C242.156 307.907 242.156 307.787 242.156 307.68C242.182 307.573 242.196 307.48 242.196 307.4H246.316C246.316 307.48 246.316 307.56 246.316 307.64C246.316 307.693 246.316 307.76 246.316 307.84C246.316 308.667 246.542 309.333 246.996 309.84C247.449 310.32 248.049 310.667 248.796 310.88C249.569 311.067 250.409 311.16 251.316 311.16C252.116 311.16 252.849 311.067 253.516 310.88C254.209 310.667 254.769 310.36 255.196 309.96C255.649 309.56 255.876 309.053 255.876 308.44C255.876 307.64 255.596 307.027 255.036 306.6C254.476 306.173 253.742 305.84 252.836 305.6C251.929 305.333 250.982 305.053 249.996 304.76C249.116 304.52 248.236 304.267 247.356 304C246.502 303.707 245.729 303.333 245.036 302.88C244.342 302.427 243.782 301.853 243.356 301.16C242.929 300.467 242.716 299.6 242.716 298.56C242.716 297.573 242.929 296.707 243.356 295.96C243.782 295.213 244.369 294.587 245.116 294.08C245.889 293.573 246.796 293.187 247.836 292.92C248.902 292.653 250.062 292.52 251.316 292.52C252.622 292.52 253.782 292.667 254.796 292.96C255.809 293.227 256.662 293.613 257.356 294.12C258.076 294.627 258.622 295.24 258.996 295.96C259.369 296.653 259.556 297.4 259.556 298.2C259.556 298.36 259.542 298.533 259.516 298.72C259.516 298.88 259.516 298.987 259.516 299.04H255.436V298.68C255.436 298.147 255.289 297.667 254.996 297.24C254.702 296.813 254.236 296.467 253.596 296.2C252.982 295.933 252.156 295.8 251.116 295.8C250.422 295.8 249.809 295.867 249.276 296C248.742 296.107 248.302 296.267 247.956 296.48C247.609 296.693 247.342 296.947 247.156 297.24C246.996 297.533 246.916 297.867 246.916 298.24C246.916 298.853 247.129 299.333 247.556 299.68C248.009 300 248.596 300.28 249.316 300.52C250.036 300.733 250.809 300.973 251.636 301.24C252.596 301.507 253.569 301.787 254.556 302.08C255.542 302.347 256.449 302.693 257.276 303.12C258.129 303.547 258.809 304.133 259.316 304.88C259.849 305.627 260.116 306.627 260.116 307.88C260.116 309.027 259.889 310.027 259.436 310.88C258.982 311.733 258.342 312.427 257.516 312.96C256.716 313.467 255.769 313.84 254.676 314.08C253.582 314.347 252.396 314.48 251.116 314.48ZM273.095 314V286.56H277.575V310.12H291.255V314H273.095ZM294.606 289.32V285.08H298.766V289.32H294.606ZM294.606 314V292.96H298.766V314H294.606ZM304.137 314V285.08H308.297V302.56L316.577 292.96H321.497L314.377 301.12L321.897 314H317.097L311.697 304.16L308.297 307.52V314H304.137ZM332.623 314.48C330.463 314.48 328.649 314.093 327.183 313.32C325.743 312.52 324.649 311.307 323.903 309.68C323.156 308.053 322.783 305.987 322.783 303.48C322.783 300.947 323.156 298.88 323.903 297.28C324.649 295.653 325.756 294.453 327.223 293.68C328.689 292.88 330.516 292.48 332.703 292.48C334.703 292.48 336.369 292.867 337.703 293.64C339.063 294.387 340.089 295.533 340.783 297.08C341.476 298.627 341.823 300.573 341.823 302.92V304.52H327.063C327.116 306.013 327.343 307.267 327.743 308.28C328.143 309.267 328.743 310 329.543 310.48C330.369 310.933 331.409 311.16 332.663 311.16C333.436 311.16 334.129 311.067 334.743 310.88C335.356 310.667 335.876 310.373 336.303 310C336.729 309.6 337.063 309.133 337.303 308.6C337.543 308.04 337.663 307.413 337.663 306.72H341.743C341.743 307.973 341.529 309.08 341.103 310.04C340.676 311 340.049 311.813 339.223 312.48C338.423 313.12 337.463 313.613 336.343 313.96C335.223 314.307 333.983 314.48 332.623 314.48ZM327.143 301.48H337.463C337.463 300.44 337.343 299.573 337.103 298.88C336.889 298.16 336.569 297.573 336.143 297.12C335.716 296.667 335.209 296.347 334.623 296.16C334.036 295.947 333.369 295.84 332.623 295.84C331.503 295.84 330.543 296.04 329.743 296.44C328.969 296.84 328.369 297.467 327.943 298.32C327.516 299.147 327.249 300.2 327.143 301.48ZM360.74 314V302.72L350.06 286.56H355.18L363.02 298.72H363.22L370.98 286.56H375.9L365.22 302.72V314H360.74ZM384.035 314.48C381.848 314.48 379.995 314.093 378.475 313.32C376.981 312.52 375.848 311.307 375.075 309.68C374.328 308.053 373.955 305.987 373.955 303.48C373.955 300.947 374.328 298.88 375.075 297.28C375.848 295.653 376.981 294.453 378.475 293.68C379.995 292.88 381.848 292.48 384.035 292.48C386.275 292.48 388.141 292.88 389.635 293.68C391.128 294.453 392.248 295.653 392.995 297.28C393.768 298.88 394.155 300.947 394.155 303.48C394.155 305.987 393.768 308.053 392.995 309.68C392.248 311.307 391.128 312.52 389.635 313.32C388.141 314.093 386.275 314.48 384.035 314.48ZM384.035 311.04C385.368 311.04 386.461 310.787 387.315 310.28C388.168 309.747 388.795 308.947 389.195 307.88C389.621 306.813 389.835 305.467 389.835 303.84V303.12C389.835 301.493 389.621 300.147 389.195 299.08C388.795 298.013 388.168 297.227 387.315 296.72C386.461 296.187 385.368 295.92 384.035 295.92C382.728 295.92 381.648 296.187 380.795 296.72C379.941 297.227 379.301 298.013 378.875 299.08C378.475 300.147 378.275 301.493 378.275 303.12V303.84C378.275 305.467 378.475 306.813 378.875 307.88C379.301 308.947 379.941 309.747 380.795 310.28C381.648 310.787 382.728 311.04 384.035 311.04ZM404.995 314.48C402.968 314.48 401.328 313.947 400.075 312.88C398.822 311.787 398.195 309.933 398.195 307.32V292.96H402.355V306.68C402.355 307.48 402.448 308.147 402.635 308.68C402.848 309.213 403.142 309.64 403.515 309.96C403.888 310.28 404.328 310.507 404.835 310.64C405.342 310.773 405.902 310.84 406.515 310.84C407.475 310.84 408.342 310.613 409.115 310.16C409.915 309.68 410.555 309.027 411.035 308.2C411.515 307.347 411.755 306.373 411.755 305.28V292.96H415.915V314H412.515L412.155 311H411.875C411.368 311.773 410.768 312.413 410.075 312.92C409.382 313.427 408.608 313.813 407.755 314.08C406.928 314.347 406.008 314.48 404.995 314.48ZM427.049 314L437.809 286.56H443.529L454.329 314H449.529L447.089 307.64H434.089L431.649 314H427.049ZM435.529 303.84H445.609L442.529 295.8C442.449 295.56 442.329 295.227 442.169 294.8C442.009 294.373 441.835 293.907 441.649 293.4C441.489 292.893 441.315 292.387 441.129 291.88C440.969 291.347 440.822 290.867 440.689 290.44H440.449C440.289 290.947 440.089 291.547 439.849 292.24C439.609 292.933 439.369 293.6 439.129 294.24C438.915 294.88 438.729 295.4 438.569 295.8L435.529 303.84ZM457.301 314V292.96H460.741L461.101 296.36H461.341C461.581 295.693 461.888 295.067 462.261 294.48C462.661 293.893 463.168 293.413 463.781 293.04C464.421 292.667 465.194 292.48 466.101 292.48C466.528 292.48 466.901 292.52 467.221 292.6C467.568 292.68 467.834 292.747 468.021 292.8V296.72H466.621C465.768 296.72 465.008 296.853 464.341 297.12C463.701 297.387 463.154 297.787 462.701 298.32C462.274 298.827 461.954 299.453 461.741 300.2C461.554 300.947 461.461 301.787 461.461 302.72V314H457.301ZM479.459 314.48C477.299 314.48 475.485 314.093 474.019 313.32C472.579 312.52 471.485 311.307 470.739 309.68C469.992 308.053 469.619 305.987 469.619 303.48C469.619 300.947 469.992 298.88 470.739 297.28C471.485 295.653 472.592 294.453 474.059 293.68C475.525 292.88 477.352 292.48 479.539 292.48C481.539 292.48 483.205 292.867 484.539 293.64C485.899 294.387 486.925 295.533 487.619 297.08C488.312 298.627 488.659 300.573 488.659 302.92V304.52H473.899C473.952 306.013 474.179 307.267 474.579 308.28C474.979 309.267 475.579 310 476.379 310.48C477.205 310.933 478.245 311.16 479.499 311.16C480.272 311.16 480.965 311.067 481.579 310.88C482.192 310.667 482.712 310.373 483.139 310C483.565 309.6 483.899 309.133 484.139 308.6C484.379 308.04 484.499 307.413 484.499 306.72H488.579C488.579 307.973 488.365 309.08 487.939 310.04C487.512 311 486.885 311.813 486.059 312.48C485.259 313.12 484.299 313.613 483.179 313.96C482.059 314.307 480.819 314.48 479.459 314.48ZM473.979 301.48H484.299C484.299 300.44 484.179 299.573 483.939 298.88C483.725 298.16 483.405 297.573 482.979 297.12C482.552 296.667 482.045 296.347 481.459 296.16C480.872 295.947 480.205 295.84 479.459 295.84C478.339 295.84 477.379 296.04 476.579 296.44C475.805 296.84 475.205 297.467 474.779 298.32C474.352 299.147 474.085 300.2 473.979 301.48ZM501.65 314V286.56H506.13V310.12H519.81V314H501.65ZM532.12 314.48C529.934 314.48 528.08 314.093 526.56 313.32C525.067 312.52 523.934 311.307 523.16 309.68C522.414 308.053 522.04 305.987 522.04 303.48C522.04 300.947 522.414 298.88 523.16 297.28C523.934 295.653 525.067 294.453 526.56 293.68C528.08 292.88 529.934 292.48 532.12 292.48C534.36 292.48 536.227 292.88 537.72 293.68C539.214 294.453 540.334 295.653 541.08 297.28C541.854 298.88 542.24 300.947 542.24 303.48C542.24 305.987 541.854 308.053 541.08 309.68C540.334 311.307 539.214 312.52 537.72 313.32C536.227 314.093 534.36 314.48 532.12 314.48ZM532.12 311.04C533.454 311.04 534.547 310.787 535.4 310.28C536.254 309.747 536.88 308.947 537.28 307.88C537.707 306.813 537.92 305.467 537.92 303.84V303.12C537.92 301.493 537.707 300.147 537.28 299.08C536.88 298.013 536.254 297.227 535.4 296.72C534.547 296.187 533.454 295.92 532.12 295.92C530.814 295.92 529.734 296.187 528.88 296.72C528.027 297.227 527.387 298.013 526.96 299.08C526.56 300.147 526.36 301.493 526.36 303.12V303.84C526.36 305.467 526.56 306.813 526.96 307.88C527.387 308.947 528.027 309.747 528.88 310.28C529.734 310.787 530.814 311.04 532.12 311.04ZM554.241 314.48C552.774 314.48 551.481 314.32 550.361 314C549.241 313.68 548.307 313.24 547.561 312.68C546.814 312.12 546.241 311.453 545.841 310.68C545.467 309.88 545.281 309 545.281 308.04C545.281 307.907 545.281 307.787 545.281 307.68C545.307 307.573 545.321 307.48 545.321 307.4H549.441C549.441 307.48 549.441 307.56 549.441 307.64C549.441 307.693 549.441 307.76 549.441 307.84C549.441 308.667 549.667 309.333 550.121 309.84C550.574 310.32 551.174 310.667 551.921 310.88C552.694 311.067 553.534 311.16 554.441 311.16C555.241 311.16 555.974 311.067 556.641 310.88C557.334 310.667 557.894 310.36 558.321 309.96C558.774 309.56 559.001 309.053 559.001 308.44C559.001 307.64 558.721 307.027 558.161 306.6C557.601 306.173 556.867 305.84 555.961 305.6C555.054 305.333 554.107 305.053 553.121 304.76C552.241 304.52 551.361 304.267 550.481 304C549.627 303.707 548.854 303.333 548.161 302.88C547.467 302.427 546.907 301.853 546.481 301.16C546.054 300.467 545.841 299.6 545.841 298.56C545.841 297.573 546.054 296.707 546.481 295.96C546.907 295.213 547.494 294.587 548.241 294.08C549.014 293.573 549.921 293.187 550.961 292.92C552.027 292.653 553.187 292.52 554.441 292.52C555.747 292.52 556.907 292.667 557.921 292.96C558.934 293.227 559.787 293.613 560.481 294.12C561.201 294.627 561.747 295.24 562.121 295.96C562.494 296.653 562.681 297.4 562.681 298.2C562.681 298.36 562.667 298.533 562.641 298.72C562.641 298.88 562.641 298.987 562.641 299.04H558.561V298.68C558.561 298.147 558.414 297.667 558.121 297.24C557.827 296.813 557.361 296.467 556.721 296.2C556.107 295.933 555.281 295.8 554.241 295.8C553.547 295.8 552.934 295.867 552.401 296C551.867 296.107 551.427 296.267 551.081 296.48C550.734 296.693 550.467 296.947 550.281 297.24C550.121 297.533 550.041 297.867 550.041 298.24C550.041 298.853 550.254 299.333 550.681 299.68C551.134 300 551.721 300.28 552.441 300.52C553.161 300.733 553.934 300.973 554.761 301.24C555.721 301.507 556.694 301.787 557.681 302.08C558.667 302.347 559.574 302.693 560.401 303.12C561.254 303.547 561.934 304.133 562.441 304.88C562.974 305.627 563.241 306.627 563.241 307.88C563.241 309.027 563.014 310.027 562.561 310.88C562.107 311.733 561.467 312.427 560.641 312.96C559.841 313.467 558.894 313.84 557.801 314.08C556.707 314.347 555.521 314.48 554.241 314.48ZM572.697 314.48C571.497 314.48 570.551 314.253 569.857 313.8C569.191 313.32 568.711 312.72 568.417 312C568.151 311.253 568.017 310.467 568.017 309.64V296.4H565.377V292.96H568.097L568.857 287.08H572.177V292.96H575.977V296.4H572.177V309.16C572.177 309.773 572.311 310.24 572.577 310.56C572.844 310.88 573.284 311.04 573.897 311.04H575.977V313.84C575.711 313.947 575.377 314.04 574.977 314.12C574.604 314.227 574.217 314.307 573.817 314.36C573.417 314.44 573.044 314.48 572.697 314.48ZM580.125 320.16V318.36C580.712 318.253 581.178 317.987 581.525 317.56C581.898 317.16 582.165 316.653 582.325 316.04C582.512 315.427 582.605 314.747 582.605 314H580.485V309.36H584.925V313.56C584.925 315.107 584.685 316.333 584.205 317.24C583.752 318.147 583.152 318.813 582.405 319.24C581.685 319.693 580.925 320 580.125 320.16ZM599.931 314V286.56H613.611C615.558 286.56 617.171 286.92 618.451 287.64C619.731 288.36 620.691 289.36 621.331 290.64C621.998 291.893 622.331 293.387 622.331 295.12C622.331 296.853 621.985 298.387 621.291 299.72C620.598 301.027 619.585 302.04 618.251 302.76C616.945 303.48 615.345 303.84 613.451 303.84H604.411V314H599.931ZM604.411 300H613.251C614.665 300 615.771 299.573 616.571 298.72C617.398 297.867 617.811 296.68 617.811 295.16C617.811 294.147 617.638 293.293 617.291 292.6C616.945 291.88 616.438 291.333 615.771 290.96C615.105 290.587 614.265 290.4 613.251 290.4H604.411V300ZM630.98 314.48C630.314 314.48 629.594 314.4 628.82 314.24C628.047 314.08 627.314 313.787 626.62 313.36C625.954 312.933 625.407 312.347 624.98 311.6C624.554 310.827 624.34 309.827 624.34 308.6C624.34 307.16 624.674 305.973 625.34 305.04C626.007 304.107 626.94 303.373 628.14 302.84C629.34 302.307 630.767 301.933 632.42 301.72C634.1 301.507 635.927 301.4 637.9 301.4V299.32C637.9 298.627 637.78 298.013 637.54 297.48C637.327 296.947 636.914 296.533 636.3 296.24C635.714 295.947 634.86 295.8 633.74 295.8C632.62 295.8 631.74 295.947 631.1 296.24C630.487 296.507 630.047 296.853 629.78 297.28C629.54 297.68 629.42 298.12 629.42 298.6V299.2H625.42C625.394 299.067 625.38 298.933 625.38 298.8C625.38 298.667 625.38 298.507 625.38 298.32C625.38 297.067 625.727 296.013 626.42 295.16C627.14 294.28 628.14 293.613 629.42 293.16C630.7 292.707 632.18 292.48 633.86 292.48C635.674 292.48 637.18 292.747 638.38 293.28C639.607 293.787 640.527 294.52 641.14 295.48C641.754 296.44 642.06 297.6 642.06 298.96V309.64C642.06 310.147 642.18 310.507 642.42 310.72C642.687 310.933 642.994 311.04 643.34 311.04H644.78V313.84C644.46 313.973 644.06 314.107 643.58 314.24C643.1 314.373 642.54 314.44 641.9 314.44C641.18 314.44 640.567 314.307 640.06 314.04C639.58 313.8 639.18 313.453 638.86 313C638.567 312.52 638.367 311.987 638.26 311.4H638.02C637.54 312.013 636.954 312.56 636.26 313.04C635.594 313.493 634.82 313.84 633.94 314.08C633.06 314.347 632.074 314.48 630.98 314.48ZM632.14 311.04C632.967 311.04 633.727 310.92 634.42 310.68C635.14 310.413 635.754 310.053 636.26 309.6C636.767 309.12 637.167 308.56 637.46 307.92C637.754 307.253 637.9 306.533 637.9 305.76V304.36C636.06 304.36 634.447 304.467 633.06 304.68C631.674 304.893 630.594 305.293 629.82 305.88C629.047 306.44 628.66 307.227 628.66 308.24C628.66 308.853 628.794 309.373 629.06 309.8C629.327 310.2 629.727 310.507 630.26 310.72C630.794 310.933 631.42 311.04 632.14 311.04ZM647.653 314V285.08H651.813V314H647.653ZM658.824 306.6L657.704 286.56H662.584L661.464 306.6H658.824ZM657.904 314V309.36H662.384V314H657.904ZM22.6658 402V374.56H27.1458V398.12H40.8258V402H22.6658ZM52.8961 402.48C50.7361 402.48 48.9228 402.093 47.4561 401.32C46.0161 400.52 44.9228 399.307 44.1761 397.68C43.4294 396.053 43.0561 393.987 43.0561 391.48C43.0561 388.947 43.4294 386.88 44.1761 385.28C44.9228 383.653 46.0294 382.453 47.4961 381.68C48.9628 380.88 50.7894 380.48 52.9761 380.48C54.9761 380.48 56.6428 380.867 57.9761 381.64C59.3361 382.387 60.3628 383.533 61.0561 385.08C61.7494 386.627 62.0961 388.573 62.0961 390.92V392.52H47.3361C47.3894 394.013 47.6161 395.267 48.0161 396.28C48.4161 397.267 49.0161 398 49.8161 398.48C50.6428 398.933 51.6828 399.16 52.9361 399.16C53.7094 399.16 54.4028 399.067 55.0161 398.88C55.6294 398.667 56.1494 398.373 56.5761 398C57.0028 397.6 57.3361 397.133 57.5761 396.6C57.8161 396.04 57.9361 395.413 57.9361 394.72H62.0161C62.0161 395.973 61.8028 397.08 61.3761 398.04C60.9494 399 60.3228 399.813 59.4961 400.48C58.6961 401.12 57.7361 401.613 56.6161 401.96C55.4961 402.307 54.2561 402.48 52.8961 402.48ZM47.4161 389.48H57.7361C57.7361 388.44 57.6161 387.573 57.3761 386.88C57.1628 386.16 56.8428 385.573 56.4161 385.12C55.9894 384.667 55.4828 384.347 54.8961 384.16C54.3094 383.947 53.6428 383.84 52.8961 383.84C51.7761 383.84 50.8161 384.04 50.0161 384.44C49.2428 384.84 48.6428 385.467 48.2161 386.32C47.7894 387.147 47.5228 388.2 47.4161 389.48ZM71.5645 402.48C70.3645 402.48 69.4179 402.253 68.7245 401.8C68.0579 401.32 67.5779 400.72 67.2845 400C67.0179 399.253 66.8845 398.467 66.8845 397.64V384.4H64.2445V380.96H66.9645L67.7245 375.08H71.0445V380.96H74.8445V384.4H71.0445V397.16C71.0445 397.773 71.1779 398.24 71.4445 398.56C71.7112 398.88 72.1512 399.04 72.7645 399.04H74.8445V401.84C74.5779 401.947 74.2445 402.04 73.8445 402.12C73.4712 402.227 73.0845 402.307 72.6845 402.36C72.2845 402.44 71.9112 402.48 71.5645 402.48ZM78.512 385.36V383.52C79.0987 383.413 79.5787 383.16 79.952 382.76C80.3254 382.333 80.592 381.813 80.752 381.2C80.912 380.587 80.992 379.92 80.992 379.2H78.872V374.56H83.352V378.76C83.352 380.28 83.112 381.507 82.632 382.44C82.152 383.347 81.5387 384.027 80.792 384.48C80.072 384.907 79.312 385.2 78.512 385.36ZM94.2017 402.48C92.7351 402.48 91.4417 402.32 90.3217 402C89.2017 401.68 88.2684 401.24 87.5217 400.68C86.7751 400.12 86.2017 399.453 85.8017 398.68C85.4284 397.88 85.2417 397 85.2417 396.04C85.2417 395.907 85.2417 395.787 85.2417 395.68C85.2684 395.573 85.2817 395.48 85.2817 395.4H89.4017C89.4017 395.48 89.4017 395.56 89.4017 395.64C89.4017 395.693 89.4017 395.76 89.4017 395.84C89.4017 396.667 89.6284 397.333 90.0817 397.84C90.5351 398.32 91.1351 398.667 91.8817 398.88C92.6551 399.067 93.4951 399.16 94.4017 399.16C95.2017 399.16 95.9351 399.067 96.6017 398.88C97.2951 398.667 97.8551 398.36 98.2817 397.96C98.7351 397.56 98.9617 397.053 98.9617 396.44C98.9617 395.64 98.6817 395.027 98.1217 394.6C97.5617 394.173 96.8284 393.84 95.9217 393.6C95.0151 393.333 94.0684 393.053 93.0817 392.76C92.2017 392.52 91.3217 392.267 90.4417 392C89.5884 391.707 88.8151 391.333 88.1217 390.88C87.4284 390.427 86.8684 389.853 86.4417 389.16C86.0151 388.467 85.8017 387.6 85.8017 386.56C85.8017 385.573 86.0151 384.707 86.4417 383.96C86.8684 383.213 87.4551 382.587 88.2017 382.08C88.9751 381.573 89.8817 381.187 90.9217 380.92C91.9884 380.653 93.1484 380.52 94.4017 380.52C95.7084 380.52 96.8684 380.667 97.8817 380.96C98.8951 381.227 99.7484 381.613 100.442 382.12C101.162 382.627 101.708 383.24 102.082 383.96C102.455 384.653 102.642 385.4 102.642 386.2C102.642 386.36 102.628 386.533 102.602 386.72C102.602 386.88 102.602 386.987 102.602 387.04H98.5217V386.68C98.5217 386.147 98.3751 385.667 98.0817 385.24C97.7884 384.813 97.3217 384.467 96.6817 384.2C96.0684 383.933 95.2417 383.8 94.2017 383.8C93.5084 383.8 92.8951 383.867 92.3617 384C91.8284 384.107 91.3884 384.267 91.0417 384.48C90.6951 384.693 90.4284 384.947 90.2417 385.24C90.0817 385.533 90.0017 385.867 90.0017 386.24C90.0017 386.853 90.2151 387.333 90.6417 387.68C91.0951 388 91.6817 388.28 92.4017 388.52C93.1217 388.733 93.8951 388.973 94.7217 389.24C95.6817 389.507 96.6551 389.787 97.6417 390.08C98.6284 390.347 99.5351 390.693 100.362 391.12C101.215 391.547 101.895 392.133 102.402 392.88C102.935 393.627 103.202 394.627 103.202 395.88C103.202 397.027 102.975 398.027 102.522 398.88C102.068 399.733 101.428 400.427 100.602 400.96C99.8017 401.467 98.8551 401.84 97.7617 402.08C96.6684 402.347 95.4817 402.48 94.2017 402.48ZM122.901 402V378.4H113.821V374.56H136.541V378.4H127.381V402H122.901ZM142.23 402.48C141.564 402.48 140.844 402.4 140.07 402.24C139.297 402.08 138.564 401.787 137.87 401.36C137.204 400.933 136.657 400.347 136.23 399.6C135.804 398.827 135.59 397.827 135.59 396.6C135.59 395.16 135.924 393.973 136.59 393.04C137.257 392.107 138.19 391.373 139.39 390.84C140.59 390.307 142.017 389.933 143.67 389.72C145.35 389.507 147.177 389.4 149.15 389.4V387.32C149.15 386.627 149.03 386.013 148.79 385.48C148.577 384.947 148.164 384.533 147.55 384.24C146.964 383.947 146.11 383.8 144.99 383.8C143.87 383.8 142.99 383.947 142.35 384.24C141.737 384.507 141.297 384.853 141.03 385.28C140.79 385.68 140.67 386.12 140.67 386.6V387.2H136.67C136.644 387.067 136.63 386.933 136.63 386.8C136.63 386.667 136.63 386.507 136.63 386.32C136.63 385.067 136.977 384.013 137.67 383.16C138.39 382.28 139.39 381.613 140.67 381.16C141.95 380.707 143.43 380.48 145.11 380.48C146.924 380.48 148.43 380.747 149.63 381.28C150.857 381.787 151.777 382.52 152.39 383.48C153.004 384.44 153.31 385.6 153.31 386.96V397.64C153.31 398.147 153.43 398.507 153.67 398.72C153.937 398.933 154.244 399.04 154.59 399.04H156.03V401.84C155.71 401.973 155.31 402.107 154.83 402.24C154.35 402.373 153.79 402.44 153.15 402.44C152.43 402.44 151.817 402.307 151.31 402.04C150.83 401.8 150.43 401.453 150.11 401C149.817 400.52 149.617 399.987 149.51 399.4H149.27C148.79 400.013 148.204 400.56 147.51 401.04C146.844 401.493 146.07 401.84 145.19 402.08C144.31 402.347 143.324 402.48 142.23 402.48ZM143.39 399.04C144.217 399.04 144.977 398.92 145.67 398.68C146.39 398.413 147.004 398.053 147.51 397.6C148.017 397.12 148.417 396.56 148.71 395.92C149.004 395.253 149.15 394.533 149.15 393.76V392.36C147.31 392.36 145.697 392.467 144.31 392.68C142.924 392.893 141.844 393.293 141.07 393.88C140.297 394.44 139.91 395.227 139.91 396.24C139.91 396.853 140.044 397.373 140.31 397.8C140.577 398.2 140.977 398.507 141.51 398.72C142.044 398.933 142.67 399.04 143.39 399.04ZM158.903 402V373.08H163.063V390.56L171.343 380.96H176.263L169.143 389.12L176.663 402H171.863L166.463 392.16L163.063 395.52V402H158.903ZM187.388 402.48C185.228 402.48 183.415 402.093 181.948 401.32C180.508 400.52 179.415 399.307 178.668 397.68C177.922 396.053 177.548 393.987 177.548 391.48C177.548 388.947 177.922 386.88 178.668 385.28C179.415 383.653 180.522 382.453 181.988 381.68C183.455 380.88 185.282 380.48 187.468 380.48C189.468 380.48 191.135 380.867 192.468 381.64C193.828 382.387 194.855 383.533 195.548 385.08C196.242 386.627 196.588 388.573 196.588 390.92V392.52H181.828C181.882 394.013 182.108 395.267 182.508 396.28C182.908 397.267 183.508 398 184.308 398.48C185.135 398.933 186.175 399.16 187.428 399.16C188.202 399.16 188.895 399.067 189.508 398.88C190.122 398.667 190.642 398.373 191.068 398C191.495 397.6 191.828 397.133 192.068 396.6C192.308 396.04 192.428 395.413 192.428 394.72H196.508C196.508 395.973 196.295 397.08 195.868 398.04C195.442 399 194.815 399.813 193.988 400.48C193.188 401.12 192.228 401.613 191.108 401.96C189.988 402.307 188.748 402.48 187.388 402.48ZM181.908 389.48H192.228C192.228 388.44 192.108 387.573 191.868 386.88C191.655 386.16 191.335 385.573 190.908 385.12C190.482 384.667 189.975 384.347 189.388 384.16C188.802 383.947 188.135 383.84 187.388 383.84C186.268 383.84 185.308 384.04 184.508 384.44C183.735 384.84 183.135 385.467 182.708 386.32C182.282 387.147 182.015 388.2 181.908 389.48ZM215.506 402V390.72L204.826 374.56H209.946L217.786 386.72H217.986L225.746 374.56H230.666L219.986 390.72V402H215.506ZM238.8 402.48C236.613 402.48 234.76 402.093 233.24 401.32C231.747 400.52 230.613 399.307 229.84 397.68C229.093 396.053 228.72 393.987 228.72 391.48C228.72 388.947 229.093 386.88 229.84 385.28C230.613 383.653 231.747 382.453 233.24 381.68C234.76 380.88 236.613 380.48 238.8 380.48C241.04 380.48 242.907 380.88 244.4 381.68C245.893 382.453 247.013 383.653 247.76 385.28C248.533 386.88 248.92 388.947 248.92 391.48C248.92 393.987 248.533 396.053 247.76 397.68C247.013 399.307 245.893 400.52 244.4 401.32C242.907 402.093 241.04 402.48 238.8 402.48ZM238.8 399.04C240.133 399.04 241.227 398.787 242.08 398.28C242.933 397.747 243.56 396.947 243.96 395.88C244.387 394.813 244.6 393.467 244.6 391.84V391.12C244.6 389.493 244.387 388.147 243.96 387.08C243.56 386.013 242.933 385.227 242.08 384.72C241.227 384.187 240.133 383.92 238.8 383.92C237.493 383.92 236.413 384.187 235.56 384.72C234.707 385.227 234.067 386.013 233.64 387.08C233.24 388.147 233.04 389.493 233.04 391.12V391.84C233.04 393.467 233.24 394.813 233.64 395.88C234.067 396.947 234.707 397.747 235.56 398.28C236.413 398.787 237.493 399.04 238.8 399.04ZM259.76 402.48C257.734 402.48 256.094 401.947 254.84 400.88C253.587 399.787 252.96 397.933 252.96 395.32V380.96H257.12V394.68C257.12 395.48 257.214 396.147 257.4 396.68C257.614 397.213 257.907 397.64 258.28 397.96C258.654 398.28 259.094 398.507 259.6 398.64C260.107 398.773 260.667 398.84 261.28 398.84C262.24 398.84 263.107 398.613 263.88 398.16C264.68 397.68 265.32 397.027 265.8 396.2C266.28 395.347 266.52 394.373 266.52 393.28V380.96H270.68V402H267.28L266.92 399H266.64C266.134 399.773 265.534 400.413 264.84 400.92C264.147 401.427 263.374 401.813 262.52 402.08C261.694 402.347 260.774 402.48 259.76 402.48ZM284.814 402V374.56H299.374C300.894 374.56 302.228 374.84 303.374 375.4C304.521 375.933 305.414 376.707 306.054 377.72C306.721 378.733 307.054 379.92 307.054 381.28C307.054 382.32 306.854 383.267 306.454 384.12C306.081 384.973 305.548 385.693 304.854 386.28C304.188 386.867 303.428 387.307 302.574 387.6V387.76C303.561 387.973 304.441 388.373 305.214 388.96C306.014 389.52 306.641 390.267 307.094 391.2C307.574 392.107 307.814 393.2 307.814 394.48C307.814 396.213 307.428 397.64 306.654 398.76C305.908 399.88 304.908 400.707 303.654 401.24C302.401 401.747 300.974 402 299.374 402H284.814ZM289.294 398.16H299.014C300.241 398.16 301.241 397.84 302.014 397.2C302.814 396.533 303.214 395.467 303.214 394C303.214 393.12 303.041 392.373 302.694 391.76C302.374 391.12 301.881 390.64 301.214 390.32C300.548 389.973 299.708 389.8 298.694 389.8H289.294V398.16ZM289.294 386.04H298.334C299.188 386.04 299.921 385.88 300.534 385.56C301.148 385.24 301.614 384.787 301.934 384.2C302.281 383.613 302.454 382.96 302.454 382.24C302.454 380.933 302.094 379.973 301.374 379.36C300.681 378.72 299.761 378.4 298.614 378.4H289.294V386.04ZM317.66 402.48C316.993 402.48 316.273 402.4 315.5 402.24C314.727 402.08 313.993 401.787 313.3 401.36C312.633 400.933 312.087 400.347 311.66 399.6C311.233 398.827 311.02 397.827 311.02 396.6C311.02 395.16 311.353 393.973 312.02 393.04C312.687 392.107 313.62 391.373 314.82 390.84C316.02 390.307 317.447 389.933 319.1 389.72C320.78 389.507 322.607 389.4 324.58 389.4V387.32C324.58 386.627 324.46 386.013 324.22 385.48C324.007 384.947 323.593 384.533 322.98 384.24C322.393 383.947 321.54 383.8 320.42 383.8C319.3 383.8 318.42 383.947 317.78 384.24C317.167 384.507 316.727 384.853 316.46 385.28C316.22 385.68 316.1 386.12 316.1 386.6V387.2H312.1C312.073 387.067 312.06 386.933 312.06 386.8C312.06 386.667 312.06 386.507 312.06 386.32C312.06 385.067 312.407 384.013 313.1 383.16C313.82 382.28 314.82 381.613 316.1 381.16C317.38 380.707 318.86 380.48 320.54 380.48C322.353 380.48 323.86 380.747 325.06 381.28C326.287 381.787 327.207 382.52 327.82 383.48C328.433 384.44 328.74 385.6 328.74 386.96V397.64C328.74 398.147 328.86 398.507 329.1 398.72C329.367 398.933 329.673 399.04 330.02 399.04H331.46V401.84C331.14 401.973 330.74 402.107 330.26 402.24C329.78 402.373 329.22 402.44 328.58 402.44C327.86 402.44 327.247 402.307 326.74 402.04C326.26 401.8 325.86 401.453 325.54 401C325.247 400.52 325.047 399.987 324.94 399.4H324.7C324.22 400.013 323.633 400.56 322.94 401.04C322.273 401.493 321.5 401.84 320.62 402.08C319.74 402.347 318.753 402.48 317.66 402.48ZM318.82 399.04C319.647 399.04 320.407 398.92 321.1 398.68C321.82 398.413 322.433 398.053 322.94 397.6C323.447 397.12 323.847 396.56 324.14 395.92C324.433 395.253 324.58 394.533 324.58 393.76V392.36C322.74 392.36 321.127 392.467 319.74 392.68C318.353 392.893 317.273 393.293 316.5 393.88C315.727 394.44 315.34 395.227 315.34 396.24C315.34 396.853 315.473 397.373 315.74 397.8C316.007 398.2 316.407 398.507 316.94 398.72C317.473 398.933 318.1 399.04 318.82 399.04ZM342.692 402.48C340.586 402.48 338.826 402.093 337.412 401.32C335.999 400.52 334.932 399.307 334.212 397.68C333.519 396.053 333.172 393.987 333.172 391.48C333.172 388.973 333.532 386.92 334.252 385.32C334.972 383.693 336.039 382.48 337.452 381.68C338.892 380.88 340.652 380.48 342.732 380.48C344.172 380.48 345.426 380.667 346.492 381.04C347.559 381.387 348.466 381.92 349.212 382.64C349.959 383.333 350.506 384.2 350.852 385.24C351.226 386.28 351.412 387.467 351.412 388.8H347.212C347.212 387.68 347.052 386.76 346.732 386.04C346.412 385.32 345.919 384.787 345.252 384.44C344.586 384.067 343.719 383.88 342.652 383.88C341.532 383.88 340.586 384.147 339.812 384.68C339.039 385.187 338.452 385.973 338.052 387.04C337.652 388.08 337.452 389.453 337.452 391.16V391.84C337.452 393.467 337.639 394.827 338.012 395.92C338.412 396.987 338.999 397.787 339.772 398.32C340.572 398.827 341.586 399.08 342.812 399.08C343.879 399.08 344.732 398.893 345.372 398.52C346.039 398.12 346.532 397.56 346.852 396.84C347.199 396.093 347.372 395.2 347.372 394.16H351.412C351.412 395.413 351.226 396.547 350.852 397.56C350.506 398.573 349.959 399.453 349.212 400.2C348.492 400.92 347.586 401.48 346.492 401.88C345.399 402.28 344.132 402.48 342.692 402.48ZM355.621 402V373.08H359.781V390.56L368.061 380.96H372.981L365.861 389.12L373.381 402H368.581L363.181 392.16L359.781 395.52V402H355.621ZM390.948 402V378.4H381.868V374.56H404.588V378.4H395.428V402H390.948ZM413.917 402.48C411.731 402.48 409.877 402.093 408.357 401.32C406.864 400.52 405.731 399.307 404.957 397.68C404.211 396.053 403.837 393.987 403.837 391.48C403.837 388.947 404.211 386.88 404.957 385.28C405.731 383.653 406.864 382.453 408.357 381.68C409.877 380.88 411.731 380.48 413.917 380.48C416.157 380.48 418.024 380.88 419.517 381.68C421.011 382.453 422.131 383.653 422.877 385.28C423.651 386.88 424.037 388.947 424.037 391.48C424.037 393.987 423.651 396.053 422.877 397.68C422.131 399.307 421.011 400.52 419.517 401.32C418.024 402.093 416.157 402.48 413.917 402.48ZM413.917 399.04C415.251 399.04 416.344 398.787 417.197 398.28C418.051 397.747 418.677 396.947 419.077 395.88C419.504 394.813 419.717 393.467 419.717 391.84V391.12C419.717 389.493 419.504 388.147 419.077 387.08C418.677 386.013 418.051 385.227 417.197 384.72C416.344 384.187 415.251 383.92 413.917 383.92C412.611 383.92 411.531 384.187 410.677 384.72C409.824 385.227 409.184 386.013 408.757 387.08C408.357 388.147 408.157 389.493 408.157 391.12V391.84C408.157 393.467 408.357 394.813 408.757 395.88C409.184 396.947 409.824 397.747 410.677 398.28C411.531 398.787 412.611 399.04 413.917 399.04ZM443.761 402V378.4H434.681V374.56H457.401V378.4H448.241V402H443.761ZM460.973 402V373.08H465.133V383.48H465.413C465.92 382.84 466.493 382.307 467.133 381.88C467.773 381.427 468.493 381.08 469.293 380.84C470.093 380.6 470.973 380.48 471.933 380.48C473.266 380.48 474.44 380.72 475.453 381.2C476.466 381.653 477.253 382.4 477.813 383.44C478.4 384.48 478.693 385.88 478.693 387.64V402H474.533V388.28C474.533 387.48 474.426 386.813 474.213 386.28C474.026 385.747 473.746 385.32 473.373 385C473 384.68 472.56 384.453 472.053 384.32C471.546 384.187 470.986 384.12 470.373 384.12C469.413 384.12 468.533 384.347 467.733 384.8C466.96 385.253 466.333 385.893 465.853 386.72C465.373 387.547 465.133 388.533 465.133 389.68V402H460.973ZM492.623 402.48C490.463 402.48 488.649 402.093 487.183 401.32C485.743 400.52 484.649 399.307 483.903 397.68C483.156 396.053 482.783 393.987 482.783 391.48C482.783 388.947 483.156 386.88 483.903 385.28C484.649 383.653 485.756 382.453 487.223 381.68C488.689 380.88 490.516 380.48 492.703 380.48C494.703 380.48 496.369 380.867 497.703 381.64C499.063 382.387 500.089 383.533 500.783 385.08C501.476 386.627 501.823 388.573 501.823 390.92V392.52H487.063C487.116 394.013 487.343 395.267 487.743 396.28C488.143 397.267 488.743 398 489.543 398.48C490.369 398.933 491.409 399.16 492.663 399.16C493.436 399.16 494.129 399.067 494.743 398.88C495.356 398.667 495.876 398.373 496.303 398C496.729 397.6 497.063 397.133 497.303 396.6C497.543 396.04 497.663 395.413 497.663 394.72H501.743C501.743 395.973 501.529 397.08 501.103 398.04C500.676 399 500.049 399.813 499.223 400.48C498.423 401.12 497.463 401.613 496.343 401.96C495.223 402.307 493.983 402.48 492.623 402.48ZM487.143 389.48H497.463C497.463 388.44 497.343 387.573 497.103 386.88C496.889 386.16 496.569 385.573 496.143 385.12C495.716 384.667 495.209 384.347 494.623 384.16C494.036 383.947 493.369 383.84 492.623 383.84C491.503 383.84 490.543 384.04 489.743 384.44C488.969 384.84 488.369 385.467 487.943 386.32C487.516 387.147 487.249 388.2 487.143 389.48ZM527.254 402.48C524.428 402.48 521.974 401.96 519.894 400.92C517.841 399.88 516.254 398.307 515.134 396.2C514.041 394.093 513.494 391.453 513.494 388.28C513.494 385.08 514.041 382.44 515.134 380.36C516.254 378.253 517.841 376.68 519.894 375.64C521.974 374.6 524.428 374.08 527.254 374.08C530.134 374.08 532.601 374.6 534.654 375.64C536.708 376.68 538.281 378.253 539.374 380.36C540.494 382.44 541.054 385.08 541.054 388.28C541.054 391.453 540.494 394.093 539.374 396.2C538.281 398.307 536.708 399.88 534.654 400.92C532.601 401.96 530.134 402.48 527.254 402.48ZM527.254 398.68C528.721 398.68 530.014 398.48 531.134 398.08C532.281 397.68 533.241 397.067 534.014 396.24C534.814 395.413 535.414 394.373 535.814 393.12C536.241 391.867 536.454 390.413 536.454 388.76V387.88C536.454 386.173 536.241 384.693 535.814 383.44C535.414 382.187 534.814 381.147 534.014 380.32C533.241 379.493 532.281 378.88 531.134 378.48C530.014 378.08 528.721 377.88 527.254 377.88C525.814 377.88 524.521 378.08 523.374 378.48C522.254 378.88 521.294 379.493 520.494 380.32C519.721 381.147 519.134 382.187 518.734 383.44C518.334 384.693 518.134 386.173 518.134 387.88V388.76C518.134 390.413 518.334 391.867 518.734 393.12C519.134 394.373 519.721 395.413 520.494 396.24C521.294 397.067 522.254 397.68 523.374 398.08C524.521 398.48 525.814 398.68 527.254 398.68ZM550.9 402.48C549.7 402.48 548.754 402.253 548.06 401.8C547.394 401.32 546.914 400.72 546.62 400C546.354 399.253 546.22 398.467 546.22 397.64V384.4H543.58V380.96H546.3L547.06 375.08H550.38V380.96H554.18V384.4H550.38V397.16C550.38 397.773 550.514 398.24 550.78 398.56C551.047 398.88 551.487 399.04 552.1 399.04H554.18V401.84C553.914 401.947 553.58 402.04 553.18 402.12C552.807 402.227 552.42 402.307 552.02 402.36C551.62 402.44 551.247 402.48 550.9 402.48ZM557.848 402V373.08H562.008V383.48H562.288C562.795 382.84 563.368 382.307 564.008 381.88C564.648 381.427 565.368 381.08 566.168 380.84C566.968 380.6 567.848 380.48 568.808 380.48C570.141 380.48 571.315 380.72 572.328 381.2C573.341 381.653 574.128 382.4 574.688 383.44C575.275 384.48 575.568 385.88 575.568 387.64V402H571.408V388.28C571.408 387.48 571.301 386.813 571.088 386.28C570.901 385.747 570.621 385.32 570.248 385C569.875 384.68 569.435 384.453 568.928 384.32C568.421 384.187 567.861 384.12 567.248 384.12C566.288 384.12 565.408 384.347 564.608 384.8C563.835 385.253 563.208 385.893 562.728 386.72C562.248 387.547 562.008 388.533 562.008 389.68V402H557.848ZM589.498 402.48C587.338 402.48 585.524 402.093 584.058 401.32C582.618 400.52 581.524 399.307 580.778 397.68C580.031 396.053 579.658 393.987 579.658 391.48C579.658 388.947 580.031 386.88 580.778 385.28C581.524 383.653 582.631 382.453 584.098 381.68C585.564 380.88 587.391 380.48 589.578 380.48C591.578 380.48 593.244 380.867 594.578 381.64C595.938 382.387 596.964 383.533 597.658 385.08C598.351 386.627 598.698 388.573 598.698 390.92V392.52H583.938C583.991 394.013 584.218 395.267 584.618 396.28C585.018 397.267 585.618 398 586.418 398.48C587.244 398.933 588.284 399.16 589.538 399.16C590.311 399.16 591.004 399.067 591.618 398.88C592.231 398.667 592.751 398.373 593.178 398C593.604 397.6 593.938 397.133 594.178 396.6C594.418 396.04 594.538 395.413 594.538 394.72H598.618C598.618 395.973 598.404 397.08 597.978 398.04C597.551 399 596.924 399.813 596.098 400.48C595.298 401.12 594.338 401.613 593.218 401.96C592.098 402.307 590.858 402.48 589.498 402.48ZM584.018 389.48H594.338C594.338 388.44 594.218 387.573 593.978 386.88C593.764 386.16 593.444 385.573 593.018 385.12C592.591 384.667 592.084 384.347 591.498 384.16C590.911 383.947 590.244 383.84 589.498 383.84C588.378 383.84 587.418 384.04 586.618 384.44C585.844 384.84 585.244 385.467 584.818 386.32C584.391 387.147 584.124 388.2 584.018 389.48ZM602.926 402V380.96H606.366L606.726 384.36H606.966C607.206 383.693 607.513 383.067 607.886 382.48C608.286 381.893 608.793 381.413 609.406 381.04C610.046 380.667 610.819 380.48 611.726 380.48C612.153 380.48 612.526 380.52 612.846 380.6C613.193 380.68 613.459 380.747 613.646 380.8V384.72H612.246C611.393 384.72 610.633 384.853 609.966 385.12C609.326 385.387 608.779 385.787 608.326 386.32C607.899 386.827 607.579 387.453 607.366 388.2C607.179 388.947 607.086 389.787 607.086 390.72V402H602.926ZM624.514 402.48C623.048 402.48 621.754 402.32 620.634 402C619.514 401.68 618.581 401.24 617.834 400.68C617.088 400.12 616.514 399.453 616.114 398.68C615.741 397.88 615.554 397 615.554 396.04C615.554 395.907 615.554 395.787 615.554 395.68C615.581 395.573 615.594 395.48 615.594 395.4H619.714C619.714 395.48 619.714 395.56 619.714 395.64C619.714 395.693 619.714 395.76 619.714 395.84C619.714 396.667 619.941 397.333 620.394 397.84C620.848 398.32 621.448 398.667 622.194 398.88C622.968 399.067 623.808 399.16 624.714 399.16C625.514 399.16 626.248 399.067 626.914 398.88C627.608 398.667 628.168 398.36 628.594 397.96C629.048 397.56 629.274 397.053 629.274 396.44C629.274 395.64 628.994 395.027 628.434 394.6C627.874 394.173 627.141 393.84 626.234 393.6C625.328 393.333 624.381 393.053 623.394 392.76C622.514 392.52 621.634 392.267 620.754 392C619.901 391.707 619.128 391.333 618.434 390.88C617.741 390.427 617.181 389.853 616.754 389.16C616.328 388.467 616.114 387.6 616.114 386.56C616.114 385.573 616.328 384.707 616.754 383.96C617.181 383.213 617.768 382.587 618.514 382.08C619.288 381.573 620.194 381.187 621.234 380.92C622.301 380.653 623.461 380.52 624.714 380.52C626.021 380.52 627.181 380.667 628.194 380.96C629.208 381.227 630.061 381.613 630.754 382.12C631.474 382.627 632.021 383.24 632.394 383.96C632.768 384.653 632.954 385.4 632.954 386.2C632.954 386.36 632.941 386.533 632.914 386.72C632.914 386.88 632.914 386.987 632.914 387.04H628.834V386.68C628.834 386.147 628.688 385.667 628.394 385.24C628.101 384.813 627.634 384.467 626.994 384.2C626.381 383.933 625.554 383.8 624.514 383.8C623.821 383.8 623.208 383.867 622.674 384C622.141 384.107 621.701 384.267 621.354 384.48C621.008 384.693 620.741 384.947 620.554 385.24C620.394 385.533 620.314 385.867 620.314 386.24C620.314 386.853 620.528 387.333 620.954 387.68C621.408 388 621.994 388.28 622.714 388.52C623.434 388.733 624.208 388.973 625.034 389.24C625.994 389.507 626.968 389.787 627.954 390.08C628.941 390.347 629.848 390.693 630.674 391.12C631.528 391.547 632.208 392.133 632.714 392.88C633.248 393.627 633.514 394.627 633.514 395.88C633.514 397.027 633.288 398.027 632.834 398.88C632.381 399.733 631.741 400.427 630.914 400.96C630.114 401.467 629.168 401.84 628.074 402.08C626.981 402.347 625.794 402.48 624.514 402.48ZM638.571 402V397.36H643.011V402H638.571Z" fill="#370F8C"/>
</svg>
