<svg width="62" height="62" viewBox="0 0 62 62" fill="none" xmlns="http://www.w3.org/2000/svg">
<path d="M43.9167 46.4997H54.25V41.333H43.9167V36.1663L36.1667 43.9163L43.9167 51.6663V46.4997ZM28.4167 10.333C22.7333 10.333 18.0833 14.983 18.0833 20.6663C18.0833 26.3497 22.7333 30.9997 28.4167 30.9997C34.1 30.9997 38.75 26.3497 38.75 20.6663C38.75 14.983 34.1 10.333 28.4167 10.333ZM28.4167 36.1663C17.05 36.1663 7.75 40.8163 7.75 46.4997V51.6663H32.2917C31.5167 49.5997 31 47.533 31 45.208C31 42.108 31.775 39.2663 33.325 36.4247C31.775 36.4247 30.225 36.1663 28.4167 36.1663Z" fill="#20C997"/>
</svg>
