<svg width="100" height="100" viewBox="0 0 100 100" fill="none" xmlns="http://www.w3.org/2000/svg">
<path d="M27.778 55.3352C38.3635 55.3352 46.9447 46.7415 46.9447 36.1407C46.9447 25.5399 38.3635 16.9463 27.778 16.9463C17.1925 16.9463 8.61133 25.5399 8.61133 36.1407C8.61133 46.7415 17.1925 55.3352 27.778 55.3352Z" fill="#FBD230" stroke="#FBD230" stroke-width="2" stroke-miterlimit="10"/>
<path d="M25.5527 55.4306C21.1721 61.4556 15.2777 63.889 6.94434 63.889C10.936 61.2278 14.9277 56.0167 16.4777 51.9209L25.5527 55.4306Z" fill="#FBD230"/>
<path d="M72.2223 76.5003C82.8078 76.5003 91.389 67.9191 91.389 57.3337C91.389 46.7482 82.8078 38.167 72.2223 38.167C61.6369 38.167 53.0557 46.7482 53.0557 57.3337C53.0557 67.9191 61.6369 76.5003 72.2223 76.5003Z" fill="#20C997" stroke="#20C997" stroke-width="2" stroke-miterlimit="10"/>
<path d="M74.4473 76.6533C78.8278 82.6783 84.7223 85.1116 93.0556 85.1116C89.0639 82.4505 85.0723 77.2394 83.5223 73.1436L74.4473 76.6533Z" fill="#20C997"/>
<path d="M18.0551 38.8886C19.5892 38.8886 20.8329 37.6449 20.8329 36.1108C20.8329 34.5767 19.5892 33.333 18.0551 33.333C16.521 33.333 15.2773 34.5767 15.2773 36.1108C15.2773 37.6449 16.521 38.8886 18.0551 38.8886Z" fill="#370F8C"/>
<path d="M27.7778 38.8886C29.3119 38.8886 30.5556 37.6449 30.5556 36.1108C30.5556 34.5767 29.3119 33.333 27.7778 33.333C26.2437 33.333 25 34.5767 25 36.1108C25 37.6449 26.2437 38.8886 27.7778 38.8886Z" fill="#370F8C"/>
<path d="M37.5004 38.8886C39.0346 38.8886 40.2782 37.6449 40.2782 36.1108C40.2782 34.5767 39.0346 33.333 37.5004 33.333C35.9663 33.333 34.7227 34.5767 34.7227 36.1108C34.7227 37.6449 35.9663 38.8886 37.5004 38.8886Z" fill="#370F8C"/>
<path d="M16.4777 51.9209C14.9277 56.0181 10.936 61.2278 6.94434 63.889C15.2777 63.889 21.1721 61.4556 25.5527 55.4306" stroke="#370F8C" stroke-width="2" stroke-miterlimit="10" stroke-linecap="round" stroke-linejoin="round"/>
<path d="M30.9372 55.3003C40.1733 53.792 47.2219 45.7739 47.2219 36.1114C47.2219 25.3725 38.5163 16.667 27.7775 16.667C17.0386 16.667 8.33301 25.3725 8.33301 36.1114C8.33301 40.742 9.95106 44.9934 12.6525 48.3337" stroke="#370F8C" stroke-width="2" stroke-miterlimit="10" stroke-linecap="round"/>
<path d="M81.9448 60.1112C83.4789 60.1112 84.7225 58.8676 84.7225 57.3334C84.7225 55.7993 83.4789 54.5557 81.9448 54.5557C80.4106 54.5557 79.167 55.7993 79.167 57.3334C79.167 58.8676 80.4106 60.1112 81.9448 60.1112Z" fill="#370F8C"/>
<path d="M72.2221 60.1112C73.7562 60.1112 74.9999 58.8676 74.9999 57.3334C74.9999 55.7993 73.7562 54.5557 72.2221 54.5557C70.688 54.5557 69.4443 55.7993 69.4443 57.3334C69.4443 58.8676 70.688 60.1112 72.2221 60.1112Z" fill="#370F8C"/>
<path d="M62.5004 60.1112C64.0346 60.1112 65.2782 58.8676 65.2782 57.3334C65.2782 55.7993 64.0346 54.5557 62.5004 54.5557C60.9663 54.5557 59.7227 55.7993 59.7227 57.3334C59.7227 58.8676 60.9663 60.1112 62.5004 60.1112Z" fill="#370F8C"/>
<path d="M83.5223 73.1426C85.0723 77.2398 89.0639 82.4495 93.0556 85.1106C84.7223 85.1106 78.8278 82.6773 74.4473 76.6523" stroke="#370F8C" stroke-width="2" stroke-miterlimit="10" stroke-linecap="round" stroke-linejoin="round"/>
<path d="M69.0621 76.522C59.826 75.0137 52.7773 66.9956 52.7773 57.3331C52.7773 46.5942 61.4829 37.8887 72.2218 37.8887C82.9607 37.8887 91.6662 46.5942 91.6662 57.3331C91.6662 61.9637 90.0482 66.2151 87.3468 69.5553" stroke="#370F8C" stroke-width="2" stroke-miterlimit="10" stroke-linecap="round"/>
</svg>
