<svg width="20" height="20" viewBox="0 0 20 20" fill="none" xmlns="http://www.w3.org/2000/svg">
<g clip-path="url(#clip0_344_2433)">
<path d="M0 2V14C0 15.1 0.9 16 2 16H16L20 20V2C20 0.9 19.1 0 18 0H2C0.9 0 0 0.9 0 2ZM7.5 5.5C7.5 6.3 6.8 7 6 7C5.2 7 4.5 6.3 4.5 5.5C4.5 4.7 5.2 4 6 4C6.8 4 7.5 4.7 7.5 5.5ZM15.5 5.5C15.5 6.3 14.8 7 14 7C13.2 7 12.5 6.3 12.5 5.5C12.5 4.7 13.2 4 14 4C14.8 4 15.5 4.7 15.5 5.5ZM4.4 9H15.7C14.9 11.3 12.7 12 10.1 12C7.5 12 5.2 11.3 4.4 9Z" fill="#20C997"/>
</g>
<defs>
<clipPath id="clip0_344_2433">
<rect width="20" height="20" fill="white"/>
</clipPath>
</defs>
</svg>
