<svg width="20" height="20" viewBox="0 0 20 20" fill="none" xmlns="http://www.w3.org/2000/svg">
<path d="M3.77778 18C3.28889 18 2.87022 17.8261 2.52178 17.4782C2.17393 17.1298 2 16.7111 2 16.2222V3.77778C2 3.28889 2.17393 2.87022 2.52178 2.52178C2.87022 2.17393 3.28889 2 3.77778 2H16.2222C16.7111 2 17.1298 2.17393 17.4782 2.52178C17.8261 2.87022 18 3.28889 18 3.77778V12.6667L12.6667 18H3.77778ZM9.11111 11.7778C9.36296 11.7778 9.57422 11.6924 9.74489 11.5218C9.91496 11.3517 10 11.1407 10 10.8889C10 10.637 9.91496 10.4258 9.74489 10.2551C9.57422 10.085 9.36296 10 9.11111 10H6.44444C6.19259 10 5.98133 10.085 5.81067 10.2551C5.64059 10.4258 5.55556 10.637 5.55556 10.8889C5.55556 11.1407 5.64059 11.3517 5.81067 11.5218C5.98133 11.6924 6.19259 11.7778 6.44444 11.7778H9.11111ZM13.5556 8.22222C13.8074 8.22222 14.0184 8.13689 14.1884 7.96622C14.3591 7.79615 14.4444 7.58519 14.4444 7.33333C14.4444 7.08148 14.3591 6.87022 14.1884 6.69956C14.0184 6.52948 13.8074 6.44444 13.5556 6.44444H6.44444C6.19259 6.44444 5.98133 6.52948 5.81067 6.69956C5.64059 6.87022 5.55556 7.08148 5.55556 7.33333C5.55556 7.58519 5.64059 7.79615 5.81067 7.96622C5.98133 8.13689 6.19259 8.22222 6.44444 8.22222H13.5556ZM11.7778 16.2222L16.2222 11.7778H12.6667C12.4148 11.7778 12.2039 11.8628 12.0338 12.0329C11.8631 12.2036 11.7778 12.4148 11.7778 12.6667V16.2222Z" fill="#20C997"/>
</svg>
