<svg xmlns="http://www.w3.org/2000/svg" xmlns:xlink="http://www.w3.org/1999/xlink" viewBox="0 0 150 150"><defs><clipPath id="a"><rect x="6" y="26.25" width="111" height="118.5" style="fill:none"/></clipPath></defs><circle cx="75" cy="75" r="75" style="fill:#e9ecef"/><g style="clip-path:url(#a)"><path d="M39.78,76.6c-.85,0-1.73,0-2.58,0s-1-.16-1-1c0-12.76,0-25.57,0-38.34,0-.49,0-1,0-1.42-.16-1,.4-1.25,1.29-1.25q31.77.06,63.55.08c.77,0,1.81-.2,2.26.2s.16,1.46.16,2.23V75.11c0,1-.16,1.61-1.33,1.45-.16,0-.36.16-.52.21a3.56,3.56,0,0,1-.53-.41,10.24,10.24,0,0,0-6.51-3.64c-3.42-.52-6.75-.36-9.65,1.86-.88.69-1.73,1.46-2.57,2.14l-4.14-.12c-1.49,0-3,0-4.46,0,0-.4-.12-.8-.12-1.17,0-2.71,0-5.37,0-8.08a1.35,1.35,0,0,0-1-1.49c-3.17-1.14-6.35-2.31-9.49-3.48-1.4-.53-1.56-1.45-.64-2.67a11.66,11.66,0,0,0,1.45-2.62c.48-1.22.92-2.43,1.28-3.68a4.27,4.27,0,0,0,.09-3.52,3.26,3.26,0,0,1-.45-1.37,7.47,7.47,0,0,0-2.61-5c-1.77-1.54-3.86-1.74-6.07-1.82a7.55,7.55,0,0,0-7.08,5.46c-.2.8-.08,1.77-.52,2.42A4,4,0,0,0,48.26,53a19.91,19.91,0,0,0,1.25,3,33.74,33.74,0,0,0,1.76,3.87c.81,1.3.73,1.94-.72,2.51-3.13,1.17-6.23,2.34-9.41,3.47a1.39,1.39,0,0,0-1.08,1.54c0,2.71,0,5.37,0,8.08A7.71,7.71,0,0,0,39.78,76.6ZM86.69,39.15h0c-4.06,0-8.16,0-12.22,0-1,0-1.25.32-1.25,1.29,0,2.46,0,4.89,0,7.35a2.55,2.55,0,0,1-.85,1.94c-1.57,1.5-3.13,3-4.7,4.53a1.85,1.85,0,0,0-.36,2.14c.08.24,1,.32,1.48.32,1.21,0,2.41,0,3.62,0,.6,0,.85.29.81.89,0,.89,0,1.74,0,2.63,0,.69.29,1,1,1H99.28c.76,0,1-.28,1-1.09q-.06-9.88,0-19.76c0-.93-.32-1.21-1.25-1.21Z" style="fill:#fbd230"/><path d="M69.89,26.54c11.94,0,23.88.08,35.86,0,3.74,0,5.87,2.59,5.87,5.94-.08,16,0,32,0,47.92,0,2,0,2,2,2H116c.64,0,.92.2.88.89,0,1.29,0,2.55,0,3.84a1.86,1.86,0,0,1-.52,1.09c-1.57,1.25-3.17,2.46-4.78,3.64a3.13,3.13,0,0,1-1.49.48c-1,.08-1.93,0-2.9,0-.52,0-.68-.2-.68-.73-.08-1.65-.08-1.73,1.57-1.61a4.5,4.5,0,0,0,3.5-1.13c.72-.69,1.61-1.22,2.37-1.86a1.62,1.62,0,0,0,.56-.89c.2-1.13,0-1.33-1.16-1.33-1.49,0-3,0-4.51,0-.24,0-.72-.37-.72-.53,0-.61.16-1.7.36-1.74.93-.16.81-.72.81-1.33V32.48c0-2.63-1-3.6-3.54-3.6h-72c-2.09,0-3.1,1.1-3.1,3.44V79.76c0,2.58,0,2.58,2.57,2.58H74.51c.36,0,1,.12,1,.28a7.55,7.55,0,0,1,0,1.9c0,.08-.29.17-.45.17a5.34,5.34,0,0,1-.8,0H26.79c-.48,0-1.24.16-1.36.44a1.67,1.67,0,0,0,.6,1.94c2.37,2.26,5.06,2.91,8.36,2.87,14-.16,28,0,42-.08.88,0,1.17.24,1.13,1.13s0,1.25-1.09,1.25c-15.52,0-31.08,0-46.59,0a2.89,2.89,0,0,1-1.53-.52c-1.61-1.14-3.22-2.31-4.74-3.52A1.87,1.87,0,0,1,23,87.07c-.08-1.29,0-2.63,0-3.92,0-.61.24-.85.85-.81,1.2,0,2.41,0,3.62,0,.6,0,.84-.2.8-.81,0-.89,0-1.81,0-2.7V32.2c0-2.71,1.21-4.57,3.54-5.38a6,6,0,0,1,2.09-.24C45.73,26.54,57.79,26.54,69.89,26.54Z" style="fill:#514a6b"/><path d="M77.29,125.17c-1.25,0-2.5,0-3.7,0-.61,0-.77-.2-.77-.73,0-3.71,0-7.47,0-11.19a1.23,1.23,0,0,1,.69-.93c3.86-1.65,7.72-3.31,11.65-4.81.93-.36,2.1,0,3.14,0a47.77,47.77,0,0,0,7.28-.08,10.39,10.39,0,0,1,5.67,1.1c2.93,1.21,5.82,2.42,8.8,3.59a1.31,1.31,0,0,1,1,1.45c-.09,3,0,5.9,0,8.89a18.57,18.57,0,0,1,0,2.11,1.12,1.12,0,0,1-.77.6c-1.25.08-2.45,0-3.7,0,0-1.74-.08-3.47,0-5.21,0-1-.32-1.17-1.2-1.21s-1.29.24-1.29,1.25c0,1.7,0,3.39,0,5.09-2.77,0-5.55,0-8.32,0H81a9.81,9.81,0,0,0-1.08.08c0-1.78-.12-3.55-.08-5.33,0-1-.48-1.09-1.29-1.13s-1.2.2-1.2,1.13C77.33,121.66,77.29,123.43,77.29,125.17Z" style="fill:#fbd230"/><path d="M82.27,76.73c.84-.73,1.69-1.5,2.57-2.15,2.9-2.22,6.23-2.38,9.65-1.86A10.42,10.42,0,0,1,101,76.36a3.11,3.11,0,0,0,.53.41,11.87,11.87,0,0,1,2,6.62,1.24,1.24,0,0,0,.2.65c1.4,1.45,1.12,3.15.52,4.73-.84,2.26-1.69,4.56-2.33,6.91a14.21,14.21,0,0,1-2.37,3.91,1.65,1.65,0,0,0,.56,2.71c5.15,2.14,10.29,4.28,15.48,6.35a1.62,1.62,0,0,1,1.2,1.77c0,5.5,0,11,0,16.45,0,.69,0,1.21-1,1.09-.73-.08-1.53.28-1.53-1,.08-4.93,0-9.9,0-14.83a1.64,1.64,0,0,0-1.17-1.86c-4.22-1.65-8.4-3.43-12.62-5.13a1.88,1.88,0,0,0-1-.12,41.54,41.54,0,0,1-15.16,0,3.06,3.06,0,0,0-1.45.2c-4.18,1.7-8.32,3.48-12.5,5.17a1.41,1.41,0,0,0-1,1.5c0,5.05,0,10.1,0,15.15,0,.44.24,1.13-.65,1-.68-.16-1.81.73-1.77-1,.08-5.66,0-11.31,0-16.93a1.06,1.06,0,0,1,.77-1.21c5.3-2.14,10.61-4.37,15.92-6.55a1.54,1.54,0,0,0,.56-2.5,11.17,11.17,0,0,1-3.14-6.71,2.36,2.36,0,0,0-.44-1,9.32,9.32,0,0,1-1.53-6.42c0-.09,0-.25.08-.29,1.17-1.25.89-3,1.33-4.4A31.32,31.32,0,0,1,82.27,76.73Zm10,26.58v-.12c.56,0,1.13,0,1.69,0,3.22-.2,2.65.08,2.73-2.79a3,3,0,0,1,0-.6,4.28,4.28,0,0,1,.69-1.46,9.23,9.23,0,0,0,2.65-4.4c.32-1.21.24-2.47,1-3.64a13,13,0,0,0,1.25-3.55,1,1,0,0,0-.44-.93c-.68-.21-.68-.65-.68-1.18V83a8.1,8.1,0,0,0-3.66-6.67c-2.05-1.45-4.39-1.49-6.72-1.41a8.21,8.21,0,0,0-5.87,2.62,8.52,8.52,0,0,0-2.25,6.75c0,.69.2,1.46-.84,1.62-.12,0-.28.32-.28.48a6.62,6.62,0,0,0,1.28,4.45,3.39,3.39,0,0,1,.65,1.45c.24,1.7.48,3.56,1.77,4.73a5.56,5.56,0,0,1,1.88,5.21c-.08.53.21.81.73.81C89.35,103.07,90.83,103.19,92.32,103.31Z" style="fill:#514a6b"/><path d="M39.78,76.6a11.35,11.35,0,0,0,.16-1.17c0-2.71,0-5.37,0-8.08A1.37,1.37,0,0,1,41,65.82c3.14-1.14,6.27-2.31,9.41-3.48,1.45-.53,1.53-1.21.72-2.51A25.26,25.26,0,0,1,49.38,56a27.09,27.09,0,0,1-1.24-3,4,4,0,0,1,.32-3.48A8.94,8.94,0,0,0,49,47.11a7.54,7.54,0,0,1,7.08-5.46c2.25,0,4.3.29,6.07,1.82a7.47,7.47,0,0,1,2.61,5.05,4,4,0,0,0,.44,1.38c.65,1.21.25,2.38-.08,3.51s-.8,2.47-1.28,3.68a12.61,12.61,0,0,1-1.45,2.62c-.88,1.18-.76,2.15.64,2.67,3.18,1.17,6.31,2.34,9.49,3.48a1.34,1.34,0,0,1,1,1.49c0,2.71,0,5.37,0,8.08a10.27,10.27,0,0,0,.12,1.17,13.84,13.84,0,0,0,0,2.23c0,.88-.12,1.29-1.17,1.33s-1.25-.45-1.21-1.37c0-3.28,0-6.51,0-9.78a1.35,1.35,0,0,0-1-1.54C68.12,66.78,66,66.06,64,65.21c-1-.45-1.49,0-2,.69a6.39,6.39,0,0,1-10.61,0,1.5,1.5,0,0,0-2.14-.69c-2.09.89-4.26,1.62-6.39,2.34-.64.2-.68.65-.68,1.17,0,3.08,0,6.11,0,9.18,0,1-.44,1-1.21,1s-1.32-.08-1.2-1A7.54,7.54,0,0,0,39.78,76.6ZM56.7,44.08a5,5,0,0,0-5.14,2.7c-.37.69-.81,2-.49,2.31,1.09,1,.24,1.77-.24,2.18-1,.93-.4,1.62,0,2.46a7.66,7.66,0,0,1,.77,2,5.17,5.17,0,0,0,4.62,4.45,5,5,0,0,0,5.31-3.44,19.45,19.45,0,0,1,1.4-4.12c.16-.28,0-.89-.24-1.25-.32-.73-1.24-1.33-.32-2.26.08-.08,0-.37,0-.57A5,5,0,0,0,56.7,44.08Zm0,22.18a4.12,4.12,0,0,0,3.18-1.45c.28-.33.88-.85-.08-1.18-.16,0-.24-.44-.24-.68,0-.69-.29-.69-.89-.65a11.73,11.73,0,0,1-3.74,0c-1.73-.44-.56,1.66-1.65,1.58a3.42,3.42,0,0,0,0,.64c0,.12.17.2.25.33A4.36,4.36,0,0,0,56.66,66.26Z" style="fill:#514a6b"/><path d="M46.61,77.25c-2.81.65-3.21.36-3.21-2.42V71.11c0-1.74.12-1.86,1.72-2.38,1.37-.45,2.74-.89,4.06-1.42a1.13,1.13,0,0,1,1.49.36,7.66,7.66,0,0,0,12.14,0c.36-.44.65-.64,1.17-.44,1.89.69,3.78,1.37,5.63,2.14.24.08.44.57.44.89,0,2,0,4,0,6.06,0,.81-.32,1.21-1.13,1.17l-2.09-.12c0-1.09-.12-2.22-.08-3.31,0-.77-.12-1.17-1-1.13-1.45,0-1.45,0-1.49,1.17s0,2.22-.08,3.31c-3.5,0-7,.08-10.49.08-1.49,0-3,0-4.51-.08,0-1.13-.08-2.26-.08-3.43,0-.77-.2-1.13-1-1-.68,0-1.45-.12-1.41,1S46.61,76.12,46.61,77.25Z" style="fill:#f5ba39"/><path d="M77.29,125.17c0-1.74.08-3.47,0-5.25,0-.93.36-1.13,1.2-1.13s1.33.08,1.29,1.13c0,1.78,0,3.55.08,5.33,0,.41-.08.81-.08,1.18,0,1.45-.52,1.85-1.93,1.41a1,1,0,0,1-.44-.69A8.24,8.24,0,0,1,77.29,125.17Z" style="fill:#514a6b"/><path d="M104,125.13c0-1.7.08-3.39,0-5.09,0-1,.32-1.25,1.29-1.25s1.24.24,1.2,1.21c-.08,1.74,0,3.47,0,5.21a16.47,16.47,0,0,0-.08,2c0,.57-.2.77-.76.73a6.61,6.61,0,0,0-.89,0c-.48,0-.72-.16-.72-.69C104.1,126.51,104,125.82,104,125.13Z" style="fill:#514a6b"/><path d="M64.18,77.33c0-1.09.08-2.22.08-3.31s0-1.13,1.49-1.17c.92,0,1,.36,1,1.13,0,1.09,0,2.22.08,3.31a.74.74,0,0,0-.08.28c-.12,1.3-.68,1.7-2,1.34-.2,0-.36-.33-.44-.53A3,3,0,0,1,64.18,77.33Z" style="fill:#514a6b"/><path d="M46.61,77.25c0-1.13.08-2.3,0-3.43s.73-.93,1.41-1,1,.28,1,1c0,1.13,0,2.26.08,3.43a1,1,0,0,0-.08.49c.16,1-.4,1.17-1.24,1.17s-1.25-.24-1.13-1.13C46.73,77.65,46.61,77.45,46.61,77.25Z" style="fill:#514a6b"/><path d="M86.69,39.15c4.1,0,8.24,0,12.34,0,.93,0,1.25.28,1.25,1.21,0,6.59,0,13.17,0,19.76,0,.77-.24,1.09-1,1.09H74.15c-.68,0-1-.24-1-1,0-.89,0-1.74,0-2.63,0-.56-.2-.89-.8-.89-1.21,0-2.41,0-3.62,0-.52,0-1.4-.08-1.48-.32a1.85,1.85,0,0,1,.36-2.14c1.56-1.5,3.09-3,4.7-4.53a2.49,2.49,0,0,0,.84-1.94c0-2.46,0-4.88,0-7.35,0-.93.25-1.29,1.25-1.29,4.1,0,8.2,0,12.26,0ZM71.21,54.3c1.33,0,2.46,0,3.58,0,.61,0,.85.24.85.81,0,.89,0,1.82,0,2.71,0,.72.28.92,1,.92q10.14-.06,20.26,0c.77,0,1-.24,1-1,0-5.06,0-10.11,0-15.12,0-.89-.28-1.17-1.17-1.13-6.67,0-13.3,0-20,0-.84,0-1.12.28-1.08,1.09,0,2.1.08,4.16,0,6.27a2.88,2.88,0,0,1-.73,1.65C73.79,51.75,72.58,52.93,71.21,54.3Z" style="fill:#514a6b"/><path d="M86.93,43.63h8c.69,0,.93.2.93.93,0,3.68,0,7.4,0,11.07,0,.69-.24,1-.89,1H78.77c-.56,0-.76-.28-.76-.8V44.36c0-.73.44-.69.92-.69C81.59,43.63,84.28,43.63,86.93,43.63ZM83.56,48.2c.8,0,1.6,0,2.41,0s.92-.28.84-.89.4-1.41-.72-1.41c-1.65,0-3.26,0-4.91-.09-.92,0-.8.53-.8,1.1s-.24,1.37.84,1.29C82,48.16,82.75,48.2,83.56,48.2Z" style="fill:#fbd230"/><path d="M83.56,48.2c-.77,0-1.53,0-2.3,0-1.08,0-.8-.73-.84-1.29s-.16-1.18.8-1.1c1.65.09,3.26.09,4.91.09,1.12,0,.64.88.72,1.41s-.16.93-.84.89C85.12,48.16,84.32,48.2,83.56,48.2Z" style="fill:#514a6b"/><circle cx="25.5" cy="125.5" r="18" style="fill:#f8f9fa;stroke:#514a6b;stroke-width:3px"/><circle cx="25.5" cy="125.5" r="18" style="fill:#20c997;stroke:#514a6b;stroke-width:3px"/><path d="M19.2,133v-.74a4.74,4.74,0,0,1,.38-1.9,6.7,6.7,0,0,1,1.06-1.61,14.07,14.07,0,0,1,1.49-1.37c.54-.43,1.09-.84,1.65-1.24q1.11-.8,2-1.59a7.5,7.5,0,0,0,1.52-1.7,3.64,3.64,0,0,0,.6-2,2.4,2.4,0,0,0-.32-1.2,2.06,2.06,0,0,0-.91-.89,3.23,3.23,0,0,0-1.63-.36,3.76,3.76,0,0,0-1.8.38,2.4,2.4,0,0,0-1,1,3.25,3.25,0,0,0-.31,1.47v1h-2.5c0-.08,0-.2,0-.36a5,5,0,0,1,0-.6,4.8,4.8,0,0,1,.79-2.86,4.69,4.69,0,0,1,2.14-1.6,7.68,7.68,0,0,1,2.88-.53,6.37,6.37,0,0,1,2.5.43,4.15,4.15,0,0,1,1.63,1.1,4.36,4.36,0,0,1,.89,1.54A5,5,0,0,1,30.5,121a5.19,5.19,0,0,1-.4,2.09A6.3,6.3,0,0,1,29,124.79a12,12,0,0,1-1.65,1.59c-.63.49-1.3,1-2,1.48-.45.31-.89.62-1.32.94a9.78,9.78,0,0,0-1.1,1,2.71,2.71,0,0,0-.65.94H30.6V133Z" style="fill:#514a6b"/></g></svg>