<svg xmlns="http://www.w3.org/2000/svg" viewBox="0 0 158.75 150"><circle cx="83.75" cy="75" r="75" style="fill:#e9ecef"/><path d="M115.52,123c-.6,0-1.24.08-1.84.08-7.36.07-14.74.11-22.09.19l-3-.69c0-3.44,0-6.85,0-10.3V100.14a1.13,1.13,0,0,1,.87-1.25c2.07-.68,4.11-1.48,6.18-2.16a1.41,1.41,0,0,1,1.17.19,12.91,12.91,0,0,0,15.87.3,2,2,0,0,1,2.19-.3c1.77.72,3.54,1.44,5.35,2a1.28,1.28,0,0,1,1,1.47c0,3.87,0,7.7,0,11.56,0,3.3,0,6.64,0,9.93,0,.87-.26,1.22-1.13,1.14s-1.62-.08-2.45-.08c0-.38,0-.75,0-1.13V106c0-.61,0-1.18-.87-1.1-.72,0-1.36,0-1.32,1.13.08,5.2,0,10.39,0,15.58C115.56,122,115.52,122.5,115.52,123ZM92.23,112.23v6.71c0,.64.22,1,.86.87s1.4.34,1.4-.84c0-4.39,0-8.83,0-13.22,0-.87-.45-1-1.13-.91s-1.13.11-1.13,1C92.26,108,92.23,110.11,92.23,112.23Z" style="fill:#fbd230"/><path d="M48.31,84.93s-1.88.08-2.79,0l-.71-.64s-.16-1.74-.16-2.38V64.59a21.58,21.58,0,0,1,.12-2.27,1,1,0,0,1,.56-.72c2.19-.84,4.38-1.67,6.6-2.43a1.65,1.65,0,0,1,1.24.42,12.9,12.9,0,0,0,8.3,2.73,12,12,0,0,0,7.42-2.73,1.57,1.57,0,0,1,1.7-.3c2,.72,3.92,1.4,5.92,2.16a1.26,1.26,0,0,1,.9,1.36c0,7.24,0,14.44,0,21.68,0,.87-.3,1.1-1.09,1.06s-1.62,0-2.45,0a7,7,0,0,1-.08-1c0-5.38,0-10.76,0-16.14,0-1-.45-1-1.2-1.06s-1.1.22-1.06,1.06c0,4.66,0,9.32,0,14,0,1-.07,2.34-.07,3.33-1.81,0-3.62-.08-5.39-.15-8.69,0-15.54-.42-15.54-.42s0-1.09,0-1.43V68.46c0-.8-.23-1-1-1.06s-1.21.22-1.21,1.17C48.35,73.84,48.31,84.93,48.31,84.93Z" style="fill:#fbd230"/><path d="M39.26,74.22V59.93a1.3,1.3,0,0,1,1-1.44c4.49-1.59,8.94-3.26,13.39-4.89a2,2,0,0,0,.79-3,10.44,10.44,0,0,1-2.83-6,.94.94,0,0,0-.23-.49,8.36,8.36,0,0,1-1.54-4.77,2.83,2.83,0,0,1,.71-2.35,1.59,1.59,0,0,0,.31-1,9.43,9.43,0,0,1,9.53-9.32c2.79,0,5.39.34,7.58,2.19a9.64,9.64,0,0,1,3.43,6.9,2.92,2.92,0,0,0,.49,1.44,3.46,3.46,0,0,1,.23,3.45C71,43,70.55,45.53,69.61,47.92a5.89,5.89,0,0,1-1.32,2c-1,.87-.83,1.94-.72,3,0,.23.46.53.79.64,4.53,1.67,9,3.34,13.58,5a1.27,1.27,0,0,1,1,1.44c0,9.89,0,19.82,0,29.71,0,1.17-.76,1.71-1.85,1.25a1,1,0,0,1-.38-.68c0-.61,0-1.21,0-1.78v-27a1.24,1.24,0,0,0-1-1.4c-3.24-1.17-6.48-2.31-9.68-3.56a1.48,1.48,0,0,0-1.81.38,9.54,9.54,0,0,1-7,3.11,9.34,9.34,0,0,1-7-3,1.58,1.58,0,0,0-2-.45c-3.21,1.21-6.41,2.35-9.62,3.52a1.31,1.31,0,0,0-1,1.44c0,9,0,18,0,27.06a1.17,1.17,0,0,1-1.84,1.14,1.23,1.23,0,0,1-.38-1c0-3.83,0-7.62,0-11.44C39.26,76.23,39.26,75.24,39.26,74.22ZM61.09,28.85h-.94A7.24,7.24,0,0,0,53,35.45c0,.57,0,1,.61,1.21s.75.61.34,1.1-.31,1.48-1.36,1c-.12-.08-.61.22-.61.3.23,1,.19,2.27.8,3a6,6,0,0,1,1.13,3,6,6,0,0,0,.41,1.51A7.36,7.36,0,0,0,62.11,51a7.47,7.47,0,0,0,6.14-6.41A13.68,13.68,0,0,1,69,42.16c.34-1,.71-2,1-3,.12-.41,0-.64-.56-.49-.91.26-.87-.68-1.21-1.1-.11-.11.23-.64.38-1s.45-.57.45-.83a8.35,8.35,0,0,0-.45-2.2A7.11,7.11,0,0,0,61.09,28.85ZM61,57.69a7.39,7.39,0,0,0,5-1.81c.15-.16.15-.5.19-.76-1.13-.27-.87-1.22-.87-2s-.26-.72-.83-.53a9.4,9.4,0,0,1-6.59,0c-.79-.3-1-.15-.94.65s.22,1.55-.83,1.82c0,0,0,.57.15.72A7.14,7.14,0,0,0,61,57.69Z" style="fill:#514a6b"/><path d="M126.83,112.34v14.93a1.2,1.2,0,0,1-1.88,1.1c-.19-.11-.31-.53-.34-.79,0-.8,0-1.59,0-2.35V98.85a1.08,1.08,0,0,0-.79-1.17c-3.43-1.25-6.86-2.54-10.33-3.76a1.53,1.53,0,0,0-1.21.38,10.29,10.29,0,0,1-6,3.15,8.87,8.87,0,0,1-7.8-2.62,2.35,2.35,0,0,0-3-.53c-3,1.22-6,2.28-9.08,3.34-.72.26-.87.6-.87,1.32,0,5.54,0,11.11,0,16.64a1.2,1.2,0,0,1-1.85,1.18,1.26,1.26,0,0,1-.38-.76c0-.8,0-1.59,0-2.35V97.49a1.23,1.23,0,0,1,.9-1.41c4.41-1.55,8.82-3.18,13.23-4.85.46-.15,1.13-.45,1.17-.72a3.65,3.65,0,0,0-.3-2.42,12.78,12.78,0,0,1-2.75-5.91c-.19-1-1-1.75-1.25-2.69-.3-1.18-.82-2.66-.37-3.57.86-1.85.83-3.9,1.54-5.76a9.45,9.45,0,0,1,8.67-6c2.15,0,4.26,0,6.22,1.1a9.46,9.46,0,0,1,5,7.85,3.58,3.58,0,0,0,.56,1.59,3.75,3.75,0,0,1,.34,2.92,5.31,5.31,0,0,1-.56,1.7c-1,1.63-1.06,3.53-1.74,5.23A11.38,11.38,0,0,1,112,87.71c-.79.91-.57,1.86-.53,2.84,0,.19.45.42.72.49,3.77,1.41,7.54,2.77,11.27,4.14.87.3,1.7.68,2.56.9a1,1,0,0,1,.83,1.22C126.79,102.3,126.83,107.34,126.83,112.34Zm-21.9-23.8a7.15,7.15,0,0,0,7.2-6,15.53,15.53,0,0,1,.75-2.58c.34-1,.8-1.89,1.13-2.88.16-.49.27-1-.67-.83-.3,0-.83-.72-1.13-1.22-.08-.11.22-.53.33-.79.19-.42.57-.87.5-1.25a7.12,7.12,0,0,0-2-4.36c-1.85-1.9-4.11-2.28-6.64-2.24A7.26,7.26,0,0,0,97,73c0,.38.34.76.53,1.14s.6.76.49.87c-.38.49-.26,1.59-1.39,1.29a.89.89,0,0,0-.64.27c.07,1.17,0,2.46.94,3.37a3,3,0,0,1,.87,2.08A7.24,7.24,0,0,0,104.93,88.54Zm-.15,6.64a7.18,7.18,0,0,0,5.09-1.79c.15-.15.15-.72.15-.72-1-.22-.87-1-.83-1.74,0-1,0-1.06-1-.72a9.07,9.07,0,0,1-6.41,0c-.75-.26-1-.15-1,.68,0,.57.34,1.29-.53,1.59s-.49.61,0,1A6.74,6.74,0,0,0,104.78,95.18Z" style="fill:#514a6b"/><path d="M55.48,93.1c.76-.72,1.47-1.4,2.19-2.12s1.28-1.29,1.89-2,.82-.61,1.35,0c1.17,1.29,2.34,2.54,3.55,3.75a5.35,5.35,0,0,0,.79.61c1,1.17,2.07,2.38,3.16,3.56,1.44,1.55,2.91,3,4.34,4.58.26.27.56.88.45,1.07-.34.49-.56,1.21-1.43,1.17-1.24-.07-2.53,0-3.77,0-.79,0-1,.27-1,1.06.38,9.52,4.56,16.91,12.33,22.29a28.5,28.5,0,0,0,7.42,3.56,4.73,4.73,0,0,0,1,.15l2.94.68a2.28,2.28,0,0,0,.68.23c.64,0,.83.31.79,1-.08,1.36,0,1.32-1.36,1.36-6.59,0-13-1-18.92-4.13a34.24,34.24,0,0,1-15.87-17.62,65,65,0,0,1-2.45-7.73c-.19-.61-.38-.84-1-.84-1.32,0-2.64,0-4,0-.87,0-1.17-.61-1.43-1.17-.11-.23.23-.8.49-1.07q3.56-3.8,7.12-7.54A2.44,2.44,0,0,0,55.48,93.1Zm14,8.41a2.6,2.6,0,0,0-.34-.6c-2.83-3-5.65-6-8.52-9a.82.82,0,0,0-.72,0c-.64.61-1.24,1.25-1.84,1.9-2.19,2.31-4.38,4.62-6.52,6.93a2.48,2.48,0,0,0-.34.65,4.5,4.5,0,0,0,.64.11c.86,0,1.77,0,2.64,0,.64,0,.94.15,1.05.87a34.49,34.49,0,0,0,2.68,9.29c3.47,7.69,8.78,13.64,16.58,17.09,1.89.83,3.93,1.4,5.89,2.08,0-.07.07-.15.11-.26s-.11-.12-.19-.15a32,32,0,0,1-10.25-9.1A28.86,28.86,0,0,1,65,102.88c.07-1.33.07-1.33,1.35-1.33C67.28,101.51,68.3,101.51,69.47,101.51Z" style="fill:#514a6b"/><path d="M71.49,85.32c0-1,.08-1.93.08-2.92,0-4.66,0-9.32,0-14,0-.83.23-1.1,1.05-1.06s1.21,0,1.21,1.06q-.06,8.07,0,16.14a8.11,8.11,0,0,0,.08,1,1.23,1.23,0,0,0,0,.38c0,1.25-.57,1.63-1.77,1.25a.91.91,0,0,1-.42-.61A7.76,7.76,0,0,1,71.49,85.32Z" style="fill:#514a6b"/><path d="M48.31,84.52c0-5.34,0-10.68,0-16,0-.94.3-1.17,1.2-1.17s1,.26,1,1.06c0,5.12,0,10.19,0,15.31,0,.34,0,.68,0,1a7.84,7.84,0,0,0-.08,1.6c.12,1-.6.79-1.16.83s-1.06,0-1-.83C48.35,85.74,48.31,85.13,48.31,84.52Z" style="fill:#514a6b"/><path d="M115.52,123c0-.45.08-.95.08-1.4,0-5.19,0-10.38,0-15.58,0-1.13.64-1.06,1.32-1.13.87-.08.87.49.87,1.1v15.84c0,.38,0,.75,0,1.13,0,.19,0,.38,0,.57.11.91-.19,1.29-1.17,1.22-.68-.08-1.17-.12-1-1A4.54,4.54,0,0,0,115.52,123Z" style="fill:#514a6b"/><path d="M92.23,112.23c0-2.16,0-4.28,0-6.44,0-.88.45-1,1.13-1s1.17,0,1.13.91c0,4.4,0,8.83,0,13.23,0,1.17-.83.72-1.4.83s-.86-.23-.86-.87C92.26,116.7,92.23,114.46,92.23,112.23Z" style="fill:#514a6b"/><path d="M73.28,127.28c-1.44-1-2.94-1.93-4.34-3a30.67,30.67,0,0,1-6.82-7.46,31.62,31.62,0,0,1-4.26-9c-.53-2-.91-4.17-1.36-6.25-.19-.87-.56-1.1-1.58-1a3.29,3.29,0,0,1-1-.16,3.15,3.15,0,0,1,.45-.83c1.78-1.93,3.58-3.87,5.43-5.76a1,1,0,0,1,.94,0c2,2,3.85,4,5.77,6.06.11.12.19.42.11.5a.86.86,0,0,1-.52.26c-.19,0-.38-.07-.57-.07-1.24-.16-1.66.22-1.66,1.47,0,1,0,2,0,2.92a29.31,29.31,0,0,0,3.35,13.45A34.78,34.78,0,0,0,72,125.24c.49.56,1.09,1.06,1.62,1.63A1.81,1.81,0,0,1,73.28,127.28Z" style="fill:#fbd230"/><path d="M108.61,56.89c-.75.72-1.47,1.41-2.18,2.13s-1.29,1.28-1.89,2-.83.6-1.36,0c-1.17-1.28-2.33-2.54-3.54-3.75a5.67,5.67,0,0,0-.79-.6c-1.06-1.18-2.08-2.39-3.17-3.57-1.43-1.55-2.9-3-4.33-4.58-.27-.27-.57-.87-.46-1.06.34-.5.57-1.22,1.44-1.18,1.24.08,2.52,0,3.77,0,.79,0,1-.27,1-1.06C96.7,35.75,92.52,28.36,84.75,23a28.57,28.57,0,0,0-7.43-3.56,4.64,4.64,0,0,0-1-.15l-2.94-.68a2.38,2.38,0,0,0-.68-.23c-.64,0-.83-.3-.79-1C72,16,71.93,16,73.25,16c6.6,0,13,1,18.93,4.13a34.36,34.36,0,0,1,15.87,17.62,68.34,68.34,0,0,1,2.45,7.74c.18.6.37.83,1,.83,1.32,0,2.63,0,4,0,.87,0,1.17.61,1.44,1.18.11.22-.23.79-.49,1.06-2.38,2.54-4.75,5-7.13,7.54A2.84,2.84,0,0,0,108.61,56.89Zm-14-8.41a2.57,2.57,0,0,0,.34.61c2.82,3,5.65,6,8.52,8.94a.8.8,0,0,0,.71,0c.64-.61,1.24-1.25,1.85-1.9,2.18-2.31,4.37-4.62,6.52-6.93a2.58,2.58,0,0,0,.34-.64,3.78,3.78,0,0,0-.64-.12c-.87,0-1.77,0-2.64,0-.64,0-.94-.15-1.06-.87a34.66,34.66,0,0,0-2.67-9.28c-3.47-7.7-8.79-13.65-16.59-17.1-1.88-.83-3.92-1.4-5.88-2.08a1.69,1.69,0,0,0-.11.26c.07,0,.11.12.19.16a31.92,31.92,0,0,1,10.25,9.09,28.93,28.93,0,0,1,5.39,18.5c-.08,1.32-.08,1.32-1.36,1.32C96.81,48.48,95.79,48.48,94.63,48.48Z" style="fill:#514a6b"/><path d="M90.82,22.71c1.43,1,2.94,1.93,4.33,3A30.56,30.56,0,0,1,102,33.21a31.44,31.44,0,0,1,4.26,8.94c.52,2.05.9,4.17,1.35,6.25.19.88.57,1.1,1.59,1a2.91,2.91,0,0,1,1,.15,2.88,2.88,0,0,1-.45.83c-1.77,1.93-3.58,3.87-5.43,5.76a1,1,0,0,1-.94,0c-2-2-3.84-4-5.77-6.06-.11-.11-.18-.42-.11-.49a.85.85,0,0,1,.53-.27c.19,0,.38.08.56.08,1.25.15,1.66-.23,1.66-1.48,0-1,0-2,0-2.92a29.46,29.46,0,0,0-3.35-13.45,34.84,34.84,0,0,0-4.79-6.82c-.49-.57-1.09-1.07-1.62-1.63A1.45,1.45,0,0,1,90.82,22.71Z" style="fill:#fbd230"/><path d="M27.25,26.69c-4.17,0-8.39,0-12.56,0-.94,0-1.26.29-1.26,1.23,0,6.68,0,13.36,0,20,0,.78.24,1.1,1.06,1.1H40c.7,0,1-.24,1-1,0-.9,0-1.76,0-2.66,0-.58.21-.9.82-.9,1.23,0,2.45,0,3.68,0,.53,0,1.43-.09,1.51-.33A1.88,1.88,0,0,0,46.58,42C45,40.46,43.44,38.9,41.8,37.39a2.55,2.55,0,0,1-.86-2c0-2.5,0-5,0-7.46,0-1-.28-1.31-1.26-1.31C35.55,26.69,31.42,26.69,27.25,26.69ZM43,42.1c-1.35,0-2.5,0-3.64,0-.62,0-.86.24-.86.82,0,.9,0,1.84,0,2.74,0,.74-.29,1-1,1q-10.3-.07-20.61,0c-.77,0-1-.25-1-1,0-5.12,0-10.24,0-15.32,0-.9.29-1.19,1.19-1.15,6.74,0,13.53,0,20.32,0,.85,0,1.1.29,1.1,1.11,0,2.13-.08,4.22,0,6.35a3,3,0,0,0,.74,1.68C40.37,39.52,41.6,40.66,43,42.1Z" style="fill:#514a6b"/><path d="M27,31.24H18.82c-.69,0-.94.21-.94.94,0,3.73,0,7.5,0,11.23,0,.7.25,1,.9,1H35.3c.57,0,.78-.28.78-.82V32c0-.74-.45-.7-.94-.7C32.44,31.28,29.7,31.28,27,31.24Z" style="fill:#fbd230"/><path d="M22.25,38.12a1,1,0,0,1,.36-.87A1.53,1.53,0,0,1,23.5,37a1.41,1.41,0,0,1,.84.25,1.22,1.22,0,0,1,0,1.73,1.35,1.35,0,0,1-.84.26,1.46,1.46,0,0,1-.89-.26A1,1,0,0,1,22.25,38.12Z" style="fill:#514a6b"/><path d="M25.72,38.12a1,1,0,0,1,.36-.87A1.53,1.53,0,0,1,27,37a1.41,1.41,0,0,1,.84.25,1.22,1.22,0,0,1,0,1.73,1.35,1.35,0,0,1-.84.26,1.46,1.46,0,0,1-.89-.26A1,1,0,0,1,25.72,38.12Z" style="fill:#514a6b"/><path d="M29.19,38.12a1,1,0,0,1,.36-.87,1.53,1.53,0,0,1,.89-.25,1.41,1.41,0,0,1,.84.25,1.22,1.22,0,0,1,0,1.73,1.35,1.35,0,0,1-.84.26,1.46,1.46,0,0,1-.89-.26A1,1,0,0,1,29.19,38.12Z" style="fill:#514a6b"/><path d="M139.19,64.8c4.17,0,8.38,0,12.55,0,.94,0,1.27.28,1.27,1.23,0,6.68,0,13.35,0,20,0,.78-.25,1.11-1.07,1.11H126.43c-.69,0-1-.25-1-1,0-.91,0-1.77,0-2.67,0-.57-.2-.9-.82-.9-1.22,0-2.45,0-3.68,0-.53,0-1.43-.08-1.51-.33a1.91,1.91,0,0,1,.37-2.17c1.59-1.52,3.15-3.07,4.78-4.59a2.53,2.53,0,0,0,.86-2c0-2.49,0-5,0-7.45,0-1,.29-1.31,1.27-1.31C130.89,64.8,135,64.8,139.19,64.8ZM123.45,80.2c1.34,0,2.49,0,3.63,0,.62,0,.86.25.86.82,0,.9,0,1.85,0,2.75,0,.74.29.94,1,.94q10.31-.06,20.61,0c.78,0,1-.25,1-1,0-5.12,0-10.25,0-15.33,0-.9-.28-1.18-1.19-1.14-6.74,0-13.53,0-20.31,0-.86,0-1.11.28-1.11,1.1,0,2.13.08,4.22,0,6.35a3,3,0,0,1-.73,1.68C126.06,77.62,124.84,78.77,123.45,80.2Z" style="fill:#514a6b"/><path d="M139.43,69.35h8.18c.69,0,.94.2.94.94,0,3.73,0,7.5,0,11.22,0,.7-.25,1-.9,1H131.13c-.57,0-.78-.29-.78-.82V70.08c0-.73.45-.69.94-.69C134,69.39,136.73,69.39,139.43,69.35Z" style="fill:#fbd230"/><path d="M138.62,77.38v-.5a2.19,2.19,0,0,1,.09-.66,1.48,1.48,0,0,1,.33-.56,3.43,3.43,0,0,1,.65-.53,3.48,3.48,0,0,0,.59-.43,1.07,1.07,0,0,0,.24-.34.87.87,0,0,0,.06-.32.42.42,0,0,0-.22-.38,1,1,0,0,0-.58-.15,3.22,3.22,0,0,0-1,.16,6.59,6.59,0,0,0-1.1.47l-.81-1.6a6.8,6.8,0,0,1,1.41-.6,5.63,5.63,0,0,1,1.63-.23,3.25,3.25,0,0,1,2.07.59,1.92,1.92,0,0,1,.73,1.55,2.47,2.47,0,0,1-.14.84,2.36,2.36,0,0,1-.45.71,3.66,3.66,0,0,1-.8.66l-.56.38a1.1,1.1,0,0,0-.28.31.6.6,0,0,0-.09.33v.3Zm-.25,2.05a1,1,0,0,1,.36-.87,1.5,1.5,0,0,1,.88-.26,1.43,1.43,0,0,1,.85.26,1,1,0,0,1,.36.87,1,1,0,0,1-.36.86,1.43,1.43,0,0,1-.85.26,1.5,1.5,0,0,1-.88-.26A1,1,0,0,1,138.37,79.43Z" style="fill:#514a6b"/><circle cx="19.5" cy="120" r="18" style="fill:#f8f9fa;stroke:#514a6b;stroke-width:3px"/><circle cx="19.5" cy="120" r="18" style="fill:#20c997;stroke:#514a6b;stroke-width:3px"/><path d="M19.69,128.54a7.81,7.81,0,0,1-3.24-.6,4.55,4.55,0,0,1-2-1.71,4.94,4.94,0,0,1-.67-2.59v-.31H16.3v.36a2.56,2.56,0,0,0,.84,2.06,3.66,3.66,0,0,0,2.4.72,3.84,3.84,0,0,0,2.38-.67,2.65,2.65,0,0,0-.84-4.65,5.78,5.78,0,0,0-1.68-.24H17.84v-2.07h1.63a4.2,4.2,0,0,0,1.49-.26,2.41,2.41,0,0,0,1.1-.89,2.7,2.7,0,0,0,.43-1.58,2.41,2.41,0,0,0-.38-1.44,2.16,2.16,0,0,0-1-.82,3.53,3.53,0,0,0-1.44-.29,3.8,3.8,0,0,0-1.53.31,2.39,2.39,0,0,0-1.06.87,2.54,2.54,0,0,0-.38,1.46v.36H14.14v-.5a4.16,4.16,0,0,1,.7-2.4,4.68,4.68,0,0,1,1.94-1.59,6.75,6.75,0,0,1,2.83-.57,7,7,0,0,1,2.84.53A4,4,0,0,1,25.06,116a3.84,3.84,0,0,1-.36,1.73,3.48,3.48,0,0,1-1,1.2,6.48,6.48,0,0,1-1.35.82v.09a4.43,4.43,0,0,1,2.16,1.39,3.84,3.84,0,0,1,.89,2.64,4.29,4.29,0,0,1-.74,2.52,4.65,4.65,0,0,1-2,1.64A7.64,7.64,0,0,1,19.69,128.54Z" style="fill:#514a6b"/></svg>