<svg xmlns="http://www.w3.org/2000/svg" xmlns:xlink="http://www.w3.org/1999/xlink" viewBox="0 0 157 150"><defs><clipPath id="a"><rect x="37.5" y="26.5" width="70" height="76.46" style="fill:none"/></clipPath></defs><circle cx="75" cy="75" r="75" style="fill:#e9ecef"/><path d="M122.44,120.5H23.23l-2.82-2.18c.14,0-1.34-1.57-1.47-1.94-.14-1.09-.67-2.06-.81-3.15-.4-2.9-.13-5.2,4.29-4.72.54,0,1.75-1.58,1.75-2.42.13-6.91,0-13.69,0-20.59V54c0-5,5.49-8.24,10.59-6.18.27.12.8.73.67.73a2.06,2.06,0,0,1-1.21,1.09C27,51.59,27,51.59,27,58.49c0,15.5.14,31,0,46.51,0,3,1.08,3.75,4.16,3.63,7.37-.24,14.75-.12,22.12,0a8.82,8.82,0,0,1,3.62.36c7.37,4.24,15.69,2.06,23.46,2.67a4.08,4.08,0,0,0,2.55-.73c3.89-2.18,8-2.42,12.47-2.3,6.43.12,13,0,19.44.12,2.41,0,3.35-.72,3.35-2.9-.13-17.08,0-34,0-51.11,0-3.27-1.07-4.12-4.83-4.36-1.6-.12-4,1.09-4.82-1.34a23,23,0,0,1,4.82-1c5.64-.25,7.65,1.69,7.65,6.78v49.89c0,2.79,0,4.85,4.15,4.24.54-.12,2,1.09,2,1.7,0,2.3-.53,4.72-.8,7.39Z" style="fill:#514a6b"/><path d="M73,118c14.08,0,28.15-.13,42.23,0,2.82,0,5.37-.37,7.24-2.31a4.73,4.73,0,0,0,1.34-3c0-.49-1.74-1.21-2.81-1.21-5.77-.13-11.67-.13-17.43,0-7,.12-14.08-1.21-20.38,2.78a1.11,1.11,0,0,1-.67.12c-8.72-.48-17.56,2.06-25.88-2.3a7.26,7.26,0,0,0-3.21-.6c-9.79-.13-19.58-.13-29.5,0-.81,0-2.28.48-2.41,1a2.77,2.77,0,0,0,.67,2.66A10.35,10.35,0,0,0,29.4,118C43.88,117.83,58.36,118,73,118Z" style="fill:#514a6b"/><path d="M73,118c-14.48,0-29-.13-43.57,0a9.94,9.94,0,0,1-7.24-3,2.86,2.86,0,0,1-.67-2.67c.13-.48,1.6-1,2.41-1H53.4a7.27,7.27,0,0,1,3.21.61c8.32,4.24,17.3,1.82,25.88,2.3a1.33,1.33,0,0,0,.67-.12c6.3-4,13.54-2.66,20.38-2.79,5.76-.12,11.66-.12,17.43,0,.93,0,2.81.73,2.81,1.22a4.75,4.75,0,0,1-1.34,3c-1.87,1.94-4.42,2.43-7.24,2.3C101,117.83,86.91,117.83,73,118Z" style="fill:#fbd230"/><g style="clip-path:url(#a)"><path d="M64.62,97.21c-5.74,0-11.37,0-17.12.11-2.62,0-3.62-1-3.62-3.38,0-19.29.12-38.57,0-58-.13-2.7.87-3.72,3.87-3.72,16.75.11,33.5,0,50.25,0,2.38,0,3.38.9,3.38,3V94.84c0,1.47-.5,2.37-2.26,2.37-6.24-.12-12.5-.12-18.62-.23ZM84.25,63.38c4,0,7.87.11,11.87-.12.63,0,1.88-1,1.88-1.69a59.51,59.51,0,0,0-.5-6.65c-.25-2-.62-4-3.12-4.63-1.88-.56-4.76-.78-5.13-1.8-.5-1.47.87-3.5,1.5-5.19.87-2.93-1.63-6.88-4.75-7.55s-6.12,1-7.5,4.06c-1.12,2.48-.38,4.73.88,6.65,1.24,2.14.62,2.59-1.76,3-5.62,1.12-6.5,2.25-6.5,7.55a9.65,9.65,0,0,1-.37,3.84c-.75,2,.13,2.59,2.13,2.48Zm-11.5,6.88c-7.37,0-14.75-.12-22.13,0-.87,0-1.87.78-2.74,1.12,1,.45,1.87,1.36,2.87,1.36,14.63.11,29.13.11,43.75,0,.88,0,1.62-.79,2.5-1.24a9,9,0,0,0-2.62-1.24C87.12,70.14,80,70.26,72.75,70.26Zm-.5,5.52H50.5a6.75,6.75,0,0,0-2.5,1c.88.45,1.75,1.24,2.5,1.24q21.93.17,43.88,0c.87,0,1.74-.91,2.5-1.36a15,15,0,0,0-2.5-1C87,75.67,79.62,75.78,72.25,75.78ZM60.5,83.56c3.38,0,6.88.12,10.25-.11.75,0,1.5-.79,2.25-1.24-.75-.45-1.38-1.13-2.12-1.24-7-.11-13.88-.11-20.88,0-.75,0-1.38.79-2.12,1.24.74.45,1.5,1.24,2.24,1.24C53.62,83.68,57,83.56,60.5,83.56ZM58.62,42.85c3,0,6,.11,9-.11.76,0,1.5-.79,2.38-1.24-.75-.45-1.5-1.24-2.25-1.35C62,40,56.12,40,50.38,40.15c-.76,0-1.5.78-2.26,1.24.88.45,1.63,1.24,2.5,1.35A47.14,47.14,0,0,0,58.62,42.85Zm-.87,4.29c-2.75,0-5.37-.12-8,0-.63,0-1.25.67-1.87,1.12.62.46,1.24,1.36,1.87,1.36,5.25.11,10.5.11,15.87,0,.63,0,1.26-.68,1.88-1.13-.62-.45-1.25-1.24-1.88-1.35C63,47,60.38,47.14,57.75,47.14ZM55,56.61a41.83,41.83,0,0,0,5.25-.11c.63-.12,1.25-.91,1.87-1.36C61.5,54.69,61,54,60.38,53.9q-5.25-.16-10.5,0c-.63,0-1.26.91-1.88,1.36.75.45,1.38,1.12,2.12,1.12A23.1,23.1,0,0,0,55,56.61Zm.12,4.4c-1.87,0-3.74-.11-5.62,0-.5,0-1,.67-1.62,1,.5.45.87,1.13,1.37,1.13,3.87.11,7.75.11,11.5,0,.5,0,1-.68,1.5-1.13-.5-.34-1-1-1.5-1Z" style="fill:#fbd230"/><path d="M107.5,29.54c0-2.59-1.12-3-3.62-3q-31.5.16-63,0c-2.76,0-3.38.79-3.38,3,.12,11.62,0,23.35,0,35V99.91c0,2,.25,3,3,3,7.12-.11,14.38,0,21.5-.11H83.12c7.13.11,14.38,0,21.5.11,2.26,0,2.76-.9,2.76-2.71C107.38,76.68,107.38,53.11,107.5,29.54Zm-2.62,68.23c0,2.14-.76,2.82-3,2.71q-9.19-.17-18.38,0H62c-5.88-.11-11.88-.23-17.75,0-3.13.11-4-.68-4-3.61.13-21.43.13-43,0-64.39,0-2.82.75-3.72,4-3.61,19,.11,38.13.11,57.13,0,2.87,0,3.74.79,3.74,3.27C104.75,54.13,104.75,76,104.88,97.77Z" style="fill:#514a6b"/><path d="M84.25,63.38H72.75c-2,0-2.87-.45-2.13-2.48A10.07,10.07,0,0,0,71,57.06c0-5.19.88-6.43,6.5-7.55,2.38-.46,3-.91,1.75-3s-2-4.17-.87-6.65c1.37-3.05,4.24-4.85,7.5-4.06s5.62,4.62,4.74,7.55c-.5,1.81-2,3.73-1.5,5.19.38,1,3.38,1.35,5.13,1.81,2.63.78,3,2.59,3.13,4.62a62,62,0,0,1,.5,6.65c0,.57-1.13,1.58-1.88,1.69C92.12,63.49,88.12,63.38,84.25,63.38ZM94.5,56.84c.5-2.37-.25-4.29-3.75-5a41.54,41.54,0,0,1-5.87-2.25,2,2,0,0,0-1.13-.11c-2.87,1.12-5.87,2.14-8.75,3.38a2.63,2.63,0,0,0-1.12,1.47,36.06,36.06,0,0,0,0,5.3c0,.45.87.78,1.24,1.24a8.89,8.89,0,0,0,1-1.36c.13-.34-.12-.79.13-1.13.37-.67.87-1.24,1.25-1.91.5.56,1.38,1.24,1.25,1.8-.25,2.37,1,2.93,3.25,2.71a24.27,24.27,0,0,1,4,0c2.25.11,3.62-.23,3.25-2.71-.13-.56.87-1.24,1.25-1.8.38.67.88,1.24,1.25,1.91s.75,1.7,1.13,2.6c.37-.9.87-1.81,1.24-2.71C94.62,58,94.5,57.51,94.5,56.84ZM84.12,38.12a3.33,3.33,0,0,0-3.24,4.28c.37,1.81.37,4.29,3.5,4.17,2.87-.11,3.12-2.48,3.37-4.39C87.88,39.58,86.25,38,84.12,38.12Z" style="fill:#514a6b"/><path d="M72.75,70.26h21.5c.87,0,1.75.78,2.63,1.24-.88.45-1.63,1.24-2.5,1.24-14.63.11-29.13.11-43.76,0-1,0-1.87-.91-2.87-1.36a7.06,7.06,0,0,1,2.75-1.12C58,70.14,65.38,70.26,72.75,70.26Z" style="fill:#514a6b"/><path d="M72.25,75.78H94.38a6.89,6.89,0,0,1,2.5,1c-.88.45-1.76,1.35-2.5,1.35q-21.94.16-43.88,0c-.88,0-1.75-.79-2.5-1.24.88-.34,1.75-1,2.5-1C57.75,75.67,65,75.78,72.25,75.78Z" style="fill:#514a6b"/><path d="M60.5,83.56c-3.38,0-6.88.12-10.25,0-.75,0-1.5-.79-2.25-1.24.75-.45,1.38-1.24,2.12-1.24C57.12,81,64,81,71,81.08c.75,0,1.5.79,2.12,1.24-.74.45-1.5,1.24-2.24,1.24Z" style="fill:#514a6b"/><path d="M58.62,43c-2.74,0-5.37.12-8.12-.11A7.52,7.52,0,0,1,48,41.5c.75-.45,1.5-1.24,2.25-1.24,5.75-.11,11.63-.11,17.37,0,.76,0,1.5.9,2.26,1.35a6.79,6.79,0,0,1-2.38,1.24C64.62,43,61.62,42.85,58.62,43Z" style="fill:#514a6b"/><path d="M57.75,47.14c2.63,0,5.13-.12,7.75.11.62,0,1.25.9,1.88,1.35-.63.34-1.26,1-1.88,1.13-5.25.11-10.5.11-15.88,0-.62,0-1.24-.9-1.87-1.35.63-.34,1.25-1,1.87-1.13C52.38,47,55.12,47.14,57.75,47.14Z" style="fill:#514a6b"/><path d="M55,56.61c-1.62,0-3.38.11-5,0-.75-.11-1.38-.79-2.12-1.13.62-.45,1.24-1.35,1.87-1.35q5.25-.16,10.5,0c.63,0,1.13.79,1.75,1.24-.62.45-1.12,1.24-1.88,1.35C58.5,56.72,56.75,56.61,55,56.61Z" style="fill:#514a6b"/><path d="M55.12,61c1.88,0,3.76-.11,5.63,0,.5,0,1,.67,1.5,1-.5.34-1,1.13-1.5,1.13-3.87.11-7.75.11-11.5,0-.5,0-.87-.79-1.37-1.13.5-.34,1-1,1.62-1Z" style="fill:#514a6b"/></g><circle cx="137.5" cy="33.5" r="18" style="fill:#f8f9fa;stroke:#514a6b;stroke-width:3px"/><circle cx="137.5" cy="33.5" r="18" style="fill:#20c997;stroke:#514a6b;stroke-width:3px"/><path d="M132,41.49V39.4h4.08V28.48H132V26.92a9.5,9.5,0,0,0,1.75-.29,12.07,12.07,0,0,0,1.92-.65,8.7,8.7,0,0,0,1.75-1h1.18V39.4h3.77v2.09Z" style="fill:#514a6b"/></svg>