<svg xmlns="http://www.w3.org/2000/svg" viewBox="0 0 156 150"><circle cx="75" cy="75" r="75" style="fill:#e9ecef"/><path d="M25.53,99.66c0-5.44,0-10.88,0-16.29,0-.75.24-.92.92-.88,3.12,0,6.29,0,9.41,0,.75,0,1.13.13,1.06,1,0,.17.1.37.13.54.17-.07.38-.07.51-.2a24.37,24.37,0,0,0,7.69-10.34,22.37,22.37,0,0,0,1.25-7.31c0-2.62,2.49-4.52,5.44-3.91a7.49,7.49,0,0,1,5.92,7.45c-.07,3,0,5.88-1,8.73a32.46,32.46,0,0,1-1.26,3.13c-.44,1-.47,1,.58,1H72.55c4.25,0,6.59,3.94,4.62,7.72-.27.47-.31.71.31,1a4.7,4.7,0,0,1,2.71,4.52,4.77,4.77,0,0,1-2.65,4.42c-.54.31-.74.48-.37,1.16a5,5,0,0,1-2,7c-.54.3-.65.51-.31,1.09a5,5,0,0,1-4.35,7.58c-7.68,0-15.33,0-23,0a10.28,10.28,0,0,1-5.88-1.83,8.21,8.21,0,0,0-3.84-1.4c-.61-.07-1,.1-.92.82,0,.37,0,.75,0,1.09,0,1.49.14,1.32-1.39,1.32-3,0-6.06,0-9.08,0-.71,0-.92-.17-.92-.88C25.53,110.61,25.5,105.13,25.53,99.66Zm9.22-15.07c-.07-.06-.14-.17-.21-.17H27.91c-.13,0-.27.24-.4.34,0,.34,0,.68,0,1v20.68c0,2.75,0,5.47,0,8.23,0,.07,0,.13,0,.2a7.19,7.19,0,0,0,.92.1h5.27c1.12,0,1.12,0,1.12-1.08V85.41A8,8,0,0,0,34.75,84.59Zm29.54,24.28v-2h7.64a8.57,8.57,0,0,0,1.84-.2,3,3,0,0,0,2-3.81,3.15,3.15,0,0,0-3.16-2.21c-2.52,0-5,0-7.55,0-.88,0-.81-.44-.85-1s.14-1,.89-1c3,0,6,0,9.07,0,.48,0,1,0,1.43,0A3,3,0,0,0,78,94.42a3,3,0,0,0-2.89-1.84H65.2c-.3,0-.74-.06-.88-.27a1.08,1.08,0,0,1,1-1.7h7.38a3,3,0,0,0,3.12-2.34,2.9,2.9,0,0,0-1.42-3.34,6.64,6.64,0,0,0-2.69-.51c-5.4,0-10.81,0-16.21,0a2.74,2.74,0,0,1-1.67-.61,1.92,1.92,0,0,1-.27-2.62c2.11-3.88,2.51-8,2.28-12.31a5.29,5.29,0,0,0-.58-1.94,5.15,5.15,0,0,0-4.59-2.86c-1.33-.06-2.14.92-2.18,2.56a22.73,22.73,0,0,1-4.14,12.85,37.55,37.55,0,0,1-6.77,7A1.82,1.82,0,0,0,36.89,88v22.85c0,.68.17,1,.88,1a9.11,9.11,0,0,1,5,1.66A8.72,8.72,0,0,0,47.94,115c5.88,0,11.76,0,17.64,0h5a3,3,0,0,0,.07-6.09C68.54,108.84,66.39,108.87,64.29,108.87Z" style="fill:#514a6b"/><path d="M86.65,48.85a6,6,0,0,1,4.8,2,6.84,6.84,0,0,1,0,9.56c-2.79,2.78-5.61,5.51-8.4,8.29-.41.41-.65.41-1.09,0-2.78-2.78-5.57-5.51-8.39-8.29a4,4,0,0,1-.68-.85,6,6,0,0,1-1.26-3.85A7.62,7.62,0,0,1,72,53.55a6.72,6.72,0,0,1,9.93-3.68c.57.48.91.51,1.46.07A6.35,6.35,0,0,1,86.65,48.85Zm-6-6.15c-4.52,0-9,0-13.6,0-1.32,0-1.56-.27-1.25-1.56,0-.17.44-.37.64-.41,1.6,0,3.23,0,4.83,0,3.06,0,6.12,0,9.18,0h7.85c4.32,0,8.67,0,13,0,1.15,0,1.15,0,1.15,1.12v35c0,1,0,1-1.43,1-.78,0-.57-.54-.57-1,0-13.09,0-20,0-33.09,0-.74-.14-1.12-1-1.08-3.77,0-7.51,0-11.29,0ZM91.35,55.89a4.75,4.75,0,0,0-3-4.69,4.82,4.82,0,0,0-5,1c-.81.81-.81.81-1.66,0a4.86,4.86,0,0,0-6.73,0A4.72,4.72,0,0,0,75,59c2.28,2.32,4.62,4.56,6.9,6.87.44.45.71.45,1.16,0,2.27-2.28,4.59-4.52,6.86-6.8A4.08,4.08,0,0,0,91.35,55.89Z" style="fill:#514a6b"/><path d="M47.56,32.8H61.12c.72,0,.92.21.89.89,0,6.05,0,12.1,0,18.16,0,.54-.1.78-.75.78-9,0-18,0-27.06,0-1.26,0-1.26,0-1.26-1.22,0-5.89,0-11.77,0-17.65,0-.75.24-1,1-1Zm-7.27,4.05a1.75,1.75,0,0,0,.34.38c2.1,1.46,4.21,2.89,6.32,4.38.54.38.88.14,1.29-.13,1-.68,2-1.36,3-2.08l3.44-2.55a10.49,10.49,0,0,0,2.89-2h-20a.83.83,0,0,0-.1.23C38.42,35.66,39.37,36.27,40.29,36.85ZM37,37.23c-.41-.31-.79-.65-1.19-1A3.19,3.19,0,0,0,35,36a4.45,4.45,0,0,0-.1.72v13c0,.67.2.95.91.95q11.69-.06,23.32,0c.72,0,.92-.24.92-.92,0-4,0-8,0-12A15.08,15.08,0,0,0,59.9,36c-.58.34-1.16.68-1.7,1a.52.52,0,0,0-.17.27,6.78,6.78,0,0,0-.88.48c-3,2.07-6,4.11-9,6.18a1,1,0,0,1-1.36,0c-2-1.42-4-2.82-6.05-4.18C39.54,38.89,38.25,38.08,37,37.23Z" style="fill:#514a6b"/><path d="M101.44,81.64h13.67c1.35,0,1.35,0,1.35,1.32,0,5.2,0,10.41,0,15.61,0,.82-.23,1.05-1,1.05q-8.31,0-16.62,0a2.44,2.44,0,0,0-1.36.48c-1.53,1.19-3,2.45-4.56,3.67a3.07,3.07,0,0,1-.54.41c-1.12.54-1.7.17-1.7-1.09,0-.92,0-1.87,0-2.79,0-.54-.2-.71-.71-.68-.92,0-1.87,0-2.79,0-.55,0-.72-.17-.72-.68V95.71c0-4.35,0-8.7,0-13,0-.82.27-1,1-1C92.13,81.67,96.78,81.64,101.44,81.64Zm0,2H89.3c-.54,0-.88,0-.88.74,0,4.15,0,8.27,0,12.42,0,.54.17.74.71.74.92,0,1.87,0,2.79,0,.55,0,.68.21.68.72q0,1,0,2a3.12,3.12,0,0,0,.17.78,5.07,5.07,0,0,0,.65-.34c1-.78,2-1.56,3-2.41a3,3,0,0,1,2.25-.79c5,0,10,0,14.95,0,.72,0,1-.21,1-1,0-4,0-7.86,0-11.8,0-1.13,0-1.13-1.12-1.13C109.39,83.68,105.42,83.68,101.44,83.68Z" style="fill:#514a6b"/><path d="M64.29,108.87c0,.75,0,1.46,0,2.21,0,.58-.17.82-.78.82-5.47,0-10.91,0-16.39-.07a6.71,6.71,0,0,1-2.44-.82c-1.4-.61-2.72-1.32-4.12-1.93-.44-.21-.61-.38-.61-.85,0-6.36,0-12.76,0-19.11A1.81,1.81,0,0,1,40.49,88c1.77-1.84,3.71-3.54,5.37-5.47A23.35,23.35,0,0,0,50,75.07a22.8,22.8,0,0,0,1.43-7c0-.48.27-.55.61-.27s.58.44.58.64a55.15,55.15,0,0,1-.07,5.75,18.58,18.58,0,0,1-2,6,5.09,5.09,0,0,0,2.92,6.87,5.94,5.94,0,0,0,2,.34c2.31,0,4.66,0,7,0,.14,0,.27,0,.41,0A12.78,12.78,0,0,0,61,89.15a4.3,4.3,0,0,0-.78,2.24c-.1,2.62,0,5.28,0,7.89a4.1,4.1,0,0,0,3.53,4.36c.21,0,.48.44.51.68.07.81,0,1.63.07,2.44S64.29,108.23,64.29,108.87Z" style="fill:#fbd230"/><path d="M27.51,114.69c0,.07,0,.13,0,.2A.46.46,0,0,0,27.51,114.69Z" style="fill:#f4bb3c"/><path d="M37,37.23c1.25.81,2.54,1.63,3.8,2.51,2,1.4,4.05,2.79,6.05,4.22a1,1,0,0,0,1.36,0q4.48-3.12,9-6.19c.27-.17.57-.31.88-.48a1.21,1.21,0,0,1,.07.34c0,3.44.07,6.91,0,10.41,0,.2-.37.51-.61.61a3.42,3.42,0,0,1-1,.07H39.78c-.75,0-1.53,0-2.28,0-.41,0-.72-.13-.68-.61C36.85,44.47,36.92,40.83,37,37.23Z" style="fill:#fbd230"/><path d="M54.67,36.85c-1.16.85-2.28,1.74-3.44,2.55-1,.72-2,1.4-3,2.08-.41.27-.78.51-1.29.13-2.11-1.49-4.22-2.92-6.32-4.38a3.16,3.16,0,0,1-.34-.38,5.13,5.13,0,0,1,1.05-.2H53.82A6.94,6.94,0,0,1,54.67,36.85Z" style="fill:#fbd230"/><path d="M29.34,99.66V87.25c0-.72.14-1.06.95-1a8.35,8.35,0,0,0,1.87,0c.72-.1.85.21.85.85,0,7.66,0,15.27,0,22.92,0,.79,0,1.6,0,2.38,0,.55-.17.79-.75.75s-1.36,0-2,0-.88-.2-.88-.88C29.34,108.09,29.34,103.87,29.34,99.66Z" style="fill:#fbd230"/><path d="M75.61,55.72A2.71,2.71,0,0,1,77.37,53a3.1,3.1,0,0,1,3.37,1c.44.44.85.88,1.26,1.36s.68.37,1,0c.54-.61,1.16-1.15,1.7-1.73a2.83,2.83,0,0,1,3.5-.27,3,3,0,0,1,.82,3.8,33.91,33.91,0,0,1-2.62,2.76c-1,1-2.14,2.07-3.16,3.13-.65.68-.92.71-1.6,0-1.7-1.7-3.36-3.4-5.06-5.07A2.6,2.6,0,0,1,75.61,55.72Z" style="fill:#fbd230"/><path d="M101.47,85.65c3.34,0,6.67,0,10,0,.82,0,1.09.24,1.09,1,0,2.62,0,5.27,0,7.89,0,1-.13,1.12-1.15,1.12H99.67a7.87,7.87,0,0,1-1.53-.1,3.27,3.27,0,0,0-2.85,1.12c-.14.14-.38.17-.58.28a3.7,3.7,0,0,1-.14-.55c0-.78-.44-.85-1-.82s-1.46.07-2.21.07-1-.3-1-1c0-2.76,0-5.48,0-8.23,0-.68.37-.78.92-.75C94.68,85.65,98.08,85.65,101.47,85.65Zm-7.88,6c1.15,0,1.15,0,1.15-1.19,0-.92-.1-1-1.19-1-.91,0-1,.44-1,1.16C92.53,91.53,92.87,91.8,93.59,91.7Zm15.53,0c1.06,0,1.16-.07,1.19-1,0-.65,0-1.19-.92-1.13-.61.07-1.29-.13-1.22.89C108.21,91.67,108.17,91.67,109.12,91.7ZM103,90.48c0,1.22,0,1.15,1.12,1.22.78,0,1-.27,1-1s.07-1.29-1-1.22C103.31,89.56,102.83,89.66,103,90.48Zm-3.16.23c0-1.19,0-1.15-1-1.19-.71,0-1.19.07-1.15,1,.06,1.16.06,1.12,1.19,1.19C99.84,91.77,100,91.33,99.88,90.71Z" style="fill:#fbd230"/><path d="M93.59,91.7c-.68.1-1.06-.17-1-1s.07-1.19,1-1.16c1.13.07,1.19.07,1.19,1C94.74,91.67,94.74,91.67,93.59,91.7Z" style="fill:#514a6b"/><path d="M109.12,91.7c-1,0-.91,0-1-1.29,0-1,.64-.82,1.22-.89.89-.06,1,.48.92,1.13C110.28,91.63,110.21,91.7,109.12,91.7Z" style="fill:#514a6b"/><path d="M103,90.48c-.17-.82.3-.92,1.09-1,1.05-.06,1,.55,1,1.23s-.17,1-1,1C103,91.63,103,91.7,103,90.48Z" style="fill:#514a6b"/><path d="M99.88,90.71c.1.58,0,1-.92,1-1.16-.07-1.12-.07-1.19-1.19-.07-.92.44-1,1.16-1C99.88,89.56,99.88,89.56,99.88,90.71Z" style="fill:#514a6b"/><circle cx="136.5" cy="30.5" r="18" style="fill:#f8f9fa;stroke:#514a6b;stroke-width:3px"/><circle cx="136.5" cy="30.5" r="18" style="fill:#20c997;stroke:#514a6b;stroke-width:3px"/><path d="M137.18,38V34.14h-7.46V32.07c.66-1.12,1.26-2.25,1.8-3.38s1-2.32,1.49-3.55a34.31,34.31,0,0,0,1.13-3.89h2.61c-.21.86-.47,1.75-.79,2.66s-.65,1.78-1,2.64-.74,1.67-1.11,2.4-.71,1.38-1,1.92a10.81,10.81,0,0,1-.77,1.2h5.16V27.34c.12-.27.23-.56.34-.86s.25-.64.36-1,.22-.66.31-1,.19-.59.27-.86h1.22v8.37h2.11v2.07h-2.11V38Z" style="fill:#514a6b"/></svg>