<svg width="18" height="18" viewBox="0 0 18 18" fill="none" xmlns="http://www.w3.org/2000/svg">
<path d="M8.16699 13.167H9.83366V8.16699H8.16699V13.167ZM9.00033 6.50033C9.23644 6.50033 9.43449 6.42033 9.59449 6.26033C9.75449 6.10033 9.83422 5.90255 9.83366 5.66699C9.83366 5.43088 9.75366 5.23283 9.59366 5.07283C9.43366 4.91283 9.23588 4.8331 9.00033 4.83366C8.76422 4.83366 8.56616 4.91366 8.40616 5.07366C8.24616 5.23366 8.16644 5.43144 8.16699 5.66699C8.16699 5.9031 8.24699 6.10116 8.40699 6.26116C8.56699 6.42116 8.76477 6.50088 9.00033 6.50033ZM9.00033 17.3337C7.84755 17.3337 6.76422 17.1148 5.75033 16.677C4.73644 16.2392 3.85449 15.6456 3.10449 14.8962C2.35449 14.1462 1.76088 13.2642 1.32366 12.2503C0.886437 11.2364 0.667548 10.1531 0.666992 9.00033C0.666992 7.84755 0.885881 6.76422 1.32366 5.75033C1.76144 4.73644 2.35505 3.85449 3.10449 3.10449C3.85449 2.35449 4.73644 1.76088 5.75033 1.32366C6.76422 0.886437 7.84755 0.667548 9.00033 0.666992C10.1531 0.666992 11.2364 0.885881 12.2503 1.32366C13.2642 1.76144 14.1462 2.35505 14.8962 3.10449C15.6462 3.85449 16.24 4.73644 16.6778 5.75033C17.1156 6.76422 17.3342 7.84755 17.3337 9.00033C17.3337 10.1531 17.1148 11.2364 16.677 12.2503C16.2392 13.2642 15.6456 14.1462 14.8962 14.8962C14.1462 15.6462 13.2642 16.24 12.2503 16.6778C11.2364 17.1156 10.1531 17.3342 9.00033 17.3337Z" fill="#20C997"/>
</svg>
