<svg xmlns="http://www.w3.org/2000/svg" viewBox="0 0 263.59 48"><path d="M34.22,32.73l.06.18Q34.4,40,30,44T17.73,48q-8,0-12.84-5.12T0,29.66V20.89Q0,12.81,4.77,7.67A16.24,16.24,0,0,1,17.28,2.52q8.07,0,12.63,4t4.43,11.11l-.06.18H25.65q0-4.25-2-6.33T17.28,9.35a7.14,7.14,0,0,0-6.21,3.2,14.18,14.18,0,0,0-2.24,8.28v8.83A13.73,13.73,0,0,0,11.19,38a7.64,7.64,0,0,0,6.54,3.22q4,0,5.94-2.08t1.95-6.39Z" style="fill:#fff"/><path d="M59.32,47.36A18.89,18.89,0,0,1,58.49,45a16.66,16.66,0,0,1-.5-2.55,12.19,12.19,0,0,1-3.61,4A9.09,9.09,0,0,1,49,48c-3.44,0-6.09-.88-8-2.66a9.52,9.52,0,0,1-2.8-7.24A8.65,8.65,0,0,1,42,30.62Q45.72,28,52.86,28h5V25.35a5.1,5.1,0,0,0-1.25-3.67,4.88,4.88,0,0,0-3.7-1.31,4.82,4.82,0,0,0-3.33,1.05,3.65,3.65,0,0,0-1.17,2.87H39.86l-.06-.18q-.21-4.17,3.63-7.18t10-3a14.72,14.72,0,0,1,9.58,3q3.66,3,3.66,8.53V39a25.87,25.87,0,0,0,.35,4.34,21.1,21.1,0,0,0,1.11,4Zm-8.1-5.92a7.56,7.56,0,0,0,4.13-1.15,6.28,6.28,0,0,0,2.49-2.67V33h-5a5.92,5.92,0,0,0-4.27,1.4,4.58,4.58,0,0,0-1.44,3.43,3.44,3.44,0,0,0,1.08,2.66A4.29,4.29,0,0,0,51.22,41.44Z" style="fill:#fff"/><path d="M90.63,22.13,87.38,22a6,6,0,0,0-3.25.82,5.19,5.19,0,0,0-1.94,2.31V47.36H73.35V14.51h8.23L82,19.37a10.4,10.4,0,0,1,3-4,6.69,6.69,0,0,1,4.24-1.44,6.81,6.81,0,0,1,1.23.1c.37.07.75.16,1.14.26Z" style="fill:#fff"/><path d="M108.9,48q-7.35,0-11.47-4.51A16.47,16.47,0,0,1,93.3,31.88V30.66q0-7.36,4-12.08t11-4.67q6.61,0,10.15,4.05T122,28.87v4.59H102.44l-.09.18a8.85,8.85,0,0,0,2,5.46,6.87,6.87,0,0,0,5.45,2.1,18.06,18.06,0,0,0,5.06-.61,20.36,20.36,0,0,0,4.3-1.85l2.39,5.47a16.42,16.42,0,0,1-5.34,2.7A23.7,23.7,0,0,1,108.9,48Zm-.57-27.26a4.94,4.94,0,0,0-4.12,1.83,9.23,9.23,0,0,0-1.74,4.88l.06.15h10.81v-.67a7.67,7.67,0,0,0-1.19-4.54A4.38,4.38,0,0,0,108.33,20.74Z" style="fill:#fff"/><path d="M141.42,48q-7.35,0-11.48-4.51a16.51,16.51,0,0,1-4.13-11.61V30.66q0-7.36,4-12.08t11-4.67q6.61,0,10.16,4.05t3.54,10.91v4.59H135l-.09.18a8.85,8.85,0,0,0,2,5.46,6.86,6.86,0,0,0,5.45,2.1,18.1,18.1,0,0,0,5.06-.61,20.51,20.51,0,0,0,4.29-1.85l2.4,5.47a16.63,16.63,0,0,1-5.34,2.7A23.7,23.7,0,0,1,141.42,48Zm-.58-27.26a4.92,4.92,0,0,0-4.11,1.83A9.23,9.23,0,0,0,135,27.45l.06.15h10.81v-.67a7.67,7.67,0,0,0-1.18-4.54A4.4,4.4,0,0,0,140.84,20.74Z" style="fill:#fff"/><path d="M177,22.13,173.72,22a6,6,0,0,0-3.25.82,5.26,5.26,0,0,0-1.94,2.31V47.36H159.7V14.51h8.22l.4,4.86a10.3,10.3,0,0,1,3-4A7.06,7.06,0,0,1,176.77,14c.38.07.76.16,1.14.26Z" style="fill:#fff"/><path d="M191.12,31.33v16h-8.87V3.16h16.91c5.09,0,9.08,1.29,12,3.88a13.06,13.06,0,0,1,4.37,10.24,13,13,0,0,1-4.37,10.2c-2.92,2.57-6.91,3.85-12,3.85Zm0-6.83h8a7.36,7.36,0,0,0,5.62-2,7.14,7.14,0,0,0,1.91-5.14,7.54,7.54,0,0,0-1.89-5.27A7.26,7.26,0,0,0,199.16,10h-8Z" style="fill:#fff"/><path d="M240.24,47.36a18.89,18.89,0,0,1-.83-2.37,16.66,16.66,0,0,1-.5-2.55,12.11,12.11,0,0,1-3.62,4A9,9,0,0,1,230,48c-3.44,0-6.09-.88-7.95-2.66a9.48,9.48,0,0,1-2.8-7.24,8.65,8.65,0,0,1,3.72-7.48Q226.64,28,233.78,28h5V25.35a5.1,5.1,0,0,0-1.25-3.67,4.88,4.88,0,0,0-3.7-1.31,4.82,4.82,0,0,0-3.33,1.05,3.65,3.65,0,0,0-1.17,2.87h-8.53l-.06-.18q-.21-4.17,3.63-7.18t10-3a14.72,14.72,0,0,1,9.58,3q3.66,3,3.66,8.53V39a25.87,25.87,0,0,0,.35,4.34,21.1,21.1,0,0,0,1.11,4Zm-8.1-5.92a7.58,7.58,0,0,0,4.13-1.15,6.28,6.28,0,0,0,2.49-2.67V33h-5a5.9,5.9,0,0,0-4.27,1.4,4.58,4.58,0,0,0-1.44,3.43,3.44,3.44,0,0,0,1.08,2.66A4.27,4.27,0,0,0,232.14,41.44Z" style="fill:#fff"/><path d="M263.59,47.36h-8.87V0h8.87Z" style="fill:#fff"/></svg>