<svg xmlns="http://www.w3.org/2000/svg" viewBox="0 0 55.07 48"><path d="M25.22,26.07c0,.34.41.73.58,1,1.47,2.06,3.18,4.11,4.88,6.66.46.71.8,1.27,1.27,1.9,2.07,2.8,4.17,5.57,6.26,8.35.82,1.09,1.66,2.17,2.5,3.25.47.6.75.58,1.18,0,.15-.21.28-.44.41-.66,1.09-1.9,2.16-3.82,3.3-5.7a1.47,1.47,0,0,0-.11-1.93c-.82-1-1.59-2.08-2.38-3.13-.18-.24-.31-.51-.57-.92.5,0,.83-.09,1.15-.09h4.45A1.42,1.42,0,0,0,49.53,34q2.59-4.52,5.24-9a1.63,1.63,0,0,0,0-1.84q-2.79-4.8-5.57-9.62C46.87,9.4,44.47,5.28,42.13,1.14A1.92,1.92,0,0,0,40.24,0Q27.53,0,14.84,0A1.88,1.88,0,0,0,13,1.09c-1.15,2.06-2.37,4.1-3.52,6.16A5.17,5.17,0,0,0,9.11,8.5a7.32,7.32,0,0,0,1.2.25l15,0c3.34,0,6.68,0,10,0a1.78,1.78,0,0,1,1.8,1c.25.48.54.94.81,1.41q3.45,6,6.9,12A1.87,1.87,0,0,1,43.23,26c-1.88,0-3.76-.06-5.64-.06-6.68,0-4.45,0-11.13-.05C26.14,25.87,25.22,25.73,25.22,26.07Z" style="fill:#fff"/><path d="M38.93,21.5a4.19,4.19,0,0,0-.18-.5c-1.35-2.35-2.73-4.67-4-7a2.14,2.14,0,0,0-2.19-1.23c-8.07,0-16.13,0-24.2,0l-1.2,0a1.49,1.49,0,0,0-1.37.85Q3,18.41.25,23.17a1.55,1.55,0,0,0,0,1.76c.39.62.76,1.27,1.13,1.91Q4.72,32.59,8,38.34c1.71,3,3.45,5.91,5.15,8.88a1.34,1.34,0,0,0,1.29.78H35.07c.26,0,.69-.11.73-.26a1.07,1.07,0,0,0-.21-.83c-1.66-2.25-3.36-4.47-5-6.72a1.84,1.84,0,0,0-1.67-.8c-2.59,0-6.56,0-9.15,0a1.6,1.6,0,0,1-1.6-.89c-.7-1.27-1.44-2.52-2.17-3.78q-2.86-5-5.71-9.93c-.15-.26-.34-.65-.26-.87a6.83,6.83,0,0,1,1.08-2c.26-.29.94-.31,1.43-.31,8.52,0,17,.05,25.57.07A4.16,4.16,0,0,0,38.93,21.5Z" style="fill:#fff"/></svg>