<svg width="20" height="20" viewBox="0 0 20 20" fill="none" xmlns="http://www.w3.org/2000/svg">
<path d="M19 18.6164V15.4717C19 14.5912 18.8714 13.7107 18.3571 12.8302C17.8429 11.9497 17.2 11.195 16.3 10.6918C15.4 10.0629 13.4714 9.93711 12.5714 9.93711L10.5143 12.0755L11.2857 13.7107V17.4843L10 18.8679L8.71429 17.4843V13.7107L9.61429 12.0755L7.42857 9.93711C6.4 9.93711 4.47143 10.0629 3.57143 10.6918C2.67143 11.195 2.15714 11.9497 1.64286 12.8302C1.12857 13.7107 1 14.4654 1 15.4717V18.6164C1 18.6164 4.34286 20 10 20C15.6571 20 19 18.6164 19 18.6164ZM10 0C7.55714 0 6.14286 2.26415 6.52857 4.77987C6.91429 7.2956 8.2 9.0566 10 9.0566C11.8 9.0566 13.0857 7.2956 13.4714 4.77987C13.8571 2.13837 12.4429 0 10 0Z" fill="#20C997"/>
</svg>
