<svg width="20" height="20" viewBox="0 0 20 20" fill="none" xmlns="http://www.w3.org/2000/svg">
<path d="M2 20C1.45 20 0.979002 19.7937 0.587002 19.3811C0.195002 18.9684 -0.000664969 18.473 1.69779e-06 17.8947V6.31579C1.69779e-06 5.73684 0.196002 5.24105 0.588002 4.82842C0.980002 4.41579 1.45067 4.20983 2 4.21053H6V2.10526C6 1.52632 6.196 1.03053 6.588 0.617896C6.98 0.205265 7.45067 -0.000699967 8 1.78715e-06H12C12.55 1.78715e-06 13.021 0.206318 13.413 0.618949C13.805 1.03158 14.0007 1.52702 14 2.10526V4.21053H18C18.55 4.21053 19.021 4.41684 19.413 4.82947C19.805 5.24211 20.0007 5.73754 20 6.31579V17.8947C20 18.4737 19.804 18.9695 19.412 19.3821C19.02 19.7947 18.5493 20.0007 18 20H2ZM8 4.21053H12V2.10526H8V4.21053Z" fill="#20C997"/>
</svg>
